<svg width="120" height="60" viewBox="0 0 120 60" fill="none" xmlns="http://www.w3.org/2000/svg">
<path fill-rule="evenodd" clip-rule="evenodd" d="M43.688 17.268L29.666 8.945C28.006 7.961 25.941 7.961 24.28 8.945L10.258 17.268C9.42424 17.7652 8.73433 18.4709 8.25617 19.3157C7.77801 20.1605 7.52808 21.1153 7.531 22.086V38.732C7.5256 39.7004 7.77189 40.6536 8.24573 41.4982C8.71957 42.3428 9.4047 43.0499 10.234 43.55L24.256 51.873C25.916 52.857 27.981 52.857 29.642 51.873L43.664 43.55C44.4933 43.0499 45.1784 42.3428 45.6523 41.4982C46.1261 40.6536 46.3724 39.7004 46.367 38.732V22.086C46.375 21.12 46.1325 20.1684 45.6632 19.324C45.1938 18.4796 44.5127 17.7712 43.688 17.268ZM32.83 43.26V44.455C32.8291 44.5285 32.8097 44.6006 32.7737 44.6647C32.7377 44.7288 32.6863 44.7829 32.624 44.822L31.924 45.228C31.811 45.288 31.718 45.228 31.718 45.071V43.896C31.2161 44.1421 30.6419 44.1979 30.102 44.053C30.016 43.995 29.982 43.883 30.024 43.789L30.279 42.707C30.3007 42.6158 30.3503 42.5336 30.421 42.472C30.441 42.452 30.464 42.436 30.491 42.422C30.527 42.406 30.568 42.406 30.604 42.422C31.0992 42.5545 31.6265 42.4877 32.073 42.236C32.3901 42.0809 32.6594 41.843 32.8525 41.5474C33.0456 41.2519 33.1553 40.9097 33.17 40.557C33.17 39.95 32.837 39.695 32.034 39.69C31.016 39.69 30.076 39.494 30.051 37.99C30.075 36.69 30.678 35.47 31.696 34.66V33.46C31.695 33.31 31.773 33.168 31.902 33.088L32.587 32.652C32.7 32.592 32.793 32.652 32.793 32.814V34.014C33.2117 33.8185 33.6818 33.7617 34.135 33.852C34.233 33.908 34.271 34.029 34.223 34.132L33.983 35.204C33.9627 35.2855 33.9205 35.3598 33.861 35.419C33.8406 35.4405 33.817 35.4587 33.791 35.473C33.7574 35.483 33.7216 35.483 33.688 35.473C33.246 35.3761 32.7836 35.4512 32.395 35.683C31.818 35.933 31.435 36.483 31.415 37.123C31.415 37.671 31.715 37.838 32.673 37.857C33.97 37.857 34.529 38.445 34.543 39.757C34.5309 40.4307 34.3721 41.0937 34.0779 41.6998C33.7836 42.306 33.3609 42.8408 32.839 43.267L32.83 43.26ZM40.174 41.248C40.1823 41.2984 40.1766 41.3501 40.1575 41.3976C40.1385 41.445 40.1068 41.4863 40.066 41.517L36.52 43.67C36.486 43.7 36.437 43.703 36.4 43.68C36.363 43.657 36.344 43.61 36.354 43.568V42.652C36.359 42.552 36.422 42.452 36.516 42.427L40.016 40.327C40.05 40.297 40.099 40.294 40.136 40.317C40.173 40.34 40.192 40.387 40.182 40.429V41.237L40.174 41.248ZM42.622 20.778L29.354 28.974C27.699 29.954 26.48 31.024 26.48 33.018V49.36C26.48 50.555 26.98 51.318 27.704 51.553C27.4619 51.5988 27.2163 51.6232 26.97 51.626C26.1908 51.6244 25.4264 51.413 24.757 51.014L10.735 42.7C10.054 42.2879 9.49138 41.7064 9.10181 41.0123C8.71225 40.3181 8.50905 39.535 8.512 38.739V22.086C8.50819 21.2892 8.71097 20.505 9.10058 19.8099C9.49018 19.1148 10.0533 18.5326 10.735 18.12L24.757 9.797C25.4238 9.40168 26.1848 9.19307 26.96 9.19307C27.7352 9.19307 28.4962 9.40168 29.163 9.797L43.185 18.12C43.756 18.4654 44.2446 18.9313 44.6167 19.4853C44.9888 20.0392 45.2353 20.6678 45.339 21.327C44.884 20.327 43.836 20.064 42.617 20.779L42.622 20.778ZM64.526 31.055C64.1703 30.6268 63.7471 30.2597 63.273 29.968L63.093 29.86C63.4719 29.6076 63.8144 29.3045 64.111 28.959C64.765 28.195 65.126 27.223 65.129 26.217C65.1591 25.3498 64.9546 24.4906 64.537 23.73C64.1431 23.0439 63.595 22.4588 62.936 22.021C62.2605 21.5692 61.5117 21.238 60.723 21.042C59.9219 20.8432 59.1004 20.7382 58.275 20.729H52.655C52.5627 20.7263 52.4708 20.7422 52.3848 20.7757C52.2988 20.8091 52.2203 20.8595 52.1541 20.9239C52.0879 20.9882 52.0353 21.0652 51.9994 21.1502C51.9635 21.2353 51.945 21.3267 51.945 21.419V39.379C51.9468 39.4701 51.9667 39.56 52.0034 39.6434C52.0401 39.7269 52.0931 39.8022 52.1591 39.865C52.2251 39.9279 52.3029 39.977 52.388 40.0096C52.4731 40.0422 52.5639 40.0577 52.655 40.055H58.7C59.5628 40.0478 60.4201 39.9174 61.246 39.668C62.0446 39.4276 62.7976 39.0558 63.474 38.568C64.1292 38.0813 64.669 37.4562 65.055 36.737C65.4611 35.9583 65.6618 35.0889 65.638 34.211C65.6415 33.6268 65.542 33.0466 65.344 32.497C65.1547 31.9773 64.8781 31.4936 64.526 31.067V31.055ZM61.1 27.1C60.942 27.37 60.73 27.604 60.473 27.785C60.189 27.987 59.873 28.139 59.538 28.235C59.1769 28.3413 58.8033 28.3988 58.427 28.406H55.773V24.06H58.329C58.7363 24.0666 59.1417 24.1176 59.538 24.212C59.8756 24.2874 60.1972 24.4218 60.488 24.609C60.7346 24.7707 60.9392 24.9887 61.085 25.245C61.2443 25.5459 61.3202 25.8839 61.305 26.224C61.3094 26.5324 61.2318 26.8365 61.08 27.105L61.1 27.11V27.1ZM55.793 31.653H58.893C59.3048 31.6651 59.7131 31.7324 60.107 31.853C60.4441 31.9563 60.7569 32.1264 61.027 32.353C61.279 32.5642 61.4811 32.8285 61.619 33.127C61.7689 33.4674 61.8393 33.8374 61.825 34.209C61.833 34.572 61.755 34.931 61.595 35.257C61.442 35.557 61.225 35.822 60.959 36.031C60.6639 36.2582 60.3326 36.434 59.979 36.551C59.595 36.679 59.194 36.747 58.779 36.751H55.8V31.654L55.793 31.653ZM76.178 21.23C76.1306 21.0871 76.0402 20.9624 75.9192 20.8729C75.7982 20.7834 75.6525 20.7335 75.502 20.73H73.495C73.3434 20.7289 73.1955 20.777 73.0736 20.8672C72.9517 20.9574 72.8623 21.0847 72.819 21.23L66.723 39.174C66.653 39.379 66.693 39.604 66.826 39.776C66.8937 39.8634 66.9806 39.934 67.0799 39.9824C67.1793 40.0307 67.2885 40.0556 67.399 40.055H69.799C69.9506 40.0561 70.0985 40.008 70.2204 39.9178C70.3423 39.8276 70.4317 39.7003 70.475 39.555L71.835 35.385H77.088L78.425 39.555C78.52 39.85 78.795 40.049 79.105 40.055H81.489C81.712 40.057 81.923 39.955 82.062 39.781C82.195 39.611 82.234 39.384 82.165 39.179L76.177 21.229L76.178 21.23ZM76.021 32.075H72.921L74.483 27.262L76.02 32.075H76.021ZM96.575 31.745C96.2495 31.3285 95.8709 30.9564 95.449 30.638C95.0291 30.3209 94.5835 30.0393 94.117 29.796C93.641 29.55 93.151 29.336 92.647 29.15L91.177 28.65L89.855 28.23C89.4383 28.0882 89.0378 27.9028 88.66 27.677C88.343 27.491 88.065 27.245 87.842 26.952C87.6508 26.6839 87.5512 26.3612 87.558 26.032C87.5483 25.7049 87.6241 25.3808 87.778 25.092C87.9339 24.8176 88.1459 24.5791 88.4 24.392C88.6847 24.1892 89.0029 24.0382 89.34 23.946C90.133 23.719 90.976 23.746 91.76 23.996C92.1144 24.1175 92.4409 24.309 92.72 24.559C92.9867 24.809 93.2027 25.1081 93.356 25.44C93.5331 25.8267 93.6504 26.2381 93.704 26.66C93.731 26.8265 93.8171 26.9777 93.9466 27.0857C94.0762 27.1937 94.2404 27.2514 94.409 27.248H96.857C97.0397 27.2447 97.2146 27.173 97.347 27.047C97.48 26.919 97.553 26.742 97.547 26.547C97.5381 25.6686 97.3215 24.8047 96.915 24.026C96.5216 23.2856 95.98 22.6341 95.324 22.112C94.6591 21.5852 93.9089 21.1759 93.106 20.902C91.4742 20.3592 89.7143 20.3347 88.068 20.832C87.2795 21.0538 86.5346 21.4082 85.865 21.88C85.2177 22.3459 84.6742 22.9411 84.269 23.628C83.847 24.3567 83.6303 25.186 83.642 26.028C83.6252 26.8591 83.8458 27.6778 84.278 28.388C84.6944 29.0482 85.2326 29.6231 85.864 30.082C86.4927 30.5444 87.175 30.9292 87.896 31.228C88.5808 31.5182 89.2801 31.7732 89.991 31.992L91.396 32.452C91.8243 32.5984 92.2349 32.7922 92.62 33.03C92.942 33.2261 93.2204 33.4861 93.438 33.794C93.6348 34.096 93.7323 34.4519 93.717 34.812C93.7296 35.1381 93.648 35.461 93.482 35.742C93.312 36.014 93.085 36.247 92.816 36.422C92.5159 36.6157 92.1847 36.7564 91.837 36.838C90.977 37.038 90.075 37.032 89.223 36.788C88.831 36.6727 88.4641 36.4851 88.141 36.235C87.8314 35.9893 87.5735 35.6848 87.382 35.339C87.1712 34.9484 87.0355 34.5217 86.982 34.081C86.955 33.9145 86.8689 33.7633 86.7393 33.6553C86.6098 33.5473 86.4456 33.4896 86.277 33.493H83.83C83.6466 33.4977 83.4716 33.5712 83.34 33.699C83.207 33.827 83.134 34.004 83.14 34.199C83.155 35.113 83.405 35.999 83.865 36.799C84.307 37.545 84.897 38.193 85.598 38.704C86.318 39.226 87.121 39.624 87.973 39.879C88.841 40.145 89.743 40.279 90.651 40.279C91.4778 40.2771 92.3008 40.1668 93.099 39.951C93.893 39.749 94.649 39.418 95.336 38.971C96.004 38.527 96.57 37.947 96.996 37.267C97.4456 36.5306 97.6766 35.6816 97.662 34.819C97.668 34.247 97.562 33.679 97.382 33.139C97.1906 32.6269 96.9177 32.1491 96.574 31.724L96.575 31.745ZM112.305 20.76H110.038C109.947 20.756 109.857 20.7699 109.771 20.801C109.686 20.832 109.608 20.8796 109.541 20.941C109.474 21.0024 109.42 21.0765 109.382 21.1588C109.343 21.2412 109.322 21.3303 109.318 21.421V28.476H103.002V21.42C103 21.3289 102.98 21.239 102.944 21.1556C102.907 21.0722 102.854 20.9968 102.788 20.934C102.722 20.8711 102.644 20.822 102.559 20.7894C102.474 20.7568 102.383 20.7413 102.292 20.744H100.035C99.9439 20.7413 99.8531 20.7568 99.768 20.7894C99.6829 20.822 99.6051 20.8711 99.5391 20.934C99.4731 20.9968 99.4202 21.0722 99.3834 21.1556C99.3467 21.239 99.3268 21.3289 99.325 21.42V39.38C99.3268 39.4711 99.3467 39.561 99.3834 39.6444C99.4202 39.7278 99.4731 39.8032 99.5391 39.866C99.6051 39.9289 99.6829 39.978 99.768 40.0106C99.8531 40.0432 99.9439 40.0587 100.035 40.056H102.292C102.383 40.0587 102.474 40.0432 102.559 40.0106C102.644 39.978 102.722 39.9289 102.788 39.866C102.854 39.8032 102.907 39.7278 102.944 39.6444C102.98 39.561 103 39.4711 103.002 39.38V31.757H109.318V39.38C109.32 39.4711 109.34 39.561 109.376 39.6444C109.413 39.7278 109.466 39.8032 109.532 39.866C109.598 39.9289 109.676 39.978 109.761 40.0106C109.846 40.0432 109.937 40.0587 110.028 40.056H112.305C112.396 40.0587 112.487 40.0432 112.572 40.0106C112.657 39.978 112.735 39.9289 112.801 39.866C112.867 39.8032 112.92 39.7278 112.957 39.6444C112.993 39.561 113.013 39.4711 113.015 39.38V21.42C113.007 21.2386 112.929 21.0674 112.796 20.9437C112.663 20.8199 112.487 20.7546 112.305 20.76Z" fill="#1B1B1F"/>
</svg>
