<svg width="120" height="60" viewBox="0 0 120 60" fill="none" xmlns="http://www.w3.org/2000/svg">
<path d="M52.7159 18.2006H70.003V25.4297H59.9451V32.6589H70.003V39.888H52.7159V18.2006Z" fill="black"/>
<path d="M73.4605 18.2006H90.7476V24.4868H80.6896V25.744H90.7476V40.2023H73.4605V33.6018H83.5184V32.3445H73.4605V18.2006Z" fill="black"/>
<path d="M94.205 18.2006H111.492V24.4868H101.434V25.744H111.492V40.2023H94.205V33.6018H104.263V32.3445H94.205V18.2006Z" fill="black"/>
<path d="M41.5622 46.9591L25.791 51.3314L10.0631 46.9652L6.55826 7.65393H45.0708L41.5622 46.9591Z" fill="#264DE4"/>
<path d="M25.8145 47.9894L38.5585 44.4563L41.5568 10.8682H25.8145V47.9894Z" fill="#2965F1"/>
<path d="M25.8145 25.4482H14.5931L15.0252 30.2695H25.8145V25.4482Z" fill="#EBEBEB"/>
<path d="M25.7979 15.6896H13.7248L14.1631 20.5111H25.8145V15.6896H25.7979Z" fill="#EBEBEB"/>
<path d="M25.7934 37.9754L20.4238 36.5255L20.0806 32.6803H17.4714H15.2407L15.9161 40.2505L25.7923 42.9922L25.8145 42.986V37.9698L25.7934 37.9754Z" fill="#EBEBEB"/>
<path d="M32.5917 20.5111L32.153 25.4482H25.7979V30.2695H31.7348L31.1752 36.5225L25.7979 37.9739V42.9899L35.6819 40.2505L35.7544 39.436L36.8874 26.7429L37.0051 25.4482L37.8755 15.6896H25.7979V20.5111H32.5917Z" fill="white"/>
</svg>
