<svg width="204" height="60" viewBox="0 0 204 60" fill="none" xmlns="http://www.w3.org/2000/svg">
<g clip-path="url(#clip0_3_66)">
<mask id="mask0_3_66" style="mask-type:luminance" maskUnits="userSpaceOnUse" x="48" y="16" width="21" height="36">
<path d="M48.686 17.6888C52.6986 29.9648 54.2208 51.8648 65.9597 51.8648C66.8529 51.8648 67.7559 51.7771 68.6631 51.6046C57.9914 49.1168 56.7252 27.4548 50.2137 16.2377C49.6942 16.7107 49.1846 17.1946 48.6853 17.6888" fill="white"/>
</mask>
<g mask="url(#mask0_3_66)">
<mask id="mask1_3_66" style="mask-type:luminance" maskUnits="userSpaceOnUse" x="48" y="16" width="21" height="36">
<path d="M68.6227 51.8724H48.6456V16.2453H68.6227V51.8724Z" fill="white"/>
</mask>
<g mask="url(#mask1_3_66)">
<mask id="mask2_3_66" style="mask-type:luminance" maskUnits="userSpaceOnUse" x="48" y="16" width="21" height="36">
<path d="M68.6227 16.2446V51.8724H48.6456V16.2453L68.6227 16.2446Z" fill="white"/>
</mask>
<g mask="url(#mask2_3_66)">
<path d="M68.6227 51.8724H48.6456V16.2453H68.6227V51.8724Z" fill="url(#paint0_linear_3_66)"/>
</g>
</g>
</g>
<mask id="mask3_3_66" style="mask-type:luminance" maskUnits="userSpaceOnUse" x="50" y="15" width="22" height="37">
<path d="M50.2144 16.2377C56.7259 27.4548 57.9907 49.1168 68.6638 51.6046C69.5007 51.4501 70.3424 51.2178 71.1842 50.9228C61.6047 46.2291 58.957 25.1966 51.5626 15.0696C51.1146 15.4425 50.6582 15.8314 50.2151 16.237" fill="white"/>
</mask>
<g mask="url(#mask3_3_66)">
<mask id="mask4_3_66" style="mask-type:luminance" maskUnits="userSpaceOnUse" x="50" y="15" width="22" height="37">
<path d="M71.2475 51.6526H50.2798V15.1176H71.2475V51.6526Z" fill="white"/>
</mask>
<g mask="url(#mask4_3_66)">
<mask id="mask5_3_66" style="mask-type:luminance" maskUnits="userSpaceOnUse" x="50" y="15" width="22" height="37">
<path d="M71.2475 15.1176V51.6526H50.2798V15.1176H71.2475Z" fill="white"/>
</mask>
<g mask="url(#mask5_3_66)">
<path d="M71.2475 51.6526H50.2798V15.1176H71.2475V51.6526Z" fill="url(#paint1_linear_3_66)"/>
</g>
</g>
</g>
<path d="M59.5973 9.56677C58.7057 9.56677 57.7996 9.65359 56.8925 9.82723C54.5171 10.2747 52.104 11.2965 49.6713 12.8454C50.3364 13.5021 50.9681 14.2512 51.5619 15.0715C54.0357 13.0123 56.4929 11.5008 58.9433 10.5886C59.8373 10.2547 60.7585 9.99863 61.6965 9.82334C61.01 9.65071 60.3046 9.56469 59.5967 9.56732" fill="#14559A"/>
<path d="M78.4541 49.1943C77.9921 48.7524 77.5536 48.2704 77.1217 47.7473C75.1348 49.1554 73.1524 50.2239 71.1834 50.9174C71.883 51.2602 72.6176 51.5129 73.3962 51.6715C73.9995 51.7961 74.6206 51.8585 75.2884 51.8585C77.4963 51.8585 79.2421 51.5952 80.7292 50.8845C79.9111 50.4415 79.1598 49.8683 78.4585 49.1887" fill="#1969BC"/>
<mask id="mask6_3_66" style="mask-type:luminance" maskUnits="userSpaceOnUse" x="58" y="9" width="21" height="39">
<path d="M58.943 10.5894C68.5872 15.6331 69.4248 38.4764 77.1211 47.7526C77.6359 47.3894 78.1472 47.004 78.6516 46.5978C73.8354 35.9261 72.4566 12.4956 61.691 9.82209C60.7713 9.99323 59.8544 10.2395 58.9361 10.5894" fill="white"/>
</mask>
<g mask="url(#mask6_3_66)">
<mask id="mask7_3_66" style="mask-type:luminance" maskUnits="userSpaceOnUse" x="58" y="9" width="21" height="39">
<path d="M78.7087 47.7999H58.9931V9.86732H78.7087V47.7999Z" fill="white"/>
</mask>
<g mask="url(#mask7_3_66)">
<mask id="mask8_3_66" style="mask-type:luminance" maskUnits="userSpaceOnUse" x="58" y="9" width="21" height="39">
<path d="M78.7087 9.86732V47.7999H58.9931V9.86732H78.7087Z" fill="white"/>
</mask>
<g mask="url(#mask8_3_66)">
<path d="M78.7087 47.7999H58.9931V9.86732H78.7087V47.7999Z" fill="url(#paint2_linear_3_66)"/>
</g>
</g>
</g>
<mask id="mask9_3_66" style="mask-type:luminance" maskUnits="userSpaceOnUse" x="51" y="10" width="27" height="41">
<path d="M51.5619 15.071C58.957 25.1973 61.604 46.2374 71.1835 50.9242C73.1523 50.2299 75.1336 49.1627 77.1211 47.754C69.4248 38.4771 68.5872 15.6345 58.943 10.5908C56.4943 11.5008 54.0357 13.0174 51.5688 15.071" fill="white"/>
</mask>
<g mask="url(#mask9_3_66)">
<mask id="mask10_3_66" style="mask-type:luminance" maskUnits="userSpaceOnUse" x="51" y="10" width="27" height="41">
<path d="M77.1093 50.9346H51.55V10.5992H77.1093V50.9346Z" fill="white"/>
</mask>
<g mask="url(#mask10_3_66)">
<mask id="mask11_3_66" style="mask-type:luminance" maskUnits="userSpaceOnUse" x="51" y="10" width="27" height="41">
<path d="M77.1093 10.5999V50.9353H51.55V10.5999H77.1093Z" fill="white"/>
</mask>
<g mask="url(#mask11_3_66)">
<path d="M77.1093 50.9346H51.55V10.5992H77.1093V50.9346Z" fill="url(#paint3_linear_3_66)"/>
</g>
</g>
</g>
<path d="M48.4564 13.6546L47.4301 14.4104C47.8798 15.3921 48.2955 16.4946 48.6846 17.694L50.2151 16.2431C49.668 15.3048 49.0886 14.4365 48.4564 13.6607" fill="#2B74B1"/>
<path d="M49.6713 12.8448L48.4564 13.6546C49.0864 14.431 49.6674 15.2992 50.2151 16.2369L51.5619 15.0693C50.9664 14.2501 50.3364 13.4999 49.6713 12.8431" fill="#125A9E"/>
<path d="M43.954 17.3945C45.1138 16.2881 46.2747 15.2936 47.4301 14.4115L46.5953 12.8125C45.6625 13.9445 44.811 15.4377 43.9484 17.3951" fill="#0D82CA"/>
<path d="M44.7916 10.563C45.4594 11.1217 46.0549 11.8903 46.6003 12.8114L47.1262 12.2215C46.3693 11.5147 45.5512 10.9336 44.6608 10.4962L44.7704 10.5485C44.776 10.5552 44.7832 10.5596 44.7899 10.5624" fill="#0D82CA"/>
<mask id="mask12_3_66" style="mask-type:luminance" maskUnits="userSpaceOnUse" x="16" y="10" width="23" height="33">
<path d="M16.7265 42.7556C26.0277 24.8328 30.4348 13.4883 38.2118 10.4204C30.1934 13.5593 21.1677 25.397 16.7265 42.7556Z" fill="white"/>
</mask>
<g mask="url(#mask12_3_66)">
<mask id="mask13_3_66" style="mask-type:luminance" maskUnits="userSpaceOnUse" x="16" y="10" width="23" height="33">
<path d="M16.7153 10.4426H38.2014V42.7799H16.7153V10.4433V10.4426Z" fill="white"/>
</mask>
<g mask="url(#mask13_3_66)">
<mask id="mask14_3_66" style="mask-type:luminance" maskUnits="userSpaceOnUse" x="16" y="10" width="23" height="33">
<path d="M16.7153 42.7785V10.4433H38.2014V42.7785H16.7153Z" fill="white"/>
</mask>
<g mask="url(#mask14_3_66)">
<path d="M16.7153 10.4426H38.2014V42.7799H16.7153V10.4433V10.4426Z" fill="url(#paint4_linear_3_66)"/>
</g>
</g>
</g>
<path d="M47.1262 12.2215L46.6003 12.8114C46.8925 13.2995 47.1641 13.8327 47.4351 14.4104L48.4614 13.6546C48.0406 13.1348 47.5965 12.6539 47.1262 12.2215Z" fill="#127BCA"/>
<mask id="mask15_3_66" style="mask-type:luminance" maskUnits="userSpaceOnUse" x="0" y="13" width="49" height="56">
<mask id="mask16_3_66" style="mask-type:luminance" maskUnits="userSpaceOnUse" x="-23" y="-7" width="95" height="96">
<path d="M-22.6406 -6.71489H71.7129V88.8714H-22.6406V-6.71489Z" fill="white"/>
</mask>
<g mask="url(#mask16_3_66)">
<mask id="mask17_3_66" style="mask-type:luminance" maskUnits="userSpaceOnUse" x="-24" y="-8" width="97" height="98">
<path d="M-23.3363 -7.41057H72.4086V89.567H-23.3363V-7.41057Z" fill="white"/>
</mask>
<g mask="url(#mask17_3_66)">
<mask id="mask18_3_66" style="mask-type:luminance" maskUnits="userSpaceOnUse" x="0" y="13" width="49" height="56">
<path d="M0.958221 68.7183H48.0543V13.2518H0.958221V68.7183Z" fill="white"/>
</mask>
<g mask="url(#mask18_3_66)">
<mask id="mask19_3_66" style="mask-type:luminance" maskUnits="userSpaceOnUse" x="-23" y="-7" width="95" height="96">
<path d="M-22.6406 -6.71489H71.7129V88.8714H-22.6406V-6.71489Z" fill="white"/>
</mask>
<g mask="url(#mask19_3_66)">
<mask id="mask20_3_66" style="mask-type:luminance" maskUnits="userSpaceOnUse" x="0" y="13" width="49" height="56">
<path d="M0.958221 68.7183H48.0543V13.2518H0.958221V68.7183Z" fill="white"/>
</mask>
<g mask="url(#mask20_3_66)">
<mask id="mask21_3_66" style="mask-type:luminance" maskUnits="userSpaceOnUse" x="0" y="13" width="49" height="56">
<path d="M0.967957 56.1021L23.5121 68.712L48.0696 25.8582L25.5275 13.2441L0.974214 56.1014L0.967957 56.1021Z" fill="white"/>
</mask>
<g mask="url(#mask21_3_66)">
<mask id="mask22_3_66" style="mask-type:luminance" maskUnits="userSpaceOnUse" x="-23" y="-7" width="95" height="96">
<path d="M71.7129 26.5622L36.8636 88.8776L-22.6406 55.6006L12.208 -6.71488L71.7129 26.5622Z" fill="white"/>
</mask>
<g mask="url(#mask22_3_66)">
<mask id="mask23_3_66" style="mask-type:luminance" maskUnits="userSpaceOnUse" x="-23" y="-7" width="95" height="96">
<path d="M71.7129 26.5622L36.8643 88.8776L-22.6406 55.6006L12.208 -6.71488L71.7129 26.5622Z" fill="white"/>
</mask>
<g mask="url(#mask23_3_66)">
<path d="M71.7129 26.5622L36.8636 88.8776L-22.6406 55.6006L12.208 -6.71488L71.7129 26.5622Z" fill="url(#paint5_linear_3_66)"/>
</g>
</g>
</g>
</g>
</g>
</g>
</g>
</g>
</mask>
<g mask="url(#mask15_3_66)">
<mask id="mask24_3_66" style="mask-type:luminance" maskUnits="userSpaceOnUse" x="20" y="27" width="21" height="26">
<path d="M20.2042 27.9549H40.1854V52.9716H20.2042V27.948V27.9549Z" fill="white"/>
</mask>
<g mask="url(#mask24_3_66)">
<mask id="mask25_3_66" style="mask-type:luminance" maskUnits="userSpaceOnUse" x="20" y="27" width="21" height="26">
<path d="M20.2111 52.9716H40.1771V27.948H20.2111V52.9716Z" fill="white"/>
</mask>
<g mask="url(#mask25_3_66)">
<mask id="mask26_3_66" style="mask-type:luminance" maskUnits="userSpaceOnUse" x="20" y="27" width="21" height="26">
<path d="M20.9492 52.9145L20.7809 52.934C20.767 52.9368 20.7586 52.9368 20.7482 52.9389L20.6049 52.9528C20.5979 52.9528 20.5889 52.9549 20.5819 52.9549L20.2389 52.9792H20.2042C29.6181 52.7149 33.9216 48.0023 36.0552 41.1666L40.1806 27.9487C36.2375 33.4981 32.2763 40.1119 28.2935 47.5251C26.3734 51.0974 23.4516 52.5896 20.9492 52.9076" fill="white"/>
</mask>
<g mask="url(#mask26_3_66)">
<mask id="mask27_3_66" style="mask-type:luminance" maskUnits="userSpaceOnUse" x="20" y="27" width="21" height="26">
<path d="M20.2104 27.9564H40.1861V52.9799H20.2104V27.9564Z" fill="white"/>
</mask>
<g mask="url(#mask27_3_66)">
<mask id="mask28_3_66" style="mask-type:luminance" maskUnits="userSpaceOnUse" x="20" y="27" width="21" height="26">
<path d="M20.2097 52.9806V27.9571H40.1854V52.9806H20.2097Z" fill="white"/>
</mask>
<g mask="url(#mask28_3_66)">
<path d="M20.2104 27.9564H40.1861V52.9799H20.2104V27.9564Z" fill="url(#paint6_linear_3_66)"/>
</g>
</g>
</g>
</g>
</g>
</g>
<mask id="mask29_3_66" style="mask-type:luminance" maskUnits="userSpaceOnUse" x="20" y="17" width="24" height="36">
<path d="M20.9492 52.9111V52.9146C23.4523 52.5959 26.3742 51.1058 28.2935 47.5321C32.2763 40.1231 36.2396 33.5051 40.1771 27.9557C41.6116 23.456 42.7929 20.0131 43.9546 17.3939C36.1032 24.8669 28.2198 37.2945 20.9492 52.9111Z" fill="white"/>
</mask>
<g mask="url(#mask29_3_66)">
<mask id="mask30_3_66" style="mask-type:luminance" maskUnits="userSpaceOnUse" x="20" y="17" width="25" height="36">
<path d="M20.9993 17.4454H44.004V52.9667H20.9993V17.4454Z" fill="white"/>
</mask>
<g mask="url(#mask30_3_66)">
<mask id="mask31_3_66" style="mask-type:luminance" maskUnits="userSpaceOnUse" x="20" y="17" width="25" height="36">
<path d="M20.9993 52.9667V17.4454H44.004V52.9667H20.9993Z" fill="white"/>
</mask>
<g mask="url(#mask31_3_66)">
<path d="M20.9993 17.4454H44.004V52.9667H20.9993V17.4454Z" fill="url(#paint7_linear_3_66)"/>
</g>
</g>
</g>
<path d="M16.7268 42.7562C15.0571 45.9647 13.2417 49.3835 11.217 52.9949L14.7661 52.9938C15.2352 49.4064 15.9009 45.9842 16.7268 42.7562Z" fill="#05A1E6"/>
<mask id="mask32_3_66" style="mask-type:luminance" maskUnits="userSpaceOnUse" x="14" y="9" width="33" height="44">
<path d="M41.2241 9.64472C41.1963 9.65029 41.1754 9.65168 41.1545 9.65377C41.1128 9.66211 41.0676 9.66976 41.0237 9.67323L40.9451 9.68158L40.806 9.70593C40.7837 9.70732 40.7622 9.7115 40.7448 9.71289L40.4421 9.76646C40.4296 9.76854 40.4171 9.77202 40.4074 9.77202L40.2682 9.79985L40.1945 9.82072L40.0519 9.84856L39.9851 9.86454L39.4863 9.99394C39.4724 9.99951 39.4494 10.0037 39.4285 10.0113C39.3798 10.0232 39.3311 10.0406 39.2783 10.0573L39.2101 10.076L39.0605 10.1213C39.0424 10.1261 39.0257 10.1352 39.0083 10.1352L38.6626 10.2548L38.4956 10.3146L38.4289 10.3425C38.3788 10.3564 38.3273 10.3773 38.2897 10.3946C38.2737 10.403 38.2535 10.41 38.241 10.419C30.4633 13.4883 26.0569 24.8321 16.7557 42.7541C15.8961 46.124 15.2412 49.5428 14.7946 52.9918H15.2934L19.9287 52.9848H19.9725L20.2682 52.9779L20.6111 52.9535C20.6181 52.9535 20.6271 52.9514 20.632 52.9514C20.6807 52.9444 20.7294 52.941 20.7753 52.9375C20.7878 52.9354 20.7948 52.9354 20.8101 52.9326C20.8609 52.9278 20.9214 52.9215 20.9784 52.9131V52.9097C28.2483 37.2931 36.1317 24.8655 43.9831 17.3925C44.8472 15.4355 45.6973 13.9419 46.6302 12.8114C46.0841 11.889 45.4879 11.1209 44.8214 10.5602C44.8145 10.5567 44.8075 10.5547 44.802 10.5477C44.7658 10.5324 44.7289 10.515 44.6921 10.4955C44.6559 10.4758 44.6193 10.457 44.5821 10.4392C44.5473 10.4253 44.5084 10.4065 44.475 10.387C44.4314 10.3729 44.3894 10.3542 44.3498 10.3314C44.315 10.3202 44.2851 10.3035 44.2524 10.2896C44.1828 10.2629 44.1139 10.2344 44.0458 10.204L43.9581 10.1693C43.9061 10.1518 43.855 10.1316 43.8051 10.1087C43.7786 10.1018 43.7508 10.0907 43.7216 10.0823C43.6478 10.058 43.5783 10.0315 43.5101 10.0085C43.4983 10.0051 43.4941 10.0051 43.4913 10.0016C43.4078 9.97587 43.3278 9.95499 43.2443 9.93203C43.2249 9.92299 43.2096 9.91951 43.1887 9.91395C43.1149 9.89447 43.0496 9.87359 42.9828 9.8555C42.9654 9.85341 42.948 9.84855 42.9341 9.84437C42.7632 9.79948 42.5905 9.76166 42.4165 9.73098C42.4005 9.72959 42.3796 9.72403 42.3622 9.71986L42.1382 9.68506C42.1243 9.6781 42.1104 9.6781 42.0944 9.67532L41.8279 9.64054C41.814 9.63845 41.7987 9.63498 41.7813 9.63498C41.7118 9.62385 41.645 9.61897 41.5782 9.61271C41.4648 9.62105 41.3584 9.63148 41.2512 9.64192" fill="white"/>
</mask>
<g mask="url(#mask32_3_66)">
<mask id="mask33_3_66" style="mask-type:luminance" maskUnits="userSpaceOnUse" x="7" y="4" width="47" height="55">
<path d="M15.6322 58.4326L7.25409 10.9178L45.547 4.16624L53.9251 51.6811L15.6322 58.4333V58.4326Z" fill="white"/>
</mask>
<g mask="url(#mask33_3_66)">
<mask id="mask34_3_66" style="mask-type:luminance" maskUnits="userSpaceOnUse" x="7" y="4" width="47" height="55">
<path d="M15.6322 58.4326L7.25409 10.9178L45.5463 4.16554L53.9244 51.6804L15.6315 58.4326H15.6322Z" fill="white"/>
</mask>
<g mask="url(#mask34_3_66)">
<path d="M15.6322 58.4326L7.25409 10.9178L45.547 4.16624L53.9251 51.6811L15.6322 58.4333V58.4326Z" fill="url(#paint8_linear_3_66)"/>
</g>
</g>
</g>
<mask id="mask35_3_66" style="mask-type:luminance" maskUnits="userSpaceOnUse" x="89" y="9" width="16" height="26">
<path d="M94.1492 20.2775L89.6496 34.6293C94.5611 27.8715 99.3975 19.3731 104.001 9.56193C98.6308 11.2503 95.7646 15.1107 94.1485 20.2768" fill="white"/>
</mask>
<g mask="url(#mask35_3_66)">
<mask id="mask36_3_66" style="mask-type:luminance" maskUnits="userSpaceOnUse" x="89" y="9" width="16" height="26">
<path d="M89.6767 9.55634H104.029V34.623H89.6767V9.55634Z" fill="white"/>
</mask>
<g mask="url(#mask36_3_66)">
<mask id="mask37_3_66" style="mask-type:luminance" maskUnits="userSpaceOnUse" x="89" y="9" width="16" height="26">
<path d="M89.6767 34.623V9.55564H104.029V34.623H89.6767Z" fill="white"/>
</mask>
<g mask="url(#mask37_3_66)">
<path d="M89.6767 9.55634H104.029V34.623H89.6767V9.55634Z" fill="url(#paint9_linear_3_66)"/>
</g>
</g>
</g>
<mask id="mask38_3_66" style="mask-type:luminance" maskUnits="userSpaceOnUse" x="76" y="4" width="63" height="23">
<mask id="mask39_3_66" style="mask-type:luminance" maskUnits="userSpaceOnUse" x="76" y="4" width="63" height="23">
<path d="M76.7357 4.81321H138.995V26.517H76.7357V4.81321Z" fill="white"/>
</mask>
<g mask="url(#mask39_3_66)">
<mask id="mask40_3_66" style="mask-type:luminance" maskUnits="userSpaceOnUse" x="76" y="4" width="64" height="24">
<path d="M76.0567 4.11755H139.69V27.1967H76.0567V4.11685V4.11755Z" fill="white"/>
</mask>
<g mask="url(#mask40_3_66)">
<mask id="mask41_3_66" style="mask-type:luminance" maskUnits="userSpaceOnUse" x="76" y="4" width="63" height="23">
<path d="M76.7357 26.517H138.985V4.82852H76.7357V26.517Z" fill="white"/>
</mask>
<g mask="url(#mask41_3_66)">
<mask id="mask42_3_66" style="mask-type:luminance" maskUnits="userSpaceOnUse" x="76" y="4" width="63" height="23">
<path d="M76.7357 4.81321H138.995V26.517H76.7357V4.81321Z" fill="white"/>
</mask>
<g mask="url(#mask42_3_66)">
<mask id="mask43_3_66" style="mask-type:luminance" maskUnits="userSpaceOnUse" x="76" y="4" width="63" height="23">
<path d="M76.7357 26.517H138.985V4.82852H76.7357V26.517Z" fill="white"/>
</mask>
<g mask="url(#mask43_3_66)">
<mask id="mask44_3_66" style="mask-type:luminance" maskUnits="userSpaceOnUse" x="76" y="4" width="63" height="23">
<path d="M76.7357 4.82852H138.979V26.517H76.7357V4.82852Z" fill="white"/>
</mask>
<g mask="url(#mask44_3_66)">
<mask id="mask45_3_66" style="mask-type:luminance" maskUnits="userSpaceOnUse" x="76" y="4" width="63" height="23">
<path d="M138.995 26.501H76.7524V4.81253H138.995V26.501Z" fill="white"/>
</mask>
<g mask="url(#mask45_3_66)">
<mask id="mask46_3_66" style="mask-type:luminance" maskUnits="userSpaceOnUse" x="76" y="4" width="63" height="23">
<path d="M138.995 4.81323V26.501H76.7524V4.81253H138.995V4.81323Z" fill="white"/>
</mask>
<g mask="url(#mask46_3_66)">
<path d="M138.995 26.501H76.7524V4.81253H138.995V26.501Z" fill="url(#paint10_linear_3_66)"/>
</g>
</g>
</g>
</g>
</g>
</g>
</g>
</g>
</mask>
<g mask="url(#mask38_3_66)">
<mask id="mask47_3_66" style="mask-type:luminance" maskUnits="userSpaceOnUse" x="81" y="4" width="42" height="52">
<path d="M81.8211 4.05424H122.657V55.2757H81.8211V4.05424Z" fill="white"/>
</mask>
<g mask="url(#mask47_3_66)">
<mask id="mask48_3_66" style="mask-type:luminance" maskUnits="userSpaceOnUse" x="89" y="8" width="27" height="43">
<path d="M89.0534 50.8233H115.459V8.63179H89.0534V50.8233Z" fill="white"/>
</mask>
<g mask="url(#mask48_3_66)">
<mask id="mask49_3_66" style="mask-type:luminance" maskUnits="userSpaceOnUse" x="89" y="8" width="27" height="43">
<path d="M89.8054 50.465L89.0569 50.8233C98.6085 46.5637 110.002 29.6663 115.458 8.63179H114.345C101.813 31.0187 97.7821 46.0036 89.7992 50.465" fill="white"/>
</mask>
<g mask="url(#mask49_3_66)">
<mask id="mask50_3_66" style="mask-type:luminance" maskUnits="userSpaceOnUse" x="81" y="4" width="42" height="52">
<path d="M122.651 9.84087L114.64 55.2687L81.8211 49.482L89.8326 4.05422L122.651 9.84087Z" fill="white"/>
</mask>
<g mask="url(#mask50_3_66)">
<mask id="mask51_3_66" style="mask-type:luminance" maskUnits="userSpaceOnUse" x="81" y="4" width="42" height="52">
<path d="M122.651 9.84087L114.64 55.2687L81.8211 49.482L89.8326 4.05422L122.651 9.84087Z" fill="white"/>
</mask>
<g mask="url(#mask51_3_66)">
<path d="M122.651 9.84087L114.64 55.2687L81.8211 49.482L89.8326 4.05422L122.651 9.84087Z" fill="url(#paint11_linear_3_66)"/>
</g>
</g>
</g>
</g>
</g>
</g>
<path d="M83.5631 48.5854C85.6413 46.0476 87.3354 41.7355 89.6439 34.6301C86.9792 38.2922 84.3011 41.4378 81.6108 44.0057C81.6074 44.0134 81.6074 44.0201 81.6019 44.029C82.1879 45.7821 82.8307 47.3343 83.5631 48.5854Z" fill="#079AE1"/>
<path d="M83.5631 48.5854C82.8563 49.4497 82.1077 50.1048 81.2729 50.5923L80.7192 50.8901C81.623 51.379 82.6119 51.6907 83.6327 51.8084H83.6399L84.1158 51.8507H84.1458L84.3684 51.8618H84.3996L84.635 51.8651L84.8882 51.8618L84.9662 51.8562L85.1442 51.8507L85.2322 51.8396L85.3991 51.8284C85.4081 51.8284 85.4131 51.8284 85.4186 51.8229C85.4409 51.8229 85.4615 51.8195 85.4832 51.8195L85.6691 51.8C85.6746 51.8 85.6774 51.7978 85.6858 51.7978C85.7025 51.7939 85.7231 51.7911 85.7414 51.7889L85.9418 51.76C85.9618 51.76 85.9791 51.7544 86.0008 51.7516L86.2251 51.7149H86.2373C86.2429 51.711 86.2523 51.711 86.2573 51.7093L86.7042 51.6147C85.4721 51.1695 84.4408 50.0981 83.5514 48.5838" fill="#1969BC"/>
<path d="M65.9597 51.8646C66.867 51.863 67.7723 51.776 68.6633 51.6047C69.5004 51.45 70.3419 51.2179 71.1845 50.9235C71.887 51.2682 72.6306 51.5222 73.3973 51.6793C74.0006 51.8017 74.6217 51.8652 75.2895 51.8652H65.9597V51.8646Z" fill="#1E5CB3"/>
<path d="M75.284 51.8646C77.4918 51.8646 79.2393 51.6047 80.7247 50.8906C81.6282 51.3803 82.6173 51.6921 83.6382 51.8089H83.6455L84.1213 51.8512H84.1514L84.374 51.8624H84.4052L84.6406 51.8657H75.2773L75.284 51.8646Z" fill="#1E5CB3"/>
<path d="M84.6473 51.8646L84.9005 51.8613L84.9784 51.8557L85.1565 51.8501L85.2439 51.839L85.4108 51.8279C85.4197 51.8279 85.4231 51.8279 85.4303 51.8245C85.4526 51.8245 85.4732 51.819 85.4971 51.819L85.6808 51.7995C85.6863 51.7995 85.6891 51.7973 85.6975 51.7973C85.7142 51.7934 85.7353 51.7906 85.7531 51.7884L85.9535 51.7589C85.9734 51.7584 85.9932 51.7556 86.0125 51.7505L86.2362 51.7138H86.2473C86.2557 51.7099 86.264 51.7099 86.2696 51.7082L86.7171 51.6136C87.1545 51.7745 87.6173 51.8555 88.0834 51.8529L84.6411 51.8618L84.6473 51.8646Z" fill="#1D60B5"/>
<path d="M81.6074 44.0296C81.6074 44.0257 81.6041 44.0207 81.6041 44.0173L78.6544 46.598L77.1156 47.7534L78.4479 49.2004C79.1492 49.8794 79.8949 50.4526 80.7186 50.8962L81.2724 50.5985C82.1072 50.1109 82.8563 49.4553 83.5626 48.5916C82.8313 47.3394 82.1879 45.7894 81.6013 44.0357" fill="#175FAB"/>
<mask id="mask52_3_66" style="mask-type:luminance" maskUnits="userSpaceOnUse" x="83" y="8" width="32" height="44">
<path d="M110.85 8.6318H106.205C106.048 8.6318 105.895 8.63528 105.742 8.63736L105.305 8.64225H105.295L104.413 8.68399L103.996 9.56193C99.3905 19.3724 94.5541 27.8722 89.644 34.6293C87.3344 41.735 85.6411 46.0475 83.5638 48.5846C84.4529 50.0991 85.4839 51.1642 86.7152 51.6178C86.7514 51.606 86.7792 51.6011 86.8105 51.5948C86.8175 51.59 86.8244 51.59 86.8314 51.59C86.8523 51.5865 86.8752 51.5775 86.8975 51.5761C86.9483 51.5642 87.0018 51.5531 87.0505 51.5357L87.1438 51.5114C87.189 51.4988 87.2384 51.487 87.2815 51.4766C87.3093 51.4641 87.3372 51.4578 87.3678 51.4508C87.4394 51.4279 87.5034 51.4126 87.5723 51.3903C87.6029 51.3764 87.637 51.3653 87.6739 51.3569C87.7121 51.343 87.7525 51.3319 87.7873 51.3152C87.829 51.3027 87.8694 51.2943 87.9055 51.2783C87.9375 51.27 87.9723 51.2554 88.0029 51.2414C88.0829 51.2136 88.1615 51.1893 88.2443 51.1579C88.2652 51.151 88.2861 51.1385 88.309 51.1343C88.3577 51.1134 88.4085 51.0995 88.4482 51.0759C88.4676 51.0689 88.4885 51.0599 88.5177 51.0529C88.6911 50.9828 88.8632 50.9096 89.0339 50.8331C89.0353 50.8331 89.0444 50.8296 89.0499 50.8261C89.2983 50.7162 89.548 50.5952 89.7964 50.4679C97.7814 46.0072 101.812 31.0222 114.344 8.63458H110.843L110.85 8.6318Z" fill="white"/>
</mask>
<g mask="url(#mask52_3_66)">
<mask id="mask53_3_66" style="mask-type:luminance" maskUnits="userSpaceOnUse" x="83" y="8" width="32" height="44">
<path d="M114.331 51.622H83.5471V8.62901H114.331V51.622Z" fill="white"/>
</mask>
<g mask="url(#mask53_3_66)">
<mask id="mask54_3_66" style="mask-type:luminance" maskUnits="userSpaceOnUse" x="83" y="8" width="32" height="44">
<path d="M114.331 8.63598V51.6289H83.5471V8.63598H114.331Z" fill="white"/>
</mask>
<g mask="url(#mask54_3_66)">
<path d="M114.331 51.622H83.5471V8.62901H114.331V51.622Z" fill="url(#paint12_linear_3_66)"/>
</g>
</g>
</g>
<mask id="mask55_3_66" style="mask-type:luminance" maskUnits="userSpaceOnUse" x="32" y="7" width="27" height="7">
<mask id="mask56_3_66" style="mask-type:luminance" maskUnits="userSpaceOnUse" x="32" y="7" width="27" height="7">
<path d="M32.5045 7.8304H58.9305V13.9245H32.5045V7.8304Z" fill="white"/>
</mask>
<g mask="url(#mask56_3_66)">
<mask id="mask57_3_66" style="mask-type:luminance" maskUnits="userSpaceOnUse" x="31" y="7" width="29" height="8">
<path d="M31.8088 7.14028H59.6192V14.6202H31.8088V7.14028Z" fill="white"/>
</mask>
<g mask="url(#mask57_3_66)">
<mask id="mask58_3_66" style="mask-type:luminance" maskUnits="userSpaceOnUse" x="32" y="7" width="27" height="7">
<path d="M32.5059 13.9196H58.9277V7.83038H32.5059V13.9196Z" fill="white"/>
</mask>
<g mask="url(#mask58_3_66)">
<mask id="mask59_3_66" style="mask-type:luminance" maskUnits="userSpaceOnUse" x="32" y="7" width="27" height="7">
<path d="M32.5045 7.8304H58.9305V13.9245H32.5045V7.8304Z" fill="white"/>
</mask>
<g mask="url(#mask59_3_66)">
<mask id="mask60_3_66" style="mask-type:luminance" maskUnits="userSpaceOnUse" x="32" y="7" width="27" height="7">
<path d="M32.5059 13.9196H58.9277V7.83038H32.5059V13.9196Z" fill="white"/>
</mask>
<g mask="url(#mask60_3_66)">
<mask id="mask61_3_66" style="mask-type:luminance" maskUnits="userSpaceOnUse" x="32" y="7" width="27" height="7">
<path d="M58.9305 13.9196H32.5114V7.83038H58.9305V13.9196Z" fill="white"/>
</mask>
<g mask="url(#mask61_3_66)">
<mask id="mask62_3_66" style="mask-type:luminance" maskUnits="userSpaceOnUse" x="32" y="7" width="27" height="7">
<path d="M32.5045 7.83593H58.9236V13.9252H32.5045V7.83593Z" fill="white"/>
</mask>
<g mask="url(#mask62_3_66)">
<mask id="mask63_3_66" style="mask-type:luminance" maskUnits="userSpaceOnUse" x="32" y="7" width="27" height="7">
<path d="M32.5045 13.9245V7.83596H58.9236V13.9245H32.5045Z" fill="white"/>
</mask>
<g mask="url(#mask63_3_66)">
<path d="M32.5045 7.83593H58.9236V13.9252H32.5045V7.83593Z" fill="url(#paint13_linear_3_66)"/>
</g>
</g>
</g>
</g>
</g>
</g>
</g>
</g>
</mask>
<g mask="url(#mask55_3_66)">
<mask id="mask64_3_66" style="mask-type:luminance" maskUnits="userSpaceOnUse" x="39" y="4" width="22" height="14">
<path d="M39.9079 4.55235H60.8339V17.1914H39.9079V4.55235Z" fill="white"/>
</mask>
<g mask="url(#mask64_3_66)">
<mask id="mask65_3_66" style="mask-type:luminance" maskUnits="userSpaceOnUse" x="40" y="9" width="20" height="5">
<path d="M40.5792 13.6546H59.6039V9.56681H40.5792V13.6546Z" fill="white"/>
</mask>
<g mask="url(#mask65_3_66)">
<path d="M41.5441 9.61548L41.6025 9.62244C41.6511 9.62449 41.6994 9.62984 41.7472 9.63845C41.7646 9.63845 41.7799 9.64192 41.7939 9.64401L42.0603 9.67879C42.0756 9.68226 42.0902 9.68226 42.1041 9.68713L42.3281 9.72401C42.3462 9.7297 42.3649 9.73343 42.3838 9.73513L42.9 9.84854L42.9473 9.85967L43.156 9.9181C43.1769 9.92366 43.1929 9.92714 43.2117 9.93618L43.4586 10.0058C43.4614 10.0099 43.4656 10.0099 43.4753 10.0127L43.684 10.0865L43.7675 10.1143L43.9205 10.1839C43.9484 10.1908 43.9783 10.2019 44.0082 10.2138L44.2127 10.2993L44.3122 10.3425L44.4374 10.3953C44.4722 10.4148 44.5119 10.4315 44.546 10.4475L44.6559 10.5032C45.545 10.94 46.3638 11.5203 47.1207 12.2285C47.3921 11.9428 47.6839 11.6773 47.9937 11.434C46.338 10.2604 44.4597 9.59045 42.2948 9.59045C42.0423 9.58972 41.79 9.60039 41.5385 9.62244" fill="#7DCBEC"/>
<path d="M47.1269 12.2215C47.5909 12.6542 48.0355 13.1349 48.4487 13.6546L49.6634 12.8448C49.1333 12.3147 48.5732 11.8389 47.9923 11.427C47.6904 11.6636 47.3996 11.9279 47.1193 12.2215" fill="#5EC5ED"/>
<mask id="mask66_3_66" style="mask-type:luminance" maskUnits="userSpaceOnUse" x="40" y="9" width="15" height="3">
<path d="M41.5441 9.61548L42.3003 9.58349C44.4653 9.58349 46.3353 10.2534 47.9993 11.427C49.7489 10.0496 51.8624 9.5668 54.7982 9.5668H40.5806C40.9076 9.5668 41.229 9.58487 41.5441 9.61548Z" fill="white"/>
</mask>
<g mask="url(#mask66_3_66)">
<mask id="mask67_3_66" style="mask-type:luminance" maskUnits="userSpaceOnUse" x="39" y="4" width="17" height="13">
<path d="M42.6537 4.55234L55.4438 9.85689L52.6979 16.477L39.9079 11.1717L42.6537 4.55234Z" fill="white"/>
</mask>
<g mask="url(#mask67_3_66)">
<mask id="mask68_3_66" style="mask-type:luminance" maskUnits="userSpaceOnUse" x="39" y="4" width="17" height="13">
<path d="M42.6537 4.55234L55.4438 9.85759L52.6979 16.4777L39.9079 11.1724L42.6537 4.55234Z" fill="white"/>
</mask>
<g mask="url(#mask68_3_66)">
<path d="M42.6537 4.55234L55.4438 9.85689L52.6979 16.477L39.9079 11.1717L42.6537 4.55234Z" fill="url(#paint14_linear_3_66)"/>
</g>
</g>
</g>
<mask id="mask69_3_66" style="mask-type:luminance" maskUnits="userSpaceOnUse" x="48" y="9" width="12" height="4">
<path d="M54.7989 9.5668C51.8631 9.5668 49.7496 10.0489 48 11.427C48.5809 11.8389 49.1409 12.3147 49.671 12.8448C52.1038 11.2962 54.515 10.2722 56.8922 9.82558C57.8 9.65444 58.7051 9.56818 59.597 9.56818H54.7989V9.5668Z" fill="white"/>
</mask>
<g mask="url(#mask69_3_66)">
<mask id="mask70_3_66" style="mask-type:luminance" maskUnits="userSpaceOnUse" x="46" y="5" width="15" height="13">
<path d="M46.7721 10.1039L57.6247 5.18542L60.8346 12.2653L49.982 17.1838L46.7721 10.1039Z" fill="white"/>
</mask>
<g mask="url(#mask70_3_66)">
<mask id="mask71_3_66" style="mask-type:luminance" maskUnits="userSpaceOnUse" x="46" y="5" width="15" height="13">
<path d="M46.7721 10.1039L57.6247 5.18402L60.8339 12.2639L49.9813 17.1838L46.7721 10.1039Z" fill="white"/>
</mask>
<g mask="url(#mask71_3_66)">
<path d="M46.7721 10.1039L57.6247 5.18542L60.8346 12.2653L49.982 17.1838L46.7721 10.1039Z" fill="url(#paint15_linear_3_66)"/>
</g>
</g>
</g>
</g>
</g>
</g>
<mask id="mask72_3_66" style="mask-type:luminance" maskUnits="userSpaceOnUse" x="62" y="11" width="63" height="36">
<mask id="mask73_3_66" style="mask-type:luminance" maskUnits="userSpaceOnUse" x="62" y="11" width="63" height="36">
<path d="M62.4047 11.9384H124.668V46.1191H62.4047V11.9384Z" fill="white"/>
</mask>
<g mask="url(#mask73_3_66)">
<mask id="mask74_3_66" style="mask-type:luminance" maskUnits="userSpaceOnUse" x="61" y="11" width="65" height="36">
<path d="M61.7313 11.2684H125.365V46.8148H61.7313V11.2684Z" fill="white"/>
</mask>
<g mask="url(#mask74_3_66)">
<mask id="mask75_3_66" style="mask-type:luminance" maskUnits="userSpaceOnUse" x="62" y="11" width="63" height="36">
<path d="M62.4047 46.0934H124.655V11.9384H62.4047V46.0934Z" fill="white"/>
</mask>
<g mask="url(#mask75_3_66)">
<mask id="mask76_3_66" style="mask-type:luminance" maskUnits="userSpaceOnUse" x="62" y="11" width="63" height="36">
<path d="M62.4047 11.9384H124.668V46.1191H62.4047V11.9384Z" fill="white"/>
</mask>
<g mask="url(#mask76_3_66)">
<mask id="mask77_3_66" style="mask-type:luminance" maskUnits="userSpaceOnUse" x="62" y="11" width="63" height="36">
<path d="M62.4047 46.0934H124.655V11.9384H62.4047V46.0934Z" fill="white"/>
</mask>
<g mask="url(#mask77_3_66)">
<mask id="mask78_3_66" style="mask-type:luminance" maskUnits="userSpaceOnUse" x="62" y="11" width="63" height="36">
<path d="M124.652 46.0934H62.4096V11.9384H124.652V46.0934Z" fill="white"/>
</mask>
<g mask="url(#mask78_3_66)">
<mask id="mask79_3_66" style="mask-type:luminance" maskUnits="userSpaceOnUse" x="62" y="11" width="63" height="36">
<path d="M62.427 11.9641H124.669V46.1191H62.427V11.9648V11.9641Z" fill="white"/>
</mask>
<g mask="url(#mask79_3_66)">
<mask id="mask80_3_66" style="mask-type:luminance" maskUnits="userSpaceOnUse" x="62" y="11" width="63" height="36">
<path d="M62.4284 46.1191V11.9648H124.671V46.1191H62.4284Z" fill="white"/>
</mask>
<g mask="url(#mask80_3_66)">
<path d="M62.427 11.9641H124.669V46.1191H62.427V11.9648V11.9641Z" fill="url(#paint16_linear_3_66)"/>
</g>
</g>
</g>
</g>
</g>
</g>
</g>
</g>
</mask>
<g mask="url(#mask72_3_66)">
<mask id="mask81_3_66" style="mask-type:luminance" maskUnits="userSpaceOnUse" x="81" y="8" width="24" height="37">
<path d="M81.6187 8.67423H104.512V44.0057H81.6187V8.67423Z" fill="white"/>
</mask>
<g mask="url(#mask81_3_66)">
<mask id="mask82_3_66" style="mask-type:luminance" maskUnits="userSpaceOnUse" x="81" y="8" width="24" height="37">
<path d="M81.6201 44.0057H104.406V8.68467H81.6201V44.0057Z" fill="white"/>
</mask>
<g mask="url(#mask82_3_66)">
<mask id="mask83_3_66" style="mask-type:luminance" maskUnits="userSpaceOnUse" x="81" y="8" width="24" height="37">
<path d="M89.6433 34.6335L94.1465 20.2775C95.7604 15.11 98.6218 11.2496 103.996 9.56262L104.408 8.68467C95.6429 9.20852 91.5571 13.6657 89.4965 20.2622C85.8943 31.7812 83.7127 39.2486 81.6124 44.0057C84.2957 41.44 86.9775 38.2914 89.6433 34.6335Z" fill="white"/>
</mask>
<g mask="url(#mask83_3_66)">
<mask id="mask84_3_66" style="mask-type:luminance" maskUnits="userSpaceOnUse" x="81" y="8" width="24" height="36">
<path d="M104.512 43.9952H81.7147V8.67424H104.512V43.9952Z" fill="white"/>
</mask>
<g mask="url(#mask84_3_66)">
<mask id="mask85_3_66" style="mask-type:luminance" maskUnits="userSpaceOnUse" x="81" y="8" width="24" height="36">
<path d="M104.512 8.67493V43.9945H81.7147V8.67493H104.512Z" fill="white"/>
</mask>
<g mask="url(#mask85_3_66)">
<path d="M104.512 43.9952H81.7147V8.67424H104.512V43.9952Z" fill="url(#paint17_linear_3_66)"/>
</g>
</g>
</g>
</g>
</g>
</g>
<path d="M102.785 51.1879L102.649 51.5312H102.636C102.616 51.455 102.58 51.342 102.51 51.1951L101.654 49.2472H101.222V52.0394H101.534V50.1694L101.52 49.6223H101.527C101.557 49.7559 101.585 49.8521 101.612 49.9117L102.566 52.0405H102.725L103.676 49.8955C103.702 49.8399 103.729 49.7508 103.763 49.6173H103.769L103.743 50.1593V52.0349H104.069V49.2427H103.657L102.783 51.1839L102.785 51.1879ZM98.8463 49.5438H99.6511V52.0394H99.985V49.5438H100.786V49.2466H98.8497V49.5438H98.8463ZM119.135 48.0189C118.843 48.0137 118.553 48.0699 118.284 48.1838C118.015 48.2977 117.773 48.4668 117.573 48.6801C117.146 49.1225 116.933 49.654 116.933 50.2829C116.933 50.8951 117.145 51.4266 117.573 51.8746C118.002 52.3226 118.522 52.5464 119.135 52.5464C119.434 52.5513 119.731 52.4941 120.007 52.3785C120.283 52.2629 120.532 52.0913 120.738 51.8746C121.18 51.4272 121.406 50.8968 121.406 50.2829C121.406 49.669 121.186 49.1364 120.738 48.689C120.532 48.472 120.283 48.3004 120.007 48.185C119.731 48.0697 119.434 48.0131 119.135 48.0189ZM174.184 26.4027H182.474V52.0839H185.84V26.4027H194.114V23.3585H174.19V26.4027H174.184ZM159.158 39.0029H169.533V35.9586H159.158V26.4027H170.356V23.3585H155.802V52.0839H171.027V49.0396H159.172V39.0023L159.158 39.0029ZM146.087 43.591L146.289 47.8135H146.211C146.011 47.4239 145.621 46.7884 145.042 45.8935L130.661 23.3535H126.306V52.0789H129.673V31.336L129.512 27.3917H129.635C129.888 28.0457 130.187 28.6451 130.534 29.1949L145.358 52.0911H149.443V23.3657H146.104V43.5977L146.087 43.591ZM185.866 17.6144C185.866 19.1527 186.547 19.9224 187.914 19.9224C188.401 19.9224 188.793 19.8389 189.09 19.6691V18.6006C188.861 18.7692 188.592 18.8538 188.281 18.8538C187.863 18.8538 187.567 18.7425 187.386 18.5188C187.206 18.2962 187.12 17.9255 187.12 17.4057V12.9923H189.09V11.931H187.12V9.61575L185.865 10.022V11.931H184.522V12.9923H185.865V17.6205L185.866 17.6144ZM180.746 19.7487H181.998V12.9867H183.832V11.9254H181.998V10.7199C181.998 9.61464 182.433 9.06143 183.31 9.06143C183.601 9.05701 183.887 9.12795 184.142 9.26735V8.13646C183.923 8.04741 183.621 8.00067 183.235 8.00067C182.567 8.00067 182.011 8.21048 181.545 8.63512C181.008 9.1221 180.746 9.80386 180.746 10.6576V11.9265H179.41V12.9879H180.746V19.7498V19.7487ZM172.207 15.8808C172.207 14.8823 172.452 14.1132 172.944 13.5678C173.414 13.0585 174.039 12.8036 174.817 12.8036C175.605 12.8036 176.221 13.0552 176.658 13.5594C177.111 14.0848 177.337 14.8484 177.337 15.8513C177.337 16.8085 177.126 17.5454 176.703 18.0674C176.271 18.6017 175.643 18.8688 174.818 18.8688C174.023 18.8688 173.39 18.605 172.912 18.0774C172.442 17.5521 172.208 16.8174 172.208 15.8813M177.567 18.8065C178.268 18.0552 178.625 17.0534 178.625 15.8012C178.625 14.5339 178.293 13.536 177.641 12.8125C176.984 12.0924 176.076 11.7295 174.914 11.7295C173.726 11.7295 172.778 12.0773 172.072 12.7674C171.31 13.5132 170.926 14.5629 170.926 15.9231C170.926 17.1163 171.263 18.0758 171.935 18.8021C172.621 19.5556 173.549 19.9318 174.732 19.9318C175.923 19.9318 176.87 19.5545 177.572 18.8021M168.971 19.2451C169.202 19.0498 169.386 18.8054 169.511 18.5297C169.635 18.2541 169.697 17.9541 169.69 17.6517C169.69 17.0695 169.498 16.5909 169.115 16.2158C168.822 15.918 168.34 15.6281 167.671 15.3498C167.077 15.0966 166.682 14.8784 166.502 14.6987C166.294 14.5066 166.189 14.2367 166.189 13.8917C166.186 13.74 166.218 13.5897 166.283 13.4528C166.349 13.3159 166.445 13.1961 166.565 13.1031C166.813 12.901 167.146 12.7997 167.567 12.7997C168.237 12.7997 168.827 12.9845 169.348 13.3574V12.0957C168.854 11.8508 168.298 11.7295 167.675 11.7295C166.864 11.7295 166.203 11.9438 165.688 12.3773C165.173 12.8109 164.917 13.3485 164.917 13.9913C164.917 14.5718 165.084 15.0487 165.414 15.4049C165.689 15.711 166.156 16.0043 166.806 16.292C167.441 16.5714 167.87 16.8096 168.089 17.0156C168.308 17.2215 168.419 17.4608 168.419 17.7713C168.419 18.4993 167.923 18.8649 166.93 18.8649C166.187 18.8649 165.511 18.6145 164.896 18.1158V19.4627C165.453 19.7777 166.096 19.9335 166.844 19.9335C167.747 19.9335 168.466 19.7109 168.99 19.2462M157.824 13.5694C158.292 13.0602 158.915 12.8053 159.694 12.8053C160.485 12.8053 161.097 13.0569 161.531 13.5611C161.976 14.0865 162.21 14.85 162.21 15.8529C162.21 16.8102 161.998 17.547 161.575 18.0691C161.144 18.6034 160.518 18.8705 159.69 18.8705C158.895 18.8705 158.26 18.6067 157.789 18.0791C157.315 17.5537 157.08 16.8191 157.08 15.883C157.08 14.8845 157.327 14.1154 157.82 13.57M159.597 19.9391C160.788 19.9391 161.736 19.5617 162.436 18.8093C163.136 18.0568 163.493 17.0562 163.493 15.804C163.493 14.5367 163.159 13.5388 162.514 12.8153C161.857 12.0951 160.946 11.7323 159.779 11.7323C158.593 11.7323 157.647 12.0801 156.941 12.7702C156.175 13.516 155.794 14.5656 155.794 15.9258C155.794 17.1191 156.131 18.0785 156.796 18.8048C157.482 19.5584 158.41 19.9346 159.591 19.9346M153.265 12.2076C152.884 12.5192 152.601 12.9572 152.416 13.5299H152.385V11.9159H151.134V19.7409H152.385V15.7505C152.385 14.8434 152.58 14.1338 152.975 13.619C153.322 13.1615 153.754 12.9333 154.257 12.9333C154.676 12.9333 154.993 13.0151 155.215 13.1837V11.8848C155.045 11.8146 154.797 11.7735 154.464 11.7735C154.021 11.7735 153.621 11.9159 153.266 12.2009M147.096 19.9218C147.923 19.9218 148.639 19.7393 149.239 19.3653V18.1743C148.637 18.6229 147.999 18.8421 147.313 18.8421C146.503 18.8421 145.866 18.5778 145.378 18.0479C144.891 17.5181 144.655 16.7968 144.655 15.8858C144.655 14.9385 144.921 14.1789 145.443 13.6112C145.945 13.0557 146.593 12.7775 147.391 12.7775C148.059 12.7775 148.672 12.9801 149.255 13.3897V12.1096C148.729 11.8469 148.125 11.7122 147.445 11.7122C146.203 11.7122 145.219 12.1018 144.479 12.896C143.741 13.6852 143.374 14.7215 143.374 16.0032C143.374 17.1452 143.711 18.0791 144.375 18.7998C145.066 19.5434 145.967 19.9151 147.09 19.9151M140.176 19.727H141.425V11.902H140.176V19.727ZM140.816 9.91741C141.045 9.91741 141.241 9.83781 141.4 9.6792C141.559 9.52059 141.641 9.32858 141.641 9.09873C141.643 8.99129 141.622 8.88465 141.581 8.78552C141.539 8.68639 141.478 8.59691 141.4 8.5227C141.324 8.44659 141.232 8.38676 141.132 8.34678C141.032 8.3068 140.924 8.28751 140.816 8.29007C140.594 8.29007 140.399 8.36631 140.239 8.5227C140.161 8.59694 140.1 8.68649 140.059 8.78565C140.018 8.88482 139.998 8.99144 140 9.09873C140 9.33971 140.081 9.53449 140.239 9.68754C140.397 9.84059 140.593 9.91741 140.816 9.91741M127.535 12.3846L127.475 10.2474H127.503C127.615 10.7617 127.726 11.1379 127.829 11.3716L131.574 19.7287H132.201L135.937 11.3104C136.034 11.0906 136.145 10.7372 136.264 10.253H136.294L136.188 12.3762V19.7337H137.468V8.77815H135.854L132.421 16.3861C132.288 16.6811 132.115 17.1296 131.896 17.729H131.843C131.764 17.4307 131.599 16.9933 131.345 16.4178L127.984 8.7776H126.288V19.7332H127.527V12.3901L127.535 12.3846ZM190.751 11.0344C191.101 10.6815 191.541 10.5057 192.07 10.5057C192.311 10.5007 192.551 10.5446 192.775 10.6347C192.999 10.7248 193.202 10.8593 193.373 11.0299C193.727 11.3806 193.906 11.8202 193.906 12.3434C193.906 12.8665 193.727 13.3106 193.369 13.6596C193.012 14.0158 192.577 14.1917 192.069 14.1917C191.557 14.1917 191.121 14.018 190.767 13.6663C190.408 13.3145 190.226 12.8704 190.226 12.3434C190.226 11.8258 190.4 11.3883 190.749 11.0338M192.058 14.4026C192.651 14.4026 193.146 14.2022 193.55 13.806C193.953 13.4097 194.162 12.9183 194.162 12.3311C194.162 11.7345 193.96 11.2403 193.552 10.8507C193.156 10.47 192.666 10.2775 192.081 10.2775C191.485 10.2775 190.987 10.4778 190.586 10.8785C190.391 11.07 190.237 11.2993 190.134 11.5525C190.031 11.8056 189.98 12.0772 189.986 12.3506C189.986 12.9444 190.181 13.4342 190.576 13.8238C190.969 14.2095 191.466 14.4042 192.063 14.4042M191.627 11.3099H191.957C192.179 11.3099 192.348 11.3488 192.444 11.4212C192.53 11.4935 192.572 11.6004 192.572 11.7529C192.572 12.0562 192.391 12.2076 192.024 12.2076H191.627V11.3043V11.3099ZM191.627 12.5298H191.87C192.042 12.5298 192.204 12.6879 192.343 13.0084L192.633 13.6429H193.078L192.73 12.9372C192.585 12.6456 192.438 12.4825 192.285 12.4474V12.4363C192.496 12.3918 192.663 12.305 192.786 12.1758C192.908 12.0467 192.964 11.8948 192.964 11.7117C192.967 11.6174 192.949 11.5235 192.911 11.4369C192.874 11.3503 192.818 11.2731 192.747 11.2108C192.575 11.0605 192.327 10.9882 191.994 10.9882H191.248V13.6401H191.621V12.527L191.627 12.5298Z" fill="#231F20"/>
</g>
<defs>
<linearGradient id="paint0_linear_3_66" x1="3667" y1="-14700.9" x2="3667" y2="-11979.8" gradientUnits="userSpaceOnUse">
<stop stop-color="#0994DC"/>
<stop offset="0.11" stop-color="#0994DC"/>
<stop offset="0.35" stop-color="#66CEF5"/>
<stop offset="0.45" stop-color="#66CEF5"/>
<stop offset="0.846" stop-color="#127BCA"/>
<stop offset="1" stop-color="#127BCA"/>
</linearGradient>
<linearGradient id="paint1_linear_3_66" x1="3912.29" y1="-15145.5" x2="3912.29" y2="-12283.9" gradientUnits="userSpaceOnUse">
<stop stop-color="#0E76BC"/>
<stop offset="0.176" stop-color="#0E76BC"/>
<stop offset="0.36" stop-color="#36AEE8"/>
<stop offset="0.52" stop-color="#36AEE8"/>
<stop offset="0.846" stop-color="#00ADEF"/>
<stop offset="1" stop-color="#00ADEF"/>
</linearGradient>
<linearGradient id="paint2_linear_3_66" x1="3919.55" y1="-16031.8" x2="3919.55" y2="-12947.1" gradientUnits="userSpaceOnUse">
<stop stop-color="#166AB8"/>
<stop offset="0.099" stop-color="#166AB8"/>
<stop offset="0.4" stop-color="#36AEE8"/>
<stop offset="0.516" stop-color="#36AEE8"/>
<stop offset="0.846" stop-color="#0798DD"/>
<stop offset="1" stop-color="#0798DD"/>
</linearGradient>
<linearGradient id="paint3_linear_3_66" x1="4890.25" y1="-17032.1" x2="4890.25" y2="-13544.2" gradientUnits="userSpaceOnUse">
<stop stop-color="#124379"/>
<stop offset="0.11" stop-color="#124379"/>
<stop offset="0.39" stop-color="#1487CB"/>
<stop offset="0.52" stop-color="#1487CB"/>
<stop offset="0.78" stop-color="#165197"/>
<stop offset="1" stop-color="#165197"/>
</linearGradient>
<linearGradient id="paint4_linear_3_66" x1="2945.54" y1="-11425.6" x2="2945.54" y2="-13435.8" gradientUnits="userSpaceOnUse">
<stop stop-color="#318ED5"/>
<stop offset="0.675" stop-color="#38A7E4"/>
<stop offset="1" stop-color="#38A7E4"/>
</linearGradient>
<linearGradient id="paint5_linear_3_66" x1="13788.4" y1="-37565" x2="8185.84" y2="-27676.8" gradientUnits="userSpaceOnUse">
<stop stop-color="#231F20"/>
<stop offset="0.129" stop-color="white"/>
<stop offset="0.4" stop-color="white"/>
<stop offset="1" stop-color="white"/>
</linearGradient>
<linearGradient id="paint6_linear_3_66" x1="2821.81" y1="-8816.95" x2="2821.81" y2="-10329" gradientUnits="userSpaceOnUse">
<stop stop-color="#05A1E6"/>
<stop offset="1" stop-color="#05A1E6"/>
</linearGradient>
<linearGradient id="paint7_linear_3_66" x1="3323.62" y1="-12425.9" x2="3323.62" y2="-14239.7" gradientUnits="userSpaceOnUse">
<stop stop-color="#1959A6"/>
<stop offset="0.154" stop-color="#1959A6"/>
<stop offset="0.484" stop-color="#05A1E6"/>
<stop offset="0.5" stop-color="#05A1E6"/>
<stop offset="0.918" stop-color="#7EC5EA"/>
<stop offset="1" stop-color="#7EC5EA"/>
</linearGradient>
<linearGradient id="paint8_linear_3_66" x1="6789.16" y1="-19187.4" x2="6179.59" y2="-22160.3" gradientUnits="userSpaceOnUse">
<stop stop-color="#165096"/>
<stop offset="0.104" stop-color="#165096"/>
<stop offset="1" stop-color="#0D82CA"/>
</linearGradient>
<linearGradient id="paint9_linear_3_66" x1="3477.62" y1="-9640.2" x2="3477.62" y2="-10365.5" gradientUnits="userSpaceOnUse">
<stop stop-color="#05A1E6"/>
<stop offset="0.649" stop-color="#05A1E6"/>
<stop offset="0.874" stop-color="#0495D6"/>
<stop offset="1" stop-color="#0495D6"/>
</linearGradient>
<linearGradient id="paint10_linear_3_66" x1="15756" y1="-9094.05" x2="15756" y2="-8417.89" gradientUnits="userSpaceOnUse">
<stop stop-color="#231F20"/>
<stop offset="1" stop-color="white"/>
</linearGradient>
<linearGradient id="paint11_linear_3_66" x1="10272.8" y1="-21334.5" x2="9529.89" y2="-17975.7" gradientUnits="userSpaceOnUse">
<stop stop-color="#38A7E4"/>
<stop offset="0.357" stop-color="#38A7E4"/>
<stop offset="0.962" stop-color="#0E88D3"/>
<stop offset="1" stop-color="#0E88D3"/>
</linearGradient>
<linearGradient id="paint12_linear_3_66" x1="7442.81" y1="-17799.6" x2="7442.81" y2="-15085.9" gradientUnits="userSpaceOnUse">
<stop stop-color="#168CD4"/>
<stop offset="0.5" stop-color="#1C87CC"/>
<stop offset="1" stop-color="#154B8D"/>
</linearGradient>
<linearGradient id="paint13_linear_3_66" x1="4327.06" y1="-2467.01" x2="4327.06" y2="-2520.31" gradientUnits="userSpaceOnUse">
<stop stop-color="white"/>
<stop offset="0.363" stop-color="white"/>
<stop offset="1" stop-color="#918F90"/>
</linearGradient>
<linearGradient id="paint14_linear_3_66" x1="2503.33" y1="-4950.15" x2="2708.22" y2="-4839.42" gradientUnits="userSpaceOnUse">
<stop stop-color="#97D6EE"/>
<stop offset="0.703" stop-color="#55C1EA"/>
<stop offset="1" stop-color="#55C1EA"/>
</linearGradient>
<linearGradient id="paint15_linear_3_66" x1="2395.15" y1="-4893.83" x2="2546.96" y2="-4974.48" gradientUnits="userSpaceOnUse">
<stop stop-color="#7ACCEC"/>
<stop offset="0.335" stop-color="#7ACCEC"/>
<stop offset="0.841" stop-color="#3FB7ED"/>
<stop offset="1" stop-color="#3FB7ED"/>
</linearGradient>
<linearGradient id="paint16_linear_3_66" x1="14459.9" y1="-12289" x2="14459.9" y2="-13965.9" gradientUnits="userSpaceOnUse">
<stop stop-color="#231F20"/>
<stop offset="1" stop-color="white"/>
</linearGradient>
<linearGradient id="paint17_linear_3_66" x1="5340.8" y1="-14499.2" x2="5340.8" y2="-12318.6" gradientUnits="userSpaceOnUse">
<stop stop-color="#1DA7E7"/>
<stop offset="1" stop-color="#37ABE7"/>
</linearGradient>
<clipPath id="clip0_3_66">
<rect width="204" height="60" fill="white"/>
</clipPath>
</defs>
</svg>
