<svg width="256" height="133" viewBox="0 0 256 133" fill="none" xmlns="http://www.w3.org/2000/svg">
<g clip-path="url(#clip0_3_847)">
<path d="M0 120.814H8.43375V87.5219L21.49 116.556C23.03 120.056 25.14 121.313 29.275 121.313C33.41 121.313 35.4375 120.069 36.98 116.556L50.0375 87.5219V120.827H58.4725V87.5769C58.4725 84.3331 57.1725 82.7644 54.4975 81.9544C48.0912 79.9544 43.7925 81.6844 41.8475 86.0094L29.035 114.663L16.625 85.9969C14.76 81.6719 10.3813 79.9419 3.975 81.9419C1.2975 82.7531 0 84.3219 0 87.5644V120.814ZM65.4825 93.7069H73.9138V112.057C73.835 113.054 74.2338 115.394 78.8538 115.466C81.2113 115.503 97.0462 115.466 97.1937 115.466V93.6156H105.644C105.681 93.6156 105.635 123.408 105.636 123.536C105.683 130.883 96.5187 132.479 92.2962 132.603H65.6663V126.928L92.3438 126.927C97.7713 126.352 97.1313 123.656 97.1313 122.747V120.534H79.2063C70.8663 120.459 65.5562 116.818 65.49 112.631C65.4837 112.256 65.67 93.8869 65.485 93.7056L65.4825 93.7069Z" fill="#00618A"/>
<path d="M112.145 120.814H136.392C139.23 120.814 141.989 120.221 144.18 119.192C147.83 117.517 149.614 115.246 149.614 112.272V106.109C149.614 103.676 147.586 101.406 143.614 99.8919C141.505 99.0794 138.91 98.6481 136.396 98.6481H126.178C122.773 98.6481 121.15 97.6206 120.745 95.3506C120.664 95.0806 120.664 94.8506 120.664 94.5931V90.7556C120.664 90.5394 120.664 90.3219 120.745 90.0519C121.15 88.3219 122.042 87.8344 125.042 87.5519C125.286 87.5519 125.61 87.4969 125.855 87.4969H149.94V81.8756H126.26C122.854 81.8756 121.07 82.0919 119.447 82.5781C114.415 84.1469 112.225 86.6469 112.225 90.9719V95.8919C112.225 99.6769 116.525 102.921 123.74 103.677C124.552 103.731 125.363 103.784 126.173 103.784H134.931C135.256 103.784 135.581 103.784 135.824 103.839C138.499 104.056 139.636 104.542 140.446 105.514C140.946 106.014 141.096 106.489 141.096 107.014V111.934C141.096 112.529 140.691 113.287 139.88 113.934C139.15 114.584 137.934 115.016 136.311 115.124C135.986 115.124 135.744 115.178 135.42 115.178H112.145V120.801V120.814ZM202.225 111.029C202.225 116.814 206.523 120.058 215.2 120.707C216.009 120.77 216.821 120.805 217.633 120.814H239.61V115.192H217.47C212.524 115.192 210.658 113.948 210.658 110.974V81.8869H202.224V111.027L202.225 111.029ZM154.994 111.322V91.2781C154.994 86.1856 158.569 83.0969 165.639 82.1219C166.393 82.0142 167.153 81.9599 167.915 81.9594H183.924C184.712 81.9599 185.5 82.0142 186.281 82.1219C193.351 83.0969 196.926 86.1844 196.926 91.2781V111.322C196.926 115.453 195.408 117.664 191.908 119.106L200.215 126.606H190.422L183.701 120.538L176.935 120.967H167.915C166.371 120.967 164.746 120.749 162.957 120.262C157.582 118.799 154.994 115.982 154.994 111.322ZM164.097 110.822C164.097 111.093 164.179 111.363 164.26 111.689C164.76 114.019 166.941 115.319 170.26 115.319H177.922L170.885 108.966H180.678L186.803 114.507C187.934 113.904 188.677 112.982 188.927 111.798C189.009 111.528 189.009 111.257 189.009 110.986V91.7669C189.009 91.5506 189.009 91.2669 188.927 91.0081C188.427 88.8419 186.245 87.5956 182.995 87.5956H170.275C166.525 87.5956 164.1 89.2206 164.1 91.7669V110.837L164.097 110.822Z" fill="#E48E00"/>
<path d="M247.03 72.5594C241.846 72.4194 237.885 72.9006 234.5 74.3281C233.538 74.7344 232.004 74.7444 231.846 75.9506C232.375 76.5044 232.459 77.3319 232.878 78.0131C233.686 79.3219 235.052 81.0756 236.269 81.9931C237.599 82.9969 238.969 84.0719 240.397 84.9431C242.935 86.4906 245.767 87.3744 248.21 88.9231C249.65 89.8356 251.08 90.9856 252.485 92.0181C253.179 92.5281 253.648 93.3206 254.548 93.6394V93.4919C254.073 92.8881 253.951 92.0581 253.516 91.4294L251.6 89.5131C249.725 87.0131 247.347 84.8419 244.819 83.0256C242.802 81.5781 238.289 79.6231 237.447 77.2756L237.3 77.1281C238.73 76.9656 240.404 76.4494 241.725 76.0969C243.941 75.5031 245.923 75.6556 248.213 75.0656L251.309 74.1806V73.5906C250.151 72.4031 249.326 70.8319 248.065 69.7581C244.765 66.9456 241.161 64.1394 237.453 61.7956C235.395 60.4956 232.853 59.6531 230.671 58.5519C229.938 58.1819 228.649 57.9894 228.165 57.3719C227.02 55.9119 226.396 54.0594 225.513 52.3719C223.663 48.8094 221.845 44.9169 220.205 41.1681C219.086 38.6119 218.355 36.0906 216.963 33.7969C210.269 22.7919 203.063 16.1494 191.903 9.62188C189.528 8.23438 186.669 7.68438 183.646 6.96813L178.781 6.67313C177.791 6.26063 176.761 5.04813 175.831 4.46063C172.134 2.12313 162.65 -2.95562 159.911 3.71063C158.183 7.92688 162.495 12.0406 164.039 14.1781C165.121 15.6781 166.509 17.3569 167.281 19.0431C167.79 20.1506 167.879 21.2619 168.314 22.4344C169.385 25.3094 170.318 28.4631 171.704 31.1319C172.404 32.4819 173.176 33.9044 174.063 35.1119C174.606 35.8531 175.537 36.1794 175.684 37.3244C174.774 38.5994 174.721 40.5744 174.209 42.1894C171.905 49.4544 172.774 58.4831 176.125 63.8606C177.154 65.5106 179.575 69.0506 182.906 67.6931C185.819 66.5056 185.156 62.8306 186.003 59.5856C186.19 58.8481 186.075 58.3106 186.445 57.8169V57.9644L189.099 63.2706C191.061 66.4331 194.549 69.7394 197.501 71.9706C199.033 73.1269 200.251 75.1269 202.219 75.8031V75.6556H202.071C201.687 75.0556 201.088 74.8094 200.596 74.3306C199.443 73.1994 198.159 71.7931 197.205 70.4981C194.518 66.8506 192.145 62.8606 189.982 58.7044C188.95 56.7206 188.051 54.5319 187.183 52.5131C186.848 51.7344 186.851 50.5581 186.151 50.1544C185.198 51.6344 183.793 52.8294 183.055 54.5769C181.875 57.3694 181.723 60.7744 181.286 64.3069C181.028 64.3994 181.143 64.3356 180.991 64.4544C178.939 63.9594 178.216 61.8456 177.454 60.0319C175.524 55.4444 175.166 48.0619 176.864 42.7844C177.301 41.4194 179.289 37.1169 178.485 35.8556C178.101 34.5969 176.835 33.8556 176.126 32.9056C175.251 31.7181 174.374 30.1506 173.768 28.7781C172.188 25.2031 171.45 21.1906 169.788 17.5744C168.993 15.8469 167.65 14.0994 166.545 12.5744C165.322 10.8744 163.954 9.61938 163.008 7.57438C162.67 6.84313 162.212 5.67438 162.712 4.92063C162.76 4.70407 162.869 4.50568 163.026 4.34887C163.183 4.19206 163.381 4.08337 163.598 4.03563C164.453 3.37688 166.835 4.25438 167.725 4.62563C170.087 5.60813 172.062 6.54313 174.065 7.86938C175.027 8.49438 175.999 9.73938 177.16 10.0819H178.485C180.56 10.5594 182.885 10.2319 184.823 10.8194C188.25 11.8606 191.32 13.4819 194.11 15.2419C202.607 20.6069 209.554 28.2444 214.306 37.3669C215.071 38.8331 215.401 40.2344 216.075 41.7894C217.434 44.9144 219.145 48.1556 220.497 51.2231C221.847 54.2856 223.16 57.3731 225.068 59.9206C226.07 61.2581 229.942 61.9781 231.701 62.7206C232.935 63.2419 234.955 63.7856 236.124 64.4894C238.355 65.8356 240.518 67.4394 242.611 68.9144C243.658 69.6519 246.874 71.2681 247.034 72.5994L247.03 72.5594Z" fill="#00618A"/>
<path fill-rule="evenodd" clip-rule="evenodd" d="M181.138 16.3944C180.056 16.3744 179.292 16.5119 178.484 16.6894V16.8369H178.631C179.146 17.8969 180.056 18.5781 180.694 19.4906L182.169 22.5856L182.316 22.4381C183.229 21.7944 183.647 20.7656 183.641 19.1944C183.275 18.8094 183.221 18.3269 182.904 17.8669C182.482 17.2544 181.654 16.9069 181.135 16.3919L181.138 16.3944Z" fill="#00618A"/>
<path fill-rule="evenodd" clip-rule="evenodd" d="M243.569 115.032C243.569 118.744 246.502 121.247 249.784 121.247C253.065 121.247 255.999 118.744 255.999 115.032C255.999 111.319 253.065 108.817 249.784 108.817C246.502 108.817 243.569 111.319 243.569 115.032ZM254.606 115.032C254.606 117.849 252.452 119.954 249.781 119.954C247.081 119.954 244.956 117.849 244.956 115.032C244.956 112.214 247.079 110.109 249.781 110.109C252.45 110.109 254.606 112.214 254.606 115.032ZM251.456 118.579H252.847L250.81 115.464C251.904 115.348 252.731 114.817 252.731 113.524C252.731 112.082 251.819 111.487 250.064 111.487H247.295V118.581H248.489V115.514H249.599L251.455 118.581L251.456 118.579ZM248.489 114.517V112.479H249.864C250.576 112.479 251.439 112.612 251.439 113.442C251.439 114.436 250.66 114.519 249.764 114.519H248.489V114.517Z" fill="#E48E00"/>
</g>
<defs>
<clipPath id="clip0_3_847">
<rect width="256" height="133" fill="white"/>
</clipPath>
</defs>
</svg>
