<svg width="214" height="36" viewBox="0 0 214 36" fill="none" xmlns="http://www.w3.org/2000/svg">
<path d="M27.021 0L35.918 3.592V32.407L26.938 36L12.653 21.796L3.592 28.817L0 27.021V8.979L3.592 7.265L12.653 14.367L27.021 0ZM3.592 12.653V23.592L8.98 18.041L3.592 12.653ZM17.633 18.041L26.939 25.389V10.693L17.633 18.041Z" fill="#68217A"/>
<path d="M65.481 7.128L57.443 28.834H54.643L46.772 7.128H49.603L55.612 24.338C55.803 24.894 55.95 25.534 56.051 26.261H56.112C56.193 25.656 56.359 25.004 56.612 24.309L62.742 7.128H65.481Z" fill="#68217A"/>
<path d="M68.608 9.398C68.164 9.398 67.785 9.247 67.473 8.944C67.16 8.641 67.004 8.257 67.004 7.794C67.004 7.331 67.16 6.944 67.473 6.636C67.786 6.328 68.164 6.174 68.608 6.174C69.062 6.174 69.448 6.328 69.766 6.636C70.083 6.945 70.243 7.33 70.243 7.794C70.243 8.238 70.084 8.616 69.766 8.93C69.448 9.242 69.062 9.398 68.608 9.398ZM69.819 28.834H67.337V13.334H69.819V28.834Z" fill="#68217A"/>
<path d="M72.976 28.273V25.609C74.328 26.609 75.816 27.108 77.441 27.108C79.621 27.108 80.711 26.381 80.711 24.928C80.711 24.514 80.618 24.163 80.431 23.876C80.244 23.588 79.992 23.333 79.674 23.111C79.356 22.889 78.983 22.69 78.554 22.513C78.125 22.336 77.663 22.152 77.169 21.96C76.482 21.688 75.88 21.413 75.36 21.135C74.84 20.858 74.407 20.545 74.058 20.197C73.71 19.849 73.448 19.453 73.271 19.009C73.095 18.566 73.006 18.046 73.006 17.45C73.006 16.723 73.173 16.08 73.506 15.52C73.839 14.959 74.283 14.491 74.838 14.112C75.393 13.734 76.026 13.449 76.738 13.257C77.449 13.066 78.183 12.97 78.94 12.97C80.282 12.97 81.483 13.202 82.543 13.666V16.179C81.402 15.432 80.091 15.059 78.607 15.059C78.143 15.059 77.724 15.112 77.351 15.218C76.977 15.323 76.657 15.473 76.39 15.664C76.123 15.855 75.916 16.086 75.77 16.352C75.624 16.62 75.55 16.915 75.55 17.238C75.55 17.641 75.623 17.979 75.77 18.253C75.916 18.524 76.13 18.767 76.413 18.98C76.695 19.191 77.038 19.383 77.442 19.554C77.845 19.726 78.305 19.912 78.819 20.115C79.505 20.378 80.121 20.647 80.666 20.925C81.211 21.203 81.675 21.516 82.059 21.863C82.442 22.212 82.738 22.613 82.945 23.066C83.152 23.521 83.255 24.06 83.255 24.686C83.255 25.453 83.086 26.119 82.748 26.684C82.41 27.249 81.958 27.718 81.394 28.091C80.829 28.465 80.178 28.742 79.441 28.924C78.704 29.106 77.932 29.196 77.125 29.196C75.529 29.197 74.146 28.89 72.976 28.273Z" fill="#68217A"/>
<path d="M98.671 28.834H96.189V26.382H96.128C95.099 28.259 93.504 29.197 91.345 29.197C87.652 29.197 85.805 26.997 85.805 22.597V13.333H88.272V22.203C88.272 25.473 89.523 27.107 92.026 27.107C93.237 27.107 94.234 26.661 95.016 25.767C95.798 24.874 96.189 23.706 96.189 22.263V13.332H98.671V28.834Z" fill="#68217A"/>
<path d="M113.847 28.834H111.365V26.412H111.304C110.224 28.268 108.635 29.197 106.536 29.197C104.992 29.197 103.784 28.789 102.911 27.97C102.038 27.154 101.601 26.069 101.601 24.716C101.601 21.82 103.306 20.135 106.717 19.66L111.364 19.009C111.364 16.376 110.299 15.059 108.17 15.059C106.303 15.059 104.618 15.695 103.115 16.966V14.423C104.638 13.454 106.394 12.97 108.383 12.97C112.026 12.97 113.847 14.898 113.847 18.752V28.834ZM111.364 20.993L107.625 21.508C106.475 21.669 105.607 21.954 105.022 22.363C104.437 22.771 104.144 23.496 104.144 24.535C104.144 25.292 104.414 25.91 104.954 26.389C105.494 26.868 106.213 27.108 107.111 27.108C108.342 27.108 109.36 26.676 110.16 25.814C110.963 24.951 111.364 23.859 111.364 22.537V20.993Z" fill="#68217A"/>
<path d="M120.076 28.834H117.594V5.887H120.076V28.834Z" fill="#68217A"/>
<path d="M127.832 27.956V24.959C128.174 25.262 128.586 25.534 129.065 25.776C129.544 26.018 130.048 26.222 130.579 26.389C131.108 26.555 131.641 26.684 132.176 26.775C132.711 26.866 133.205 26.912 133.659 26.912C135.222 26.912 136.391 26.622 137.163 26.041C137.935 25.461 138.321 24.626 138.321 23.536C138.321 22.951 138.192 22.441 137.935 22.008C137.677 21.573 137.322 21.178 136.868 20.82C136.414 20.462 135.877 20.119 135.256 19.791C134.636 19.463 133.967 19.117 133.25 18.754C132.494 18.37 131.787 17.982 131.131 17.589C130.475 17.194 129.905 16.761 129.421 16.286C128.937 15.812 128.556 15.275 128.278 14.675C128 14.074 127.861 13.37 127.861 12.564C127.861 11.575 128.078 10.714 128.512 9.983C128.946 9.252 129.516 8.648 130.222 8.173C130.929 7.699 131.734 7.346 132.637 7.114C133.54 6.882 134.46 6.765 135.4 6.765C137.539 6.765 139.097 7.022 140.077 7.537V10.397C138.795 9.509 137.15 9.065 135.142 9.065C134.587 9.065 134.032 9.124 133.477 9.239C132.921 9.355 132.427 9.545 131.994 9.806C131.56 10.069 131.207 10.407 130.934 10.821C130.661 11.235 130.525 11.739 130.525 12.335C130.525 12.89 130.629 13.369 130.836 13.773C131.043 14.176 131.348 14.544 131.752 14.877C132.155 15.21 132.648 15.533 133.228 15.846C133.809 16.159 134.477 16.502 135.234 16.875C136.01 17.259 136.748 17.662 137.444 18.086C138.14 18.51 138.751 18.98 139.276 19.493C139.799 20.009 140.216 20.578 140.524 21.204C140.833 21.83 140.986 22.546 140.986 23.353C140.986 24.422 140.776 25.329 140.358 26.07C139.939 26.812 139.374 27.415 138.663 27.88C137.951 28.344 137.132 28.68 136.203 28.886C135.274 29.093 134.296 29.197 133.266 29.197C132.922 29.197 132.498 29.169 131.995 29.114C131.49 29.058 130.975 28.977 130.451 28.872C129.927 28.766 129.43 28.635 128.96 28.478C128.49 28.322 128.113 28.147 127.832 27.956Z" fill="#68217A"/>
<path d="M150.707 28.683C150.122 29.006 149.35 29.167 148.392 29.167C145.677 29.167 144.321 27.653 144.321 24.626V15.453H141.657V13.334H144.321V9.55L146.803 8.748V13.334H150.707V15.453H146.803V24.187C146.803 25.226 146.979 25.967 147.332 26.412C147.685 26.857 148.27 27.078 149.088 27.078C149.713 27.078 150.254 26.906 150.707 26.563V28.683Z" fill="#68217A"/>
<path d="M166.09 28.834H163.608V26.382H163.547C162.518 28.259 160.924 29.197 158.764 29.197C155.071 29.197 153.225 26.997 153.225 22.597V13.333H155.692V22.203C155.692 25.473 156.943 27.107 159.446 27.107C160.657 27.107 161.653 26.661 162.436 25.767C163.217 24.874 163.608 23.706 163.608 22.263V13.332H166.09V28.834Z" fill="#68217A"/>
<path d="M183.865 28.834H181.383V26.2H181.322C180.172 28.198 178.395 29.197 175.994 29.197C174.047 29.197 172.49 28.504 171.324 27.116C170.159 25.728 169.576 23.839 169.576 21.447C169.576 18.884 170.222 16.83 171.514 15.287C172.805 13.742 174.526 12.971 176.676 12.971C178.805 12.971 180.354 13.809 181.322 15.484H181.383V5.887H183.865V28.834ZM181.383 21.826V19.54C181.383 18.289 180.969 17.229 180.142 16.361C179.315 15.493 178.265 15.059 176.994 15.059C175.48 15.059 174.29 15.614 173.422 16.724C172.554 17.834 172.12 19.368 172.12 21.326C172.12 23.112 172.536 24.522 173.369 25.556C174.201 26.591 175.319 27.108 176.722 27.108C178.105 27.108 179.227 26.609 180.09 25.609C180.951 24.611 181.383 23.35 181.383 21.826Z" fill="#68217A"/>
<path d="M189.697 9.398C189.253 9.398 188.875 9.247 188.562 8.944C188.249 8.641 188.092 8.257 188.092 7.794C188.092 7.331 188.248 6.944 188.562 6.636C188.875 6.328 189.252 6.174 189.697 6.174C190.151 6.174 190.537 6.328 190.855 6.636C191.172 6.945 191.332 7.33 191.332 7.794C191.332 8.238 191.173 8.616 190.855 8.93C190.537 9.242 190.151 9.398 189.697 9.398ZM190.908 28.834H188.426V13.334H190.908V28.834Z" fill="#68217A"/>
<path d="M201.947 29.197C199.656 29.197 197.827 28.473 196.459 27.025C195.092 25.577 194.408 23.657 194.408 21.265C194.408 18.661 195.12 16.628 196.543 15.165C197.966 13.701 199.889 12.97 202.311 12.97C204.622 12.97 206.425 13.681 207.721 15.105C209.018 16.527 209.666 18.501 209.666 21.023C209.666 23.496 208.968 25.476 207.57 26.964C206.172 28.453 204.298 29.197 201.947 29.197ZM202.129 15.06C200.533 15.06 199.273 15.603 198.344 16.687C197.416 17.772 196.951 19.268 196.951 21.175C196.951 23.012 197.421 24.459 198.359 25.52C199.297 26.579 200.554 27.109 202.129 27.109C203.733 27.109 204.967 26.589 205.83 25.549C206.691 24.51 207.123 23.031 207.123 21.114C207.123 19.176 206.691 17.683 205.83 16.634C204.967 15.584 203.732 15.06 202.129 15.06Z" fill="#68217A"/>
</svg>
