<svg width="120" height="60" viewBox="0 0 120 60" fill="none" xmlns="http://www.w3.org/2000/svg">
<path d="M12.5 53.34H11.68L8.4 44.34H9.33L11.89 51.54L12.01 51.94C12.01 52.08 12.07 52.22 12.11 52.37C12.1327 52.2384 12.1627 52.1082 12.2 51.98C12.2 51.84 12.28 51.68 12.34 51.52L15 44.32H15.9L12.5 53.34ZM17.54 45.27C17.3916 45.2671 17.2494 45.2102 17.14 45.11C17.0886 45.0517 17.0496 44.9834 17.0255 44.9095C17.0015 44.8355 16.9928 44.7574 17 44.68C16.9985 44.6051 17.0128 44.5307 17.0421 44.4618C17.0714 44.3928 17.115 44.3309 17.17 44.28C17.2763 44.1736 17.4197 44.1127 17.57 44.11C17.6463 44.0996 17.7237 44.0996 17.8 44.11C17.8689 44.1404 17.933 44.1808 17.99 44.23C18.0411 44.2818 18.0819 44.3429 18.11 44.41C18.1419 44.4825 18.159 44.5608 18.16 44.64C18.1704 44.7163 18.1704 44.7937 18.16 44.87C18.1285 44.9377 18.0843 44.9988 18.03 45.05C17.9798 45.1078 17.9137 45.1495 17.84 45.17C17.7528 45.2337 17.648 45.2686 17.54 45.27ZM17.14 53.34V46.9H18V53.34H17.14ZM19.66 52.18C19.9127 52.3762 20.1967 52.5284 20.5 52.63C20.6475 52.6898 20.8021 52.7302 20.96 52.75C21.103 52.7642 21.247 52.7642 21.39 52.75C22.35 52.75 22.83 52.39 22.83 51.67C22.8301 51.5241 22.7958 51.3802 22.73 51.25C22.6531 51.1241 22.555 51.0125 22.44 50.92C22.3028 50.8237 22.1552 50.7432 22 50.68C21.8078 50.5806 21.6109 50.4905 21.41 50.41C21.1433 50.3086 20.8858 50.1849 20.64 50.04C20.4461 49.9271 20.2679 49.7893 20.11 49.63C19.9758 49.4884 19.8705 49.3219 19.8 49.14C19.7336 48.9435 19.6998 48.7374 19.7 48.53C19.6939 48.2642 19.7596 48.0017 19.89 47.77C20.0146 47.5468 20.185 47.3526 20.39 47.2C20.6088 47.044 20.8522 46.9257 21.11 46.85C21.393 46.7696 21.6858 46.7292 21.98 46.73C22.4843 46.7168 22.9846 46.823 23.44 47.04V47.89C22.9773 47.5838 22.4348 47.4204 21.88 47.42C21.6937 47.4191 21.5083 47.4461 21.33 47.5C21.1752 47.5434 21.0295 47.6146 20.9 47.71C20.7937 47.8056 20.7026 47.9169 20.63 48.04C20.565 48.1741 20.5309 48.321 20.53 48.47C20.5284 48.6139 20.5556 48.7567 20.61 48.89C20.6647 49.0109 20.7429 49.1196 20.84 49.21C20.9676 49.3207 21.1087 49.4148 21.26 49.49C21.43 49.59 21.64 49.67 21.88 49.77L22.68 50.14C22.8862 50.2478 23.0749 50.386 23.24 50.55C23.3852 50.6827 23.498 50.8469 23.57 51.03C23.6447 51.2281 23.682 51.4383 23.68 51.65C23.6858 51.9177 23.6239 52.1826 23.5 52.42C23.3785 52.6481 23.2077 52.8462 23 53C22.7751 53.158 22.5248 53.2764 22.26 53.35C21.9535 53.4323 21.6373 53.4727 21.32 53.47C20.7461 53.4858 20.1789 53.344 19.68 53.06L19.66 52.18ZM29.46 53.34V52.24C29.2837 52.6198 29.0007 52.9401 28.6457 53.1621C28.2906 53.384 27.8787 53.4979 27.46 53.49C25.93 53.49 25.16 52.55 25.16 50.69V46.89H25.96V50.52C25.9123 51.119 26.0559 51.7177 26.37 52.23C26.5176 52.4199 26.7099 52.5704 26.9297 52.6681C27.1495 52.7658 27.3901 52.8077 27.63 52.79C27.8917 52.7901 28.1506 52.7357 28.39 52.63C28.6175 52.521 28.8188 52.3641 28.98 52.17C29.149 51.9606 29.2809 51.7239 29.37 51.47C29.4614 51.1789 29.5053 50.875 29.5 50.57V46.9H30.3V53.34H29.46ZM36.06 53.34V52.2C35.871 52.6062 35.5734 52.9523 35.2 53.2C34.8298 53.4261 34.4037 53.5439 33.97 53.54C33.6849 53.5406 33.4015 53.4968 33.13 53.41C32.8961 53.3281 32.6816 53.1987 32.5 53.03C32.3219 52.8696 32.1818 52.6714 32.09 52.45C31.9956 52.2113 31.9481 51.9567 31.95 51.7C31.9374 51.4434 31.979 51.187 32.072 50.9475C32.165 50.708 32.3075 50.4908 32.49 50.31C32.9532 49.9192 33.5262 49.6816 34.13 49.63L36.13 49.35C36.13 48.11 35.65 47.49 34.69 47.49C33.918 47.5007 33.1772 47.7963 32.61 48.32V47.44C32.7502 47.3374 32.9011 47.2503 33.06 47.18C33.2335 47.097 33.4143 47.0301 33.6 46.98C33.7906 46.9228 33.9843 46.876 34.18 46.84C34.3731 46.8255 34.5669 46.8255 34.76 46.84C35.0587 46.8186 35.3586 46.861 35.6396 46.9645C35.9206 47.0679 36.1764 47.23 36.39 47.44C36.7943 47.9489 36.9909 48.592 36.94 49.24V53.44L36.06 53.34ZM34.4 50.2C34.1498 50.2354 33.9025 50.2888 33.66 50.36C33.4774 50.4147 33.3051 50.4991 33.15 50.61C33.0214 50.717 32.9217 50.8545 32.86 51.01C32.7871 51.1944 32.753 51.3918 32.76 51.59C32.7589 51.7543 32.7895 51.9173 32.85 52.07C32.9088 52.2162 33.0013 52.3464 33.12 52.45C33.2393 52.5641 33.3829 52.6495 33.54 52.7C33.7198 52.7631 33.9095 52.7936 34.1 52.79C34.3726 52.7919 34.6423 52.7339 34.89 52.62C35.1237 52.5114 35.3343 52.3585 35.51 52.17C35.689 51.9679 35.8281 51.7338 35.92 51.48C36.0142 51.1962 36.0615 50.899 36.06 50.6V49.97L34.4 50.2ZM38.8 53.34V43.8H39.6V53.34H38.8ZM45 52.02C45.158 52.1338 45.3252 52.2342 45.5 52.32C45.6812 52.4094 45.8683 52.4863 46.06 52.55C46.26 52.61 46.46 52.65 46.64 52.69C46.8231 52.7042 47.0069 52.7042 47.19 52.69C47.7319 52.7287 48.2719 52.592 48.73 52.3C48.8974 52.163 49.0301 51.9882 49.117 51.7901C49.2039 51.5919 49.2426 51.376 49.23 51.16C49.2378 50.9446 49.2004 50.73 49.12 50.53C49.0255 50.3412 48.8966 50.1716 48.74 50.03C48.5482 49.8532 48.3368 49.6989 48.11 49.57L47.21 49.05L46.21 48.45C45.9664 48.2852 45.7417 48.0941 45.54 47.88C45.3744 47.6923 45.2455 47.4752 45.16 47.24C45.0723 46.9928 45.0283 46.7323 45.03 46.47C45.0215 46.1214 45.1042 45.7767 45.27 45.47C45.4202 45.1781 45.6358 44.9248 45.9 44.73C46.1772 44.5213 46.4885 44.3623 46.82 44.26C47.2091 44.1655 47.6106 44.1317 48.01 44.16C48.6163 44.1443 49.2201 44.2427 49.79 44.45V45.38C49.216 45.0607 48.5666 44.9019 47.91 44.92C47.6565 44.9167 47.4038 44.9504 47.16 45.02C46.9354 45.0762 46.7222 45.1709 46.53 45.3C46.3599 45.4269 46.217 45.5867 46.11 45.77C46.0068 45.9709 45.9553 46.1942 45.96 46.42C45.9531 46.6279 45.9871 46.8352 46.06 47.03C46.1372 47.2127 46.2533 47.3765 46.4 47.51C46.5812 47.6836 46.7826 47.8347 47 47.96L47.9 48.46C48.2441 48.6378 48.578 48.8348 48.9 49.05C49.1585 49.2186 49.3938 49.4203 49.6 49.65C49.7821 49.8402 49.9248 50.0645 50.02 50.31C50.1143 50.5557 50.1618 50.8169 50.16 51.08C50.1621 51.4256 50.0869 51.7672 49.94 52.08C49.7969 52.3736 49.584 52.6277 49.32 52.82C49.0383 53.0288 48.7192 53.1815 48.38 53.27C47.9884 53.3727 47.5849 53.4231 47.18 53.42C47.0102 53.4326 46.8398 53.4326 46.67 53.42C46.4678 53.4013 46.2673 53.3679 46.07 53.32C45.8771 53.2819 45.6867 53.2318 45.5 53.17C45.3445 53.1166 45.1939 53.0497 45.05 52.97L45 52.02ZM54.2 53.26C53.9175 53.4008 53.6057 53.4728 53.29 53.47C52.25 53.47 51.73 52.87 51.73 51.67V47.6H50.6V46.9H51.73V45.28L52.53 45.01V46.91H54.19V47.61H52.53V51.55C52.4938 51.8971 52.5672 52.2468 52.74 52.55C52.8278 52.6527 52.9392 52.7327 53.0645 52.7832C53.1898 52.8336 53.3255 52.8531 53.46 52.84C53.7208 52.8377 53.975 52.7576 54.19 52.61L54.2 53.26ZM59.73 53.34V52.24C59.5547 52.6206 59.272 52.9416 58.9167 53.1637C58.5614 53.3858 58.1489 53.4992 57.73 53.49C56.2 53.49 55.43 52.55 55.43 50.69V46.89H56.23V50.52C56.1871 51.1186 56.3303 51.7159 56.64 52.23C56.7888 52.4186 56.9813 52.5681 57.2008 52.6657C57.4203 52.7633 57.6603 52.8059 57.9 52.79C58.1617 52.7901 58.4206 52.7357 58.66 52.63C58.8891 52.5236 59.0909 52.3662 59.25 52.17C59.4259 51.9654 59.5586 51.7273 59.64 51.47C59.735 51.1795 59.7822 50.8756 59.78 50.57V46.9H60.58V53.34H59.73ZM67.13 53.34V52.2C66.9209 52.5959 66.6013 52.9224 66.21 53.14C65.7993 53.3739 65.3325 53.4915 64.86 53.48C64.4842 53.4843 64.112 53.4057 63.77 53.25C63.4392 53.1084 63.1475 52.8888 62.92 52.61C62.6762 52.3153 62.4928 51.9755 62.38 51.61C62.2427 51.1733 62.1752 50.7177 62.18 50.26C62.1737 49.7785 62.2446 49.2991 62.39 48.84C62.5152 48.412 62.7262 48.0139 63.01 47.67C63.2636 47.3648 63.581 47.119 63.94 46.95C64.3202 46.7792 64.7332 46.6939 65.15 46.7C65.5548 46.6732 65.9587 46.7636 66.3135 46.9605C66.6682 47.1573 66.9586 47.4523 67.15 47.81V43.81H67.95V53.35L67.13 53.34ZM67.13 49.44C67.1341 49.1784 67.0935 48.918 67.01 48.67C66.9164 48.4349 66.777 48.2208 66.6 48.04C66.4249 47.8558 66.2139 47.7095 65.98 47.61C65.7303 47.5036 65.4615 47.4492 65.19 47.45C64.8865 47.4502 64.5865 47.515 64.31 47.64C64.0408 47.7679 63.8047 47.9561 63.62 48.19C63.4171 48.4457 63.2645 48.7375 63.17 49.05C63.0593 49.4234 63.002 49.8106 63 50.2C62.9945 50.5688 63.0451 50.9364 63.15 51.29C63.2313 51.5877 63.3706 51.8664 63.56 52.11C63.7344 52.329 63.9567 52.5051 64.2098 52.6248C64.4629 52.7444 64.7401 52.8043 65.02 52.8C65.3261 52.8044 65.6296 52.743 65.91 52.62C66.1645 52.5049 66.3921 52.3378 66.5782 52.1294C66.7642 51.921 66.9045 51.6759 66.99 51.41C67.0916 51.1278 67.1423 50.8299 67.14 50.53L67.13 49.44ZM70.4 45.27C70.2511 45.27 70.1078 45.2127 70 45.11C69.9429 45.0565 69.8982 44.9912 69.8688 44.9187C69.8395 44.8462 69.8262 44.7681 69.83 44.69C69.8264 44.6148 69.8398 44.5398 69.8693 44.4706C69.8987 44.4013 69.9434 44.3396 70 44.29C70.0513 44.2355 70.1133 44.1922 70.1821 44.163C70.251 44.1337 70.3252 44.1191 70.4 44.12C70.473 44.1096 70.547 44.1096 70.62 44.12C70.6913 44.1457 70.7562 44.1866 70.81 44.24C70.8643 44.2912 70.9085 44.3523 70.94 44.42C70.9934 44.5687 70.9934 44.7313 70.94 44.88C70.912 44.9497 70.8674 45.0115 70.81 45.06C70.7637 45.1175 70.7009 45.1594 70.63 45.18C70.5605 45.2259 70.4822 45.2566 70.4 45.27ZM70 53.34V46.9H70.8V53.34H70ZM75.52 53.5C75.0783 53.5072 74.6396 53.4255 74.23 53.26C73.851 53.1092 73.5096 52.8771 73.23 52.58C72.9612 52.2895 72.7507 51.95 72.61 51.58C72.4652 51.1414 72.3942 50.6818 72.4 50.22C72.3902 49.7301 72.4681 49.2425 72.63 48.78C72.7706 48.3719 72.9994 47.9997 73.3 47.69C73.5774 47.3904 73.9194 47.1578 74.3 47.01C74.7207 46.8478 75.1692 46.7697 75.62 46.78C76.0513 46.7704 76.4799 46.8487 76.88 47.01C77.2612 47.1471 77.6041 47.3734 77.88 47.67C78.1325 47.9679 78.3198 48.3154 78.43 48.69C78.7099 49.5989 78.7099 50.5711 78.43 51.48C78.29 51.8683 78.0798 52.2276 77.81 52.54C77.5339 52.8435 77.1918 53.0796 76.81 53.23C76.4037 53.4094 75.9642 53.5014 75.52 53.5ZM75.58 47.45C75.2371 47.4438 74.8967 47.5085 74.58 47.64C74.2995 47.7588 74.0498 47.94 73.85 48.17C73.6391 48.4197 73.4793 48.7086 73.38 49.02C73.2668 49.3926 73.2128 49.7807 73.22 50.17C73.2134 50.5396 73.2674 50.9079 73.38 51.26C73.4817 51.5644 73.6413 51.8462 73.85 52.09C74.0444 52.3214 74.2913 52.5031 74.57 52.62C74.8864 52.7526 75.227 52.8174 75.57 52.81C75.9125 52.8243 76.254 52.7628 76.57 52.63C76.8433 52.5086 77.0859 52.3275 77.28 52.1C77.4836 51.859 77.6305 51.5753 77.71 51.27C77.8146 50.8992 77.8652 50.5152 77.86 50.13C77.9117 49.4155 77.7059 48.706 77.28 48.13C77.0712 47.8895 76.8081 47.7023 76.5124 47.584C76.2167 47.4658 75.897 47.4198 75.58 47.45ZM90 53C89.2499 53.3395 88.4332 53.507 87.61 53.49C87.017 53.4974 86.4286 53.3852 85.88 53.16C85.375 52.9446 84.9216 52.6241 84.55 52.22C84.1708 51.8111 83.8812 51.3274 83.7 50.8C83.4953 50.2222 83.3937 49.6129 83.4 49C83.3955 48.3529 83.5038 47.7099 83.72 47.1C83.917 46.5308 84.2264 46.0071 84.63 45.56C85.0322 45.1311 85.5192 44.7906 86.06 44.56C86.6532 44.3043 87.2941 44.1782 87.94 44.19C88.6422 44.1805 89.3403 44.2992 90 44.54V45.44C89.3565 45.1217 88.6479 44.9574 87.93 44.96C87.3948 44.9502 86.8634 45.0524 86.37 45.26C85.9319 45.4511 85.5423 45.7381 85.23 46.1C84.911 46.4717 84.6695 46.9035 84.52 47.37C84.3521 47.8867 84.2678 48.4268 84.27 48.97C84.2697 49.4682 84.3438 49.9637 84.49 50.44C84.6293 50.8773 84.8498 51.2844 85.14 51.64C85.4327 51.9922 85.8021 52.2727 86.22 52.46C86.6882 52.6695 87.1972 52.772 87.71 52.76C88.5085 52.7709 89.2966 52.5782 90 52.2V53ZM94.4 53.5C93.9616 53.5064 93.5263 53.4247 93.12 53.26C92.7395 53.1119 92.3976 52.8794 92.12 52.58C91.8481 52.2919 91.6372 51.9517 91.5 51.58C91.3552 51.1414 91.2842 50.6818 91.29 50.22C91.2819 49.731 91.3562 49.2442 91.51 48.78C91.6553 48.3718 91.8873 48 92.19 47.69C92.4657 47.3885 92.8082 47.1556 93.19 47.01C93.6107 46.8478 94.0592 46.7697 94.51 46.78C94.938 46.7704 95.3634 46.8487 95.76 47.01C96.1425 47.1446 96.4859 47.3713 96.76 47.67C97.0304 47.9786 97.2346 48.3394 97.36 48.73C97.5069 49.1853 97.5778 49.6617 97.57 50.14C97.5766 50.6092 97.5021 51.0761 97.35 51.52C97.2186 51.9123 97.0075 52.2732 96.73 52.58C96.4548 52.8846 96.1124 53.1209 95.73 53.27C95.3081 53.4407 94.8547 53.5191 94.4 53.5ZM94.47 47.45C94.127 47.4426 93.7864 47.5074 93.47 47.64C93.1895 47.7588 92.9398 47.94 92.74 48.17C92.5256 48.4173 92.3655 48.7069 92.27 49.02C92.1568 49.3926 92.1028 49.7807 92.11 50.17C92.1034 50.5396 92.1574 50.9079 92.27 51.26C92.3682 51.5638 92.5245 51.8457 92.73 52.09C92.9283 52.3216 93.1784 52.5031 93.46 52.62C94.0728 52.8664 94.7572 52.8664 95.37 52.62C95.6427 52.5024 95.8829 52.3206 96.07 52.09C96.2766 51.8495 96.4269 51.566 96.51 51.26C96.6146 50.8892 96.6652 50.5052 96.66 50.12C96.7117 49.4055 96.5059 48.696 96.08 48.12C95.8796 47.894 95.6307 47.7163 95.3519 47.6003C95.073 47.4843 94.7715 47.4329 94.47 47.45ZM103.67 53.35V52.2C103.465 52.5952 103.148 52.9218 102.76 53.14C102.387 53.343 101.972 53.4584 101.548 53.4775C101.123 53.4966 100.7 53.4188 100.31 53.25C99.9805 53.106 99.6894 52.8868 99.46 52.61C99.2197 52.3129 99.0366 51.9739 98.92 51.61C98.7863 51.1727 98.7222 50.7172 98.73 50.26C98.7237 49.7785 98.7946 49.2991 98.94 48.84C99.0665 48.4348 99.2703 48.0578 99.54 47.73C99.7894 47.4205 100.108 47.1739 100.47 47.01C100.85 46.8373 101.263 46.7519 101.68 46.76C102.085 46.7306 102.49 46.82 102.845 47.0171C103.201 47.2142 103.491 47.5106 103.68 47.87V43.8H104.48V53.34L103.67 53.35ZM103.67 49.45C103.672 49.1794 103.621 48.9111 103.52 48.66C103.43 48.4254 103.294 48.2112 103.12 48.03C102.942 47.8486 102.732 47.7027 102.5 47.6C102.247 47.4944 101.975 47.44 101.7 47.44C101.397 47.4411 101.097 47.5058 100.82 47.63C100.556 47.7609 100.323 47.9487 100.14 48.18C99.9335 48.4333 99.7804 48.7259 99.69 49.04C99.5767 49.416 99.5228 49.8074 99.53 50.2C99.5263 50.568 99.5734 50.9348 99.67 51.29C99.7545 51.5884 99.8973 51.8671 100.09 52.11C100.259 52.3252 100.474 52.4995 100.72 52.62C100.98 52.7419 101.263 52.8034 101.55 52.8C101.853 52.8042 102.153 52.7428 102.43 52.62C102.682 52.5045 102.91 52.3415 103.1 52.14C103.284 51.9247 103.426 51.6772 103.52 51.41C103.622 51.1278 103.672 50.8299 103.67 50.53V49.45ZM106.93 50.27C106.927 50.6295 106.981 50.9873 107.09 51.33C107.174 51.6247 107.32 51.8977 107.52 52.13C107.707 52.3495 107.943 52.521 108.21 52.63C108.497 52.7537 108.807 52.8151 109.12 52.81C109.873 52.7976 110.599 52.5296 111.18 52.05V52.85C110.522 53.3022 109.738 53.5333 108.94 53.51C108.538 53.5141 108.14 53.4358 107.77 53.28C107.42 53.1376 107.111 52.9109 106.87 52.62C106.607 52.3097 106.409 51.949 106.29 51.56C106.151 51.0963 106.083 50.6141 106.09 50.13C106.089 49.6743 106.163 49.2215 106.31 48.79C106.447 48.4022 106.653 48.0429 106.92 47.73C107.177 47.4307 107.494 47.1888 107.85 47.02C108.216 46.8482 108.616 46.7627 109.02 46.77C109.397 46.7632 109.772 46.8347 110.12 46.98C110.431 47.1223 110.705 47.3345 110.92 47.6C111.15 47.8963 111.317 48.2366 111.41 48.6C111.531 49.0224 111.589 49.4606 111.58 49.9V50.3L106.93 50.27ZM110.75 49.57C110.775 49.0101 110.606 48.4587 110.27 48.01C110.116 47.8244 109.922 47.6771 109.701 47.5799C109.481 47.4827 109.241 47.4382 109 47.45C108.739 47.4476 108.48 47.4986 108.24 47.6C108.01 47.6975 107.803 47.8403 107.63 48.02C107.445 48.2121 107.296 48.4356 107.19 48.68C107.066 48.9628 106.985 49.2629 106.95 49.57H110.75ZM68.2 6.47V34.6L43.63 30.95L68.2 39.22L76.4 35.82V9.88L68.2 6.47ZM59.6 11.27L52.07 18.69L47.54 15.29L45.68 15.91L50.28 20.47L45.68 25.03L47.54 25.65L52.07 22.25L59.6 29.71L64.1 27.79V13.2L59.6 11.27ZM59.6 16.57V24.37L54.42 20.47L59.6 16.57Z" fill="#007ACC"/>
</svg>
