<svg width="1383" height="122" viewBox="0 0 1383 122" fill="none" xmlns="http://www.w3.org/2000/svg">
<g clip-path="url(#clip0_3_920)">
<path d="M0 40.3203L115.2 48.1923C230.4 55.6803 460.8 72.0003 691.2 55.9683C921.6 40.3203 1152 -6.71972 1382.4 1.15228C1612.8 8.64028 1843.2 72.0003 2073.6 87.3603C2304 102.72 2534.4 72.0003 2764.8 24.6723C2995.2 -22.08 3225.6 -85.44 3456 -61.632C3686.4 -38.4 3916.8 72.0003 4147.2 110.88C4377.6 149.76 4608 119.04 4838.4 134.4C5068.8 149.76 5299.2 213.12 5529.6 220.608C5760 228.48 5990.4 181.44 6220.8 142.272C6451.2 102.72 6681.6 72.0003 6912 63.8403C7142.4 55.6803 7372.8 72.0003 7603.2 71.7123C7833.6 72.0003 8064 55.6803 8294.4 48.1923C8524.8 40.3203 8755.2 40.3203 8985.6 71.7123C9216 102.72 9446.4 166.08 9676.8 189.312C9907.2 213.12 10137.6 196.8 10368 134.4C10598.4 72.0003 10828.8 -38.4 11059.2 -85.152C11289.6 -132.48 11520 -116.16 11750.4 -45.888C11980.8 24.9603 12211.2 149.76 12441.6 150.048C12672 149.76 12902.4 24.9603 13132.8 -22.368C13363.2 -69.12 13593.6 -38.4 13824 -22.368C14054.4 -6.71971 14284.8 -6.71971 14515.2 24.6723C14745.6 55.6803 14976 119.04 15206.4 157.92C15436.8 196.8 15667.2 213.12 15897.6 165.792C16128 119.04 16358.4 8.64029 16473.6 -45.888L16588.8 -100.8V322.56H16473.6C16358.4 322.56 16128 322.56 15897.6 322.56C15667.2 322.56 15436.8 322.56 15206.4 322.56C14976 322.56 14745.6 322.56 14515.2 322.56C14284.8 322.56 14054.4 322.56 13824 322.56C13593.6 322.56 13363.2 322.56 13132.8 322.56C12902.4 322.56 12672 322.56 12441.6 322.56C12211.2 322.56 11980.8 322.56 11750.4 322.56C11520 322.56 11289.6 322.56 11059.2 322.56C10828.8 322.56 10598.4 322.56 10368 322.56C10137.6 322.56 9907.2 322.56 9676.8 322.56C9446.4 322.56 9216 322.56 8985.6 322.56C8755.2 322.56 8524.8 322.56 8294.4 322.56C8064 322.56 7833.6 322.56 7603.2 322.56C7372.8 322.56 7142.4 322.56 6912 322.56C6681.6 322.56 6451.2 322.56 6220.8 322.56C5990.4 322.56 5760 322.56 5529.6 322.56C5299.2 322.56 5068.8 322.56 4838.4 322.56C4608 322.56 4377.6 322.56 4147.2 322.56C3916.8 322.56 3686.4 322.56 3456 322.56C3225.6 322.56 2995.2 322.56 2764.8 322.56C2534.4 322.56 2304 322.56 2073.6 322.56C1843.2 322.56 1612.8 322.56 1382.4 322.56C1152 322.56 921.6 322.56 691.2 322.56C460.8 322.56 230.4 322.56 115.2 322.56H0V40.3203Z" fill="white"/>
</g>
<defs>
<clipPath id="clip0_3_920">
<rect width="1382.4" height="121.92" fill="white"/>
</clipPath>
</defs>
</svg>
