<svg width="512" height="195" viewBox="0 0 512 195" fill="none" xmlns="http://www.w3.org/2000/svg">
<path d="M84.1504 1.79373C81.1045 3.58047 76.0356 8.63919 69.9888 15.976L75.5298 26.3838C79.4299 20.8561 83.3861 15.8643 87.3311 11.6432C87.6458 11.3081 87.7919 11.1518 87.7919 11.1518C87.6458 11.3081 87.4772 11.4868 87.3311 11.6432C86.0386 13.0502 82.1161 17.6064 76.2042 26.6071C81.9025 26.328 90.5905 25.1666 97.7837 23.9605C99.9192 12.1233 95.7044 6.76311 95.7044 6.76311C95.7044 6.76311 90.3545 -1.8356 84.1279 1.83839L84.1504 1.79373Z" fill="url(#paint0_linear_3_14)"/>
<path d="M65.4931 89.2214C64.785 89.3442 64.0657 89.4782 63.3126 89.6011C63.3126 89.6011 63.3014 89.6011 63.3014 89.6122C63.6835 89.5564 64.0544 89.5006 64.4253 89.4447C64.7737 89.3666 65.1334 89.2996 65.4931 89.2214Z" fill="#BD202E"/>
<path d="M65.4931 89.2214C64.785 89.3442 64.0657 89.4782 63.3126 89.6011C63.3126 89.6011 63.3014 89.6011 63.3014 89.6122C63.6835 89.5564 64.0544 89.5006 64.4253 89.4447C64.7737 89.3666 65.1334 89.2996 65.4931 89.2214Z" fill="black"/>
<path d="M67.4038 80.176C67.3925 80.176 67.3925 80.176 67.3925 80.1872C67.5049 80.176 67.6285 80.1537 67.7409 80.1313C68.213 80.0643 68.6738 79.9862 69.1234 79.8745C68.5614 79.975 67.9994 80.0755 67.4038 80.176Z" fill="#BD202E"/>
<path d="M67.4038 80.176C67.3925 80.176 67.3925 80.176 67.3925 80.1872C67.5049 80.176 67.6285 80.1537 67.7409 80.1313C68.213 80.0643 68.6738 79.9862 69.1234 79.8745C68.5614 79.975 67.9994 80.0755 67.4038 80.176Z" fill="black"/>
<path d="M59.199 53.2632C60.8849 50.1252 62.5933 47.0654 64.3129 44.0949C66.1 40.9905 67.9207 37.9977 69.7527 35.0942C69.8539 34.9267 69.9775 34.748 70.0787 34.5805C71.8882 31.7329 73.7202 28.9858 75.5523 26.3726L70.0113 15.9649C69.5954 16.4674 69.1795 16.9811 68.7524 17.5171C67.1452 19.5048 65.493 21.6266 63.7846 23.8935C61.8627 26.4397 59.8958 29.1644 57.884 32.0232C56.0407 34.6587 54.1525 37.417 52.2643 40.2869C50.6571 42.7214 49.0611 45.2228 47.4651 47.7913C47.4089 47.8806 47.3527 47.9811 47.2965 48.0816L54.5234 62.2639C56.052 59.1929 57.6255 56.189 59.199 53.2632Z" fill="url(#paint1_linear_3_14)"/>
<path d="M26.2677 133.108C25.3123 135.71 24.3457 138.379 23.3904 141.093C23.3792 141.126 23.3679 141.171 23.3454 141.205C23.2106 141.584 23.0645 141.975 22.9408 142.355C22.2889 144.186 21.727 145.839 20.4344 149.58C22.5587 150.54 24.2671 153.086 25.8855 155.967C25.7169 152.986 24.4806 150.183 22.1091 148.016C32.5954 148.486 41.6656 145.85 46.2737 138.234C46.6896 137.553 47.0717 136.849 47.4201 136.079C45.2959 138.759 42.6547 139.887 37.6981 139.619C45.0037 136.369 48.6565 133.254 51.8597 128.117C52.624 126.888 53.377 125.559 54.1413 124.074C47.7573 130.585 40.4293 132.438 32.5617 131.031L26.7172 131.668C26.5262 132.159 26.3576 132.639 26.1665 133.131L26.2677 133.108Z" fill="url(#paint2_linear_3_14)"/>
<path d="M29.0775 120.154C30.3363 116.916 31.6401 113.633 32.9663 110.327C34.2476 107.156 35.5514 103.962 36.9001 100.768C38.2488 97.5744 39.62 94.3471 41.0137 91.131C42.4299 87.859 43.891 84.5982 45.3858 81.3485C46.8582 78.1324 48.3418 74.9386 49.8591 71.7895C50.3986 70.6504 50.9606 69.5114 51.5113 68.3835C52.4666 66.4292 53.4332 64.4861 54.411 62.5654C54.4672 62.4649 54.5122 62.3532 54.5684 62.2527L47.3415 48.0704C47.2291 48.2603 47.1054 48.4613 46.9818 48.6399C45.2959 51.3759 43.6212 54.1677 41.9803 57.0153C40.3169 59.8964 38.6872 62.8334 37.0912 65.815C35.7537 68.3276 34.4387 70.8514 33.1462 73.4199C32.8877 73.9336 32.6404 74.4584 32.3819 74.9721C30.8084 78.1994 29.3922 81.2927 28.0997 84.2967C26.6386 87.6803 25.3573 90.9188 24.2446 93.9898C23.5028 96.011 22.8397 97.9541 22.2215 99.8302C21.7157 101.427 21.2437 103.035 20.7716 104.632C19.6927 108.384 18.7598 112.136 17.9955 115.911L25.2561 130.205C26.2115 127.659 27.2005 125.068 28.2121 122.455C28.5156 121.707 28.7853 120.97 29.0775 120.255V120.154Z" fill="url(#paint3_linear_3_14)"/>
<path d="M17.8382 116.358C16.9278 120.914 16.2759 125.448 15.95 129.982L15.9162 130.451C13.6459 126.844 7.58787 123.326 7.59911 123.359C11.9487 129.613 15.2419 135.867 15.7252 141.897C13.3986 142.366 10.2179 141.685 6.54261 140.345C10.3752 143.851 13.2525 144.812 14.3877 145.08C10.8585 145.303 7.1945 147.704 3.49675 150.473C8.90288 148.285 13.275 147.413 16.422 148.117C11.4542 162.076 6.48642 177.487 1.47366 193.902C3.00222 193.456 3.9126 192.428 4.41838 191.055C5.30628 188.095 11.1845 168.609 20.3783 143.148C20.648 142.422 20.9065 141.685 21.1763 140.959C21.2437 140.747 21.3224 140.546 21.401 140.356C22.3676 137.676 23.3904 134.94 24.4244 132.148C24.6605 131.511 24.8965 130.875 25.1438 130.238C25.1438 130.227 25.155 130.216 25.155 130.205L17.8831 115.911C17.8606 116.056 17.8269 116.224 17.7932 116.391L17.8382 116.358Z" fill="url(#paint4_linear_3_14)"/>
<path d="M55.6024 63.4253C55.3889 63.8496 55.1866 64.274 54.973 64.6983C54.3436 65.9825 53.7142 67.2891 53.0623 68.6291C52.3655 70.0809 51.6686 71.5549 50.9606 73.0737C50.6009 73.833 50.2413 74.6036 49.8816 75.3853C48.8026 77.7192 47.7124 80.1313 46.5997 82.6216C45.2397 85.6702 43.8348 88.8529 42.4299 92.1583C41.0924 95.3075 39.71 98.5571 38.3388 101.93C37.0238 105.123 35.6975 108.429 34.3488 111.824C33.1462 114.85 31.9323 117.977 30.7185 121.182C30.6623 121.327 30.6061 121.494 30.5499 121.64C29.336 124.822 28.111 128.094 26.8859 131.444C26.8634 131.523 26.8297 131.59 26.8072 131.679L32.6517 131.042C32.5393 131.02 32.4156 131.009 32.3032 130.987C39.2829 130.127 48.6003 124.934 54.5572 118.479C57.322 115.531 59.8284 112.047 62.1437 107.971C63.8634 104.945 65.4931 101.572 67.0441 97.8536C68.3928 94.604 69.6853 91.0751 70.9329 87.2671C69.3257 88.1047 67.4937 88.73 65.4706 89.1544C65.1109 89.2326 64.7513 89.2996 64.3804 89.3666C64.0095 89.4336 63.6386 89.4894 63.2564 89.5341C63.2564 89.5341 63.2677 89.5341 63.2677 89.5229C69.7865 87.0326 73.8889 82.2307 76.8673 76.3457C75.1589 77.507 72.3715 79.0258 69.0335 79.7516C68.5839 79.8521 68.1231 79.9303 67.651 80.0085C67.5386 80.0196 67.415 80.042 67.3026 80.0643H67.3251C69.5954 79.1263 71.4949 78.0654 73.1471 76.8258C73.5067 76.5578 73.8551 76.2898 74.1698 75.9995C74.6756 75.564 75.1477 75.1061 75.6197 74.6371C75.9119 74.3244 76.1929 74.0117 76.4739 73.6879C77.1258 72.9173 77.7327 72.091 78.2947 71.1976C78.4633 70.9184 78.6431 70.6504 78.8005 70.3601C79.0252 69.9469 79.2276 69.5337 79.4299 69.1428C80.3403 67.3338 81.0708 65.7034 81.644 64.2851C81.9362 63.5704 82.1835 62.9227 82.4083 62.2974C82.4982 62.0517 82.5769 61.8172 82.6556 61.5827C82.8916 60.9015 83.0714 60.2985 83.2175 59.7624C83.4423 58.9584 83.5772 58.3219 83.6446 57.864C83.4198 58.0315 83.1726 58.2102 82.8803 58.3777C80.9135 59.5503 77.5417 60.6 74.8217 61.1025C74.788 61.1137 74.7431 61.1137 74.6981 61.1248C74.4171 61.1695 74.1586 61.2142 73.8776 61.2477L74.0125 61.1807L55.6923 63.1796C55.6923 63.2242 55.6586 63.3024 55.6249 63.3694L55.6024 63.4253Z" fill="url(#paint5_linear_3_14)"/>
<path d="M76.2828 26.5736C74.6531 29.0639 72.8773 31.8892 70.9441 35.0942C70.843 35.2505 70.7306 35.4404 70.6407 35.5967C68.9885 38.3662 67.2352 41.4036 65.3694 44.7426C63.7734 47.6237 62.11 50.7059 60.3791 54.0225C58.8731 56.9148 57.322 59.9858 55.7148 63.2354L74.035 61.2365C79.3849 58.7909 81.7676 56.591 84.083 53.386C84.6899 52.5038 85.3193 51.5881 85.9262 50.6277C87.8144 47.7019 89.6577 44.4858 91.3099 41.2808C92.9059 38.1875 94.3108 35.1277 95.3897 32.3582C96.0753 30.605 96.6261 28.9746 97.0082 27.534C97.3454 26.2721 97.6039 25.0661 97.8062 23.9159C90.6917 25.1331 81.9587 26.2945 76.2266 26.5736H76.2828Z" fill="url(#paint6_linear_3_14)"/>
<path d="M64.3691 89.4448C63.9982 89.5118 63.6273 89.5676 63.2452 89.6123C63.6273 89.5788 64.0095 89.5118 64.3691 89.4448Z" fill="#BD202E"/>
<path opacity="0.35" d="M64.3691 89.4448C63.9982 89.5118 63.6273 89.5676 63.2452 89.6123C63.6273 89.5788 64.0095 89.5118 64.3691 89.4448Z" fill="#BD202E"/>
<path d="M64.3691 89.4448C63.9982 89.5118 63.6273 89.5676 63.2452 89.6123C63.6273 89.5788 64.0095 89.5118 64.3691 89.4448Z" fill="url(#paint7_linear_3_14)"/>
<path d="M67.4037 80.176C67.5161 80.1648 67.6398 80.1425 67.7522 80.1202C67.6398 80.1313 67.5274 80.1648 67.4037 80.176Z" fill="#BD202E"/>
<path opacity="0.35" d="M67.4037 80.176C67.5161 80.1648 67.6398 80.1425 67.7522 80.1202C67.6398 80.1313 67.5274 80.1648 67.4037 80.176Z" fill="#BD202E"/>
<path d="M67.4037 80.176C67.5161 80.1648 67.6398 80.1425 67.7522 80.1202C67.6398 80.1313 67.5274 80.1648 67.4037 80.176Z" fill="url(#paint8_linear_3_14)"/>
<path d="M67.4037 80.1757C67.4143 80.1652 67.4143 80.1757 67.4037 80.1757C67.4143 80.1652 67.4143 80.1757 67.4037 80.1757Z" fill="#BD202E"/>
<path opacity="0.35" d="M67.4037 80.1757C67.4143 80.1652 67.4143 80.1757 67.4037 80.1757C67.4143 80.1652 67.4143 80.1757 67.4037 80.1757Z" fill="#BD202E"/>
<path d="M330.056 130.843C328.932 130.643 324.685 129.559 324.038 129.307C322.476 128.709 317.125 125.981 316.479 125.467C315.638 124.78 315.529 124.696 313.997 123.56C312.48 122.438 309.228 119.202 308.079 117.68C307.596 117.037 307.07 116.346 306.905 116.153C306.743 115.957 306.472 115.629 306.304 115.422C305.947 114.987 302.927 109.937 302.927 109.739C302.927 109.679 302.613 108.934 302.231 108.084C301.847 107.234 301.301 105.88 301.022 105.075C300.74 104.269 300.396 103.345 300.256 103.024C299.945 102.303 299.093 98.3201 298.784 96.1559C298.459 93.8533 298.469 87.5582 298.801 85.4829C299.676 80.0475 300.368 77.7252 302.367 73.4757C302.675 72.8185 302.929 72.1267 302.929 71.939C302.929 71.7482 303.062 71.5921 303.224 71.5921C303.386 71.5921 303.519 71.4221 303.519 71.2136C303.519 71.0056 304.339 69.6028 305.339 68.0957C306.96 65.6498 310.66 61.5733 313.097 59.5968C315.618 57.5116 320.607 54.7989 323.59 53.865C324.466 53.5972 325.515 53.2621 325.918 53.1238C327.415 52.6099 330.294 52.2344 334.024 52.0713C338.833 51.8583 343.871 52.4819 347.452 53.7316C350.112 54.6655 352.524 55.7822 352.723 56.1429C352.777 56.264 352.951 56.3628 353.108 56.3628C353.729 56.3628 357.076 58.8828 359.076 60.8593C361.398 63.152 362.92 65.1581 364.148 67.5299C364.904 69.0123 364.914 69.0815 364.385 69.4422C364.083 69.6487 363.699 69.921 363.529 70.045C363.36 70.169 362.873 70.4724 362.45 70.7121C362.028 70.9537 361.073 71.5274 360.322 71.9869C358.8 72.9208 358.218 72.8566 357.771 71.685C356.522 68.4188 350.808 63.0379 346.879 61.5061C342.582 59.7964 339.967 59.2875 335.54 59.2924C330.856 59.2974 327.832 59.8656 324.102 61.4666C322.824 62.0101 320.094 63.6308 319.517 64.1892C319.303 64.3962 319.037 64.5657 318.925 64.5657C318.612 64.5657 315.334 67.7824 313.902 69.502C312.341 71.3648 309.63 76.1726 308.989 78.1985C308.734 79.0039 308.412 79.9279 308.268 80.2491C307.014 83.0854 306.278 89.9339 306.736 94.5292C307.048 97.662 307.706 100.953 308.273 102.238C308.416 102.56 308.622 103.152 308.73 103.557C309.205 105.331 311.982 110.475 313.434 112.253C314.886 114.047 317.537 116.814 318.756 117.788C320.133 118.909 324.624 121.691 325.022 121.691C325.13 121.691 325.559 121.871 325.982 122.087C326.4 122.304 327.926 122.799 329.373 123.184C331.581 123.772 332.636 123.881 335.988 123.851C341.607 123.802 345.138 122.843 349.863 120.106C352.946 118.317 357.223 114.177 358.715 111.508C359.282 110.505 359.879 109.68 360.043 109.675C360.669 109.667 366.359 112.753 366.359 113.099C366.359 113.509 364.643 116.766 364.305 116.993C364.185 117.074 363.935 117.428 363.748 117.779C363.047 119.108 359.819 122.241 356.785 124.548C355.174 125.774 350.917 127.928 347.933 129.01C343.999 130.448 341.617 130.833 336.147 130.917C333.227 130.962 330.527 130.939 330.129 130.866L330.056 130.843ZM94.8248 130.434C94.8248 130.271 94.9526 129.91 95.1092 129.628C95.2654 129.349 95.6712 128.462 96.0094 127.657C96.348 126.851 96.7404 125.927 96.8847 125.606C97.0274 125.284 97.9539 123.111 98.9436 120.774C99.9332 118.436 100.863 116.262 101.012 115.941C101.16 115.619 101.624 114.498 102.042 113.451C102.462 112.403 102.922 111.281 103.071 110.96C103.22 110.639 103.618 109.715 103.961 108.91C104.306 108.104 104.777 107.032 105.011 106.523C105.245 106.014 105.432 105.515 105.432 105.406C105.432 105.24 105.998 103.889 106.909 101.878C107.055 101.556 107.515 100.435 107.938 99.3879C108.361 98.3404 108.823 97.2188 108.967 96.8976C109.115 96.5754 109.579 95.4547 109.997 94.4072C110.417 93.3596 110.882 92.238 111.026 91.9168C111.173 91.5947 111.573 90.6716 111.912 89.8662C112.254 89.0608 112.653 88.1368 112.792 87.8156C112.935 87.4935 113.662 85.7798 114.413 84.0109C115.159 82.237 115.895 80.5273 116.039 80.2061C116.185 79.884 116.85 78.3038 117.511 76.6929C118.178 75.0821 118.839 73.5009 118.983 73.1797C119.128 72.8576 119.71 71.475 120.276 70.1063C123.454 62.4474 124.18 60.7179 124.887 59.1368C125.03 58.8146 125.493 57.6939 125.916 56.6464C126.339 55.5989 126.94 54.1807 127.259 53.4988L127.831 52.2536H134.246L134.903 53.7904C135.723 55.7026 136.623 57.7779 136.971 58.5488C137.976 60.7871 138.443 61.9088 138.443 62.062C138.443 62.2255 139.01 63.5542 140.085 65.9112C140.316 66.4201 140.505 66.9192 140.505 67.0279C140.505 67.1934 140.961 68.283 141.977 70.5559C142.982 72.7943 143.449 73.916 143.449 74.0691C143.449 74.1675 143.724 74.8647 144.061 75.6207C144.398 76.3767 144.872 77.4588 145.11 78.0221C145.353 78.5854 145.667 79.3118 145.812 79.633C145.955 79.9551 146.418 81.0758 146.836 82.1233C147.256 83.1709 147.716 84.2925 147.861 84.6137C148.005 84.9359 148.935 87.109 149.929 89.4462C150.924 91.7834 151.854 93.9575 151.998 94.2787C152.143 94.6009 152.477 95.3905 152.739 96.0378C155.45 102.659 156.524 105.228 156.862 106.019C157.08 106.502 157.802 108.213 158.473 109.824C159.14 111.435 159.806 113.016 159.95 113.337C160.095 113.658 160.492 114.582 160.836 115.388C161.178 116.193 161.577 117.117 161.721 117.438C161.865 117.759 162.328 118.881 162.75 119.929C163.17 120.976 163.635 122.098 163.78 122.419C165.207 125.562 167.022 129.979 167.022 130.325C167.022 130.68 166.301 130.752 162.77 130.752C158.613 130.752 158.513 130.737 158.314 130.095C158.133 129.507 157.449 127.852 156.708 126.216C156.562 125.894 156.096 124.773 155.673 123.726C154.952 121.942 154.37 120.564 153.754 119.185C153.61 118.863 153.147 117.742 152.729 116.695C152.31 115.647 151.844 114.525 151.7 114.204C150.805 112.233 150.223 110.844 150.223 110.691C150.223 110.593 149.976 109.96 149.676 109.283C149.374 108.606 148.945 107.627 148.721 107.104L148.312 106.15H113.45L112.854 107.543C112.526 108.309 111.894 109.856 111.451 110.983C111.007 112.109 110.397 113.587 110.093 114.263C109.79 114.94 109.541 115.573 109.541 115.672C109.541 115.827 108.96 117.213 108.064 119.185C107.918 119.507 107.458 120.628 107.035 121.675C106.612 122.723 106.15 123.845 105.996 124.166C105.844 124.488 105.24 125.94 104.658 127.387C104.071 128.835 103.524 130.189 103.439 130.387C103.245 130.852 94.786 130.92 94.786 130.456L94.8248 130.434ZM146.546 99.6498C146.546 99.3701 146.111 98.3157 144.905 95.6672C144.673 95.1582 144.484 94.6543 144.484 94.5406C144.484 94.428 144.291 93.9229 144.056 93.414C143.82 92.9051 142.887 90.6469 141.987 88.374C141.087 86.1208 140.221 84.0109 140.072 83.6897C139.922 83.3675 139.187 81.5205 138.446 79.5885C137.7 77.6565 136.974 75.8084 136.83 75.4873C136.685 75.1651 136.369 74.4397 136.128 73.8764C135.886 73.3131 135.412 72.231 135.079 71.475C134.743 70.719 134.467 69.9926 134.467 69.8642C134.467 69.7347 134.294 69.3008 134.085 68.8957C133.876 68.493 133.384 67.3046 132.996 66.262C132.606 65.2145 132.116 64.0286 131.907 63.6283C131.697 63.2256 131.525 62.729 131.524 62.5314C131.519 61.9137 130.987 62.1247 130.773 62.8244C130.663 63.1866 130.398 63.8769 130.182 64.3611C129.967 64.8444 129.247 66.56 128.58 68.1659C127.914 69.7767 126.979 72.0151 126.506 73.1565C126.035 74.2831 123.532 80.2719 120.936 86.4978C118.35 92.6743 116.018 98.2579 115.764 98.8508L115.297 99.9478H130.913C141.655 99.9478 146.528 99.8514 146.528 99.639L146.546 99.6498ZM175.44 91.4474V52.2141L191.851 52.2191C209.009 52.224 212.142 52.3811 214.877 53.4C216.822 54.1214 219.83 55.6038 220.397 56.1078C220.608 56.302 221.223 56.7897 221.765 57.1899C225.569 60.0015 229.225 65.59 230.567 70.8277C231.91 75.8677 231.358 82.736 229.235 87.529C226.181 94.3973 221.029 99.1409 214.564 101.117C213.261 101.509 210.675 101.601 198.202 101.695L183.382 101.806V130.761H175.425V91.528L175.44 91.4474ZM210.401 94.3528C215.822 93.6067 220.248 89.4907 222.436 83.0869C223.192 80.888 223.366 74.835 222.741 72.3644C221.89 69.0538 220.334 66.2867 218.021 64.0137C216.872 62.8871 215.539 61.7655 215.052 61.5234C214.568 61.2822 214.107 61.0144 214.023 60.9255C213.942 60.8385 213.277 60.5124 212.551 60.1991C211.312 59.6704 210.303 59.6259 197.283 59.537L183.358 59.4431V94.6246H195.692C202.952 94.6246 209.02 94.4937 210.362 94.3079L210.401 94.3528ZM226.912 130.473C226.841 130.353 227.291 129.07 227.912 127.617C228.533 126.169 230.184 122.231 231.587 118.822C232.984 115.437 234.307 112.299 234.526 111.805C234.745 111.322 235.471 109.606 236.142 108C237.316 105.179 237.953 103.682 238.505 102.417C238.648 102.095 239.31 100.515 239.977 98.9037C240.643 97.2929 241.364 95.5783 241.578 95.099C241.792 94.6197 242.652 92.574 243.488 90.558C244.323 88.5469 245.392 85.9725 245.86 84.8262C246.859 82.4247 250.206 74.5484 250.589 73.7084C250.734 73.3862 251.196 72.2656 251.614 71.218C252.034 70.1705 252.494 69.0489 252.643 68.7277C252.789 68.4055 253.19 67.4825 253.533 66.6771C253.878 65.8716 254.349 64.7994 254.583 64.2904C254.814 63.7815 255.004 63.2825 255.004 63.1738C255.004 63.0082 255.459 61.9187 256.476 59.6457C257.062 58.3412 257.903 56.3252 258.554 54.6551C258.935 53.6866 259.37 52.7329 259.519 52.5304C259.707 52.2769 260.762 52.1642 262.961 52.1642H266.133L266.518 53.1179C267.289 55.0301 270.675 63.0003 271.491 64.9274C271.634 65.2495 272.297 66.8298 272.958 68.4406C273.62 70.0514 274.291 71.6326 274.44 71.9538C274.589 72.276 275.718 74.9778 276.942 77.9821C278.17 80.9617 279.294 83.6645 279.438 83.961C279.584 84.2831 280.393 86.1944 281.233 88.2055C283.228 92.9639 285.297 97.8409 285.63 98.582C285.775 98.9042 286.172 99.8272 286.515 100.633C286.857 101.438 287.256 102.362 287.4 102.683C287.546 103.005 288.012 104.126 288.435 105.174C289.156 106.957 289.738 108.336 290.354 109.715C290.498 110.037 290.961 111.157 291.384 112.205C291.806 113.253 292.344 114.522 292.577 115.031C292.811 115.54 293.001 116.044 293.001 116.153C293.001 116.264 293.399 117.21 293.886 118.253C294.373 119.296 294.771 120.22 294.771 120.309C294.771 120.398 294.962 120.877 295.195 121.386C295.428 121.895 295.966 123.165 296.389 124.212C296.811 125.26 297.279 126.381 297.423 126.703C298.443 128.956 298.9 130.077 298.9 130.349C298.9 130.82 290.794 130.765 290.446 130.292C290.283 130.09 288.989 127.09 287.576 123.621C286.159 120.157 284.826 116.951 284.612 116.456C284.398 115.973 283.876 114.722 283.454 113.675C283.031 112.627 282.563 111.505 282.419 111.184C282.019 110.305 281.086 108.086 280.659 107.009L280.281 106.055L245.22 106.206L243.474 110.451C242.514 112.788 241.599 115.002 241.445 115.377C241.289 115.75 241.161 116.118 241.161 116.197C241.161 116.323 240.52 117.828 239.684 119.676C239.538 119.998 239.072 121.119 238.65 122.166C238.227 123.214 237.705 124.464 237.496 124.948C237.283 125.432 236.67 126.915 236.128 128.244L235.149 130.66H231.096C228.868 130.66 226.988 130.562 226.913 130.441L226.912 130.473ZM278.136 99.7882C278.136 99.6439 277.121 97.1347 276.246 95.1138C276.037 94.6305 275.555 93.3794 275.172 92.3319C274.791 91.2843 274.306 90.0985 274.097 89.6982C273.888 89.2955 273.716 88.8582 273.715 88.7297C273.71 88.5257 273.193 87.2721 272.238 85.1572C272.092 84.8351 271.626 83.7144 271.204 82.6668C270.781 81.6193 270.264 80.3692 270.05 79.8849C269.837 79.4017 269.418 78.3482 269.12 77.5428C268.822 76.7374 268.409 75.7492 268.2 75.344C267.992 74.9413 267.821 74.499 267.82 74.3656C267.82 74.2287 267.626 73.7035 267.392 73.1945C267.158 72.6856 266.477 71.0204 265.88 69.4886C265.284 67.9568 264.567 66.178 264.284 65.5356C264.002 64.8933 263.588 63.9347 263.364 63.4109C262.852 62.225 262.518 62.3189 262.016 63.7939C261.8 64.4313 261.499 65.212 261.345 65.5332C261.192 65.8553 260.788 66.7784 260.445 67.5838C260.103 68.3892 259.704 69.3132 259.554 69.6344C259.315 70.1631 256.108 77.7874 252.144 87.2251C251.334 89.1572 250.553 91.0052 250.409 91.3263C250.265 91.6475 249.603 93.2287 248.942 94.8395C248.28 96.4504 247.544 98.1996 247.306 98.7283C247.067 99.257 246.873 99.7511 246.873 99.8252C246.873 99.9004 253.885 99.9616 262.489 99.9616C271.092 99.9616 278.104 99.8914 278.104 99.8065L278.136 99.7882ZM377.102 130.325C377.023 130.119 376.992 112.487 377.034 91.141L377.11 52.3525H384.768L384.844 69.6961L384.921 87.0398H431.171V52.2042H439.128V130.77H431.171V94.1552H384.921L384.769 130.621L381.004 130.703C378.155 130.766 377.205 130.695 377.095 130.41L377.102 130.325ZM456.672 91.4375V52.2042H508.393V59.5172H464.48V87.0398H502.774V94.0564H464.48V123.358H509.289V130.671H456.573L456.672 91.4375Z" fill="#AA0000"/>
<path d="M92.8355 164.444V140.133H96.9632V150.658H109.098V140.133H113.225V164.444H109.098V154.512H96.9632V164.444H92.8355ZM129.14 144.185V164.74H125.012V144.185H117.602V140.429H136.55V144.185H129.14ZM150.027 144.185V164.74H145.899V144.185H138.489V140.429H157.437V144.185H150.027ZM170.417 140.232C174.13 140.232 176.832 140.938 178.523 142.351C180.224 143.765 181.074 145.939 181.074 148.874C181.074 151.815 180.199 153.973 178.449 155.347C176.725 156.714 174.072 157.397 170.492 157.397H166.155V164.513H162.027V140.202L170.417 140.232ZM170.944 153.672C173.228 153.672 174.778 153.243 175.594 152.387C176.433 151.507 176.852 150.233 176.852 148.562C176.852 146.873 176.327 145.68 175.276 144.985C174.225 144.29 172.58 143.942 170.342 143.942H166.145V153.677L170.944 153.672ZM202.743 143.196C201.552 143.196 200.573 143.44 199.803 143.928C199.034 144.415 198.65 145.156 198.65 146.151C198.65 147.123 199.034 147.876 199.803 148.409C200.573 148.92 202.205 149.477 204.702 150.079C207.222 150.682 209.111 151.527 210.371 152.614C211.654 153.705 212.296 155.315 212.296 157.447C212.296 159.555 211.492 161.268 209.884 162.586C208.276 163.903 206.171 164.564 203.568 164.567C199.755 164.567 196.357 163.258 193.373 160.639L195.959 157.546C198.432 159.677 201.002 160.743 203.668 160.743C204.997 160.743 206.046 160.464 206.816 159.908C207.608 159.328 208.004 158.575 208.004 157.649C208.004 156.701 207.631 155.971 206.885 155.46C206.162 154.927 204.903 154.452 203.106 154.037C201.309 153.596 199.944 153.202 199.013 152.856C198.081 152.484 197.254 152.01 196.531 151.433C195.085 150.343 194.363 148.679 194.363 146.443C194.363 144.196 195.178 142.467 196.81 141.254C198.464 140.026 200.503 139.411 202.927 139.411C204.488 139.411 206.038 139.667 207.576 140.177C209.115 140.688 210.444 141.406 211.565 142.332L209.362 145.425C208.639 144.776 207.659 144.242 206.423 143.824C205.186 143.406 203.961 143.196 202.747 143.196H202.743ZM235.068 140.232V144.091H222.038V150.514H233.775V154.166H222.038V160.688H235.516V164.547H217.911V140.237L235.068 140.232ZM259.934 148.138C259.934 152.156 258.177 154.676 254.662 155.698L261.078 164.542H255.806L249.988 156.389H244.567V164.542H240.439V140.232H249.54C253.286 140.232 255.955 140.857 257.547 142.109C259.155 143.361 259.959 145.37 259.959 148.138H259.934ZM249.689 152.654C252.02 152.654 253.606 152.295 254.449 151.577C255.291 150.859 255.71 149.712 255.707 148.138C255.707 146.54 255.276 145.451 254.414 144.871C253.552 144.269 252.013 143.967 249.799 143.967H244.527V152.664L249.689 152.654ZM276.843 164.444H272.228L262.381 140.133H266.996L274.505 158.267L282.015 140.133H286.63L276.843 164.444ZM307.179 140.232V144.091H294.149V150.514H305.886V154.166H294.149V160.688H307.627V164.547H290.022V140.237L307.179 140.232ZM332.542 148.138C332.542 152.156 330.785 154.676 327.271 155.698L333.686 164.542H328.414L322.596 156.389H317.175V164.542H313.047V140.232H322.148C325.895 140.232 328.564 140.857 330.155 142.109C331.763 143.361 332.567 145.37 332.567 148.138H332.542ZM322.297 152.654C324.628 152.654 326.215 152.295 327.057 151.577C327.899 150.859 328.318 149.712 328.315 148.138C328.315 146.54 327.884 145.451 327.022 144.871C326.16 144.269 324.622 143.967 322.407 143.967H317.135V152.664L322.297 152.654ZM356.413 140.232C360.127 140.232 362.829 140.938 364.52 142.351C366.22 143.765 367.071 145.939 367.071 148.874C367.071 151.815 366.196 153.973 364.445 155.347C362.721 156.714 360.069 157.397 356.488 157.397H352.151V164.513H348.024V140.202L356.413 140.232ZM356.941 153.672C359.225 153.672 360.775 153.243 361.59 152.387C362.429 151.507 362.849 150.233 362.849 148.562C362.849 146.873 362.323 145.68 361.272 144.985C360.221 144.29 358.577 143.942 356.339 143.942H352.141V153.677L356.941 153.672ZM391.723 148.138C391.723 152.156 389.966 154.676 386.451 155.698L392.867 164.542H387.595L381.777 156.389H376.356V164.542H372.228V140.232H381.329C385.075 140.232 387.744 140.857 389.336 142.109C390.944 143.361 391.748 145.37 391.748 148.138H391.723ZM381.478 152.654C383.809 152.654 385.395 152.295 386.237 151.577C387.08 150.859 387.499 149.712 387.496 148.138C387.496 146.54 387.065 145.451 386.203 144.871C385.341 144.269 383.802 143.967 381.588 143.967H376.316V152.664L381.478 152.654ZM415.097 146.161C413.442 144.448 411.403 143.592 408.98 143.592C406.556 143.592 404.501 144.448 402.813 146.161C401.159 147.874 400.331 149.966 400.331 152.436C400.331 154.871 401.159 156.946 402.813 158.662C404.491 160.375 406.546 161.232 408.98 161.232C411.413 161.232 413.452 160.375 415.097 158.662C416.774 156.949 417.613 154.874 417.613 152.436C417.613 149.979 416.774 147.887 415.097 146.161ZM418.14 161.38C415.667 163.765 412.617 164.957 408.99 164.957C405.363 164.957 402.312 163.765 399.839 161.38C397.366 158.972 396.129 155.991 396.129 152.436C396.129 148.846 397.366 145.865 399.839 143.493C402.312 141.085 405.363 139.881 408.99 139.881C412.617 139.881 415.667 141.085 418.14 143.493C420.614 145.878 421.85 148.859 421.85 152.436C421.85 155.994 420.614 158.975 418.14 161.38ZM427.032 143.69V140.004H438.918V156.014C438.918 158.84 438.195 160.965 436.75 162.388C435.304 163.801 433.448 164.508 431.18 164.508C428.335 164.508 425.915 163.511 423.919 161.518L426.262 158.287C427.846 159.792 429.396 160.545 430.911 160.545C431.986 160.545 432.896 160.186 433.642 159.468C434.411 158.75 434.795 157.672 434.795 156.236V143.685L427.032 143.69ZM462.342 140.232V144.091H449.312V150.514H461.049V154.166H449.312V160.688H462.789V164.547H445.184V140.237L462.342 140.232ZM479.251 160.985C480.673 160.985 481.898 160.752 482.926 160.288C483.95 159.8 485.023 159.036 486.143 157.995L488.804 160.708C486.215 163.557 483.065 164.982 479.355 164.982C475.675 164.982 472.608 163.801 470.155 161.439C467.731 159.077 466.519 156.096 466.519 152.496C466.519 148.895 467.756 145.881 470.229 143.453C472.726 141.045 475.859 139.841 479.629 139.841C483.441 139.841 486.608 141.231 489.127 144.012L486.501 146.863C485.334 145.749 484.227 144.974 483.179 144.535C482.155 144.094 480.943 143.873 479.544 143.873C477.071 143.873 474.999 144.672 473.328 146.27C471.65 147.844 470.811 149.87 470.811 152.347C470.811 154.805 471.638 156.864 473.293 158.524C474.97 160.168 476.96 160.99 479.261 160.99L479.251 160.985ZM503.122 144.185V164.74H498.994V144.185H491.584V140.429H510.532V144.185H503.122Z" fill="black"/>
<defs>
<linearGradient id="paint0_linear_3_14" x1="74.9696" y1="17.6011" x2="115.556" y2="6.11918" gradientUnits="userSpaceOnUse">
<stop stop-color="#F59723"/>
<stop offset="0.312" stop-color="#F69822"/>
<stop offset="0.838" stop-color="#E87726"/>
</linearGradient>
<linearGradient id="paint1_linear_3_14" x1="-13.982" y1="198.964" x2="67.7776" y2="22.2523" gradientUnits="userSpaceOnUse">
<stop offset="0.323" stop-color="#9C2063"/>
<stop offset="0.63" stop-color="#C82037"/>
<stop offset="0.751" stop-color="#CC2135"/>
<stop offset="1" stop-color="#E87726"/>
</linearGradient>
<linearGradient id="paint2_linear_3_14" x1="13.8253" y1="185.867" x2="62.5239" y2="80.6119" gradientUnits="userSpaceOnUse">
<stop stop-color="#282661"/>
<stop offset="0.0955" stop-color="#662E8C"/>
<stop offset="0.788" stop-color="#9E2064"/>
<stop offset="0.949" stop-color="#CC2032"/>
</linearGradient>
<linearGradient id="paint3_linear_3_14" x1="-11.0241" y1="188.301" x2="70.7356" y2="11.5894" gradientUnits="userSpaceOnUse">
<stop offset="0.323" stop-color="#9C2063"/>
<stop offset="0.63" stop-color="#C82037"/>
<stop offset="0.751" stop-color="#CC2135"/>
<stop offset="1" stop-color="#E87726"/>
</linearGradient>
<linearGradient id="paint4_linear_3_14" x1="-2.56621" y1="176.51" x2="40.389" y2="83.6685" gradientUnits="userSpaceOnUse">
<stop stop-color="#282661"/>
<stop offset="0.0955" stop-color="#662E8C"/>
<stop offset="0.788" stop-color="#9E2064"/>
<stop offset="0.949" stop-color="#CC2032"/>
</linearGradient>
<linearGradient id="paint5_linear_3_14" x1="7.4121" y1="196.831" x2="89.1718" y2="20.1193" gradientUnits="userSpaceOnUse">
<stop offset="0.323" stop-color="#9C2063"/>
<stop offset="0.63" stop-color="#C82037"/>
<stop offset="0.751" stop-color="#CC2135"/>
<stop offset="1" stop-color="#E87726"/>
</linearGradient>
<linearGradient id="paint6_linear_3_14" x1="1.34756" y1="207.323" x2="83.1072" y2="30.6113" gradientUnits="userSpaceOnUse">
<stop offset="0.323" stop-color="#9C2063"/>
<stop offset="0.63" stop-color="#C82037"/>
<stop offset="0.751" stop-color="#CC2135"/>
<stop offset="1" stop-color="#E87726"/>
</linearGradient>
<linearGradient id="paint7_linear_3_14" x1="12.8591" y1="199.351" x2="94.6188" y2="22.6395" gradientUnits="userSpaceOnUse">
<stop offset="0.323" stop-color="#9C2063"/>
<stop offset="0.63" stop-color="#C82037"/>
<stop offset="0.751" stop-color="#CC2135"/>
<stop offset="1" stop-color="#E87726"/>
</linearGradient>
<linearGradient id="paint8_linear_3_14" x1="12.2311" y1="199.06" x2="93.9912" y2="22.3492" gradientUnits="userSpaceOnUse">
<stop offset="0.323" stop-color="#9C2063"/>
<stop offset="0.63" stop-color="#C82037"/>
<stop offset="0.751" stop-color="#CC2135"/>
<stop offset="1" stop-color="#E87726"/>
</linearGradient>
</defs>
</svg>
