<svg width="480" height="150" viewBox="0 0 480 150" fill="none" xmlns="http://www.w3.org/2000/svg">
<path d="M22.5 22.5H82.5V82.5H22.5V22.5Z" fill="black"/>
<path d="M29.98 71.16H52.48V74.91H29.98V71.16ZM30 29.94H38.8C45.9 29.94 50.8 34.81 50.8 41.16V41.23C50.8 47.58 45.9 52.51 38.8 52.51H30V29.94ZM35 34.42V48H38.83C39.7326 48.0547 40.6366 47.9184 41.4829 47.6C42.3292 47.2816 43.0989 46.7883 43.7416 46.1522C44.3843 45.5161 44.8855 44.7516 45.2127 43.9086C45.5398 43.0656 45.6854 42.1631 45.64 41.26V41.2C45.6859 40.2936 45.5412 39.3876 45.2152 38.5406C44.8892 37.6936 44.3892 36.9243 43.7474 36.2826C43.1057 35.6408 42.3365 35.1408 41.4894 34.8148C40.6424 34.4888 39.7364 34.3441 38.83 34.39L35 34.42ZM53.16 41.29V41.23C53.1477 39.6792 53.4468 38.1417 54.0395 36.7086C54.6322 35.2754 55.5065 33.9758 56.6105 32.8867C57.7146 31.7975 59.026 30.941 60.467 30.3679C61.9081 29.7948 63.4495 29.5166 65 29.55C68.2492 29.3776 71.4356 30.4912 73.87 32.65L70.74 36.42C69.1518 34.9093 67.0315 34.0863 64.84 34.13C63.0556 34.208 61.3741 34.987 60.1608 36.2977C58.9475 37.6084 58.3004 39.3449 58.36 41.13V41.2C58.36 45.32 61.2 48.36 65.2 48.36C66.8567 48.4003 68.485 47.9251 69.86 47V43.81H64.86V39.52H74.67V49.32C71.9861 51.6442 68.5504 52.9161 65 52.9C58 52.9 53.16 48 53.16 41.29Z" fill="white"/>
<path d="M105.06 22.51H128.41C147.23 22.51 160.23 35.42 160.23 52.27V52.44C160.23 69.29 147.23 82.38 128.41 82.38H105.06V22.51ZM118.24 34.4V70.49H128.41C139.19 70.49 146.46 63.22 146.46 52.61V52.44C146.46 41.84 139.19 34.44 128.41 34.44L118.24 34.4ZM161.79 69.21V69C161.79 59 169.4 54.37 180.26 54.37C184.075 54.3363 187.865 54.9727 191.46 56.25V55.48C191.46 50.09 188.13 47.1 181.63 47.1C177.297 47.12 173.009 47.976 169 49.62L165.75 39.7C171.314 37.1402 177.386 35.8751 183.51 36C190.61 36 195.74 37.88 198.99 41.13C202.41 44.55 203.99 49.6 203.99 55.76V82.36H191.38V77.36C188.21 80.87 183.85 83.17 177.52 83.17C168.88 83.23 161.79 78.27 161.79 69.21ZM191.64 66.21V63.9C189.024 62.753 186.196 62.1703 183.34 62.19C177.78 62.19 174.34 64.42 174.34 68.52V68.69C174.34 72.2 177.25 74.25 181.44 74.25C187.53 74.25 191.64 70.92 191.64 66.21ZM213 69.38V47.65H207.5V36.53H213V24.82H226V36.53H236.78V47.65H226V67.24C226 70.24 227.29 71.69 230.2 71.69C232.44 71.7 234.647 71.14 236.61 70.06V80.5C233.506 82.3278 229.951 83.2461 226.35 83.15C218.36 83.15 213 80 213 69.38ZM241.17 69.21V69C241.17 59 248.79 54.37 259.65 54.37C263.465 54.3363 267.255 54.9727 270.85 56.25V55.48C270.85 50.09 267.52 47.1 261.02 47.1C256.68 47.104 252.381 47.946 248.36 49.58L245.11 39.66C250.686 37.1076 256.769 35.856 262.9 36C270 36 275.13 37.88 278.38 41.13C281.8 44.55 283.38 49.6 283.38 55.76V82.36H270.77V77.36C267.6 80.87 263.24 83.17 256.91 83.17C248.27 83.23 241.17 78.27 241.17 69.21ZM271.02 66.21V63.9C268.408 62.7518 265.583 62.169 262.73 62.19C257.17 62.19 253.73 64.42 253.73 68.52V68.69C253.73 72.2 256.63 74.25 260.83 74.25C266.92 74.25 271 70.92 271 66.21H271.02ZM288.64 52.61V52.44C288.64 35.44 301.9 21.44 320.03 21.44C330.8 21.44 337.31 24.35 343.55 29.65L335.25 39.65C330.63 35.8 326.53 33.58 319.6 33.58C310.02 33.58 302.41 42.04 302.41 52.22V52.39C302.41 63.39 309.94 71.39 320.54 71.39C324.948 71.525 329.286 70.2689 332.94 67.8V59.29H319.69V47.91H345.69V73.91C338.592 80.064 329.505 83.4388 320.11 83.41C301.47 83.41 288.64 70.32 288.64 52.61ZM352.64 36.53H365.64V45.77C368.29 39.44 372.57 35.34 380.26 35.68V49.28H379.58C370.94 49.28 365.64 54.5 365.64 65.44V82.38H352.64V36.53ZM386.44 19.94H400.13V31.49H386.44V19.94ZM386.79 36.53H399.79V82.38H386.79V36.53ZM407.24 36.53H420.24V43.12C423.4 38.84 427.76 35.68 434.52 35.68C445.21 35.68 455.39 44.06 455.39 59.37V59.54C455.39 74.85 445.39 83.23 434.52 83.23C431.771 83.287 429.046 82.6978 426.566 81.5098C424.086 80.3218 421.919 78.5681 420.24 76.39V96.06H407.24V36.53ZM442.4 59.53V59.36C442.4 51.75 437.27 46.7 431.19 46.7C425.11 46.7 420.07 51.7 420.07 59.36V59.53C420.07 67.15 425.12 72.19 431.19 72.19C437.26 72.19 442.4 67.24 442.4 59.54V59.53ZM107.51 124.41V127.48H105.12V104.85H107.51V114.67C108.139 113.597 109.035 112.705 110.111 112.082C111.187 111.458 112.406 111.123 113.65 111.11C117.49 111.11 121.3 114.11 121.3 119.42V119.48C121.3 124.72 117.52 127.82 113.65 127.82C112.421 127.821 111.212 127.508 110.138 126.912C109.063 126.315 108.159 125.454 107.51 124.41ZM118.86 119.51V119.45C118.86 115.67 116.25 113.25 113.21 113.25C111.624 113.302 110.123 113.981 109.036 115.137C107.949 116.294 107.364 117.834 107.41 119.42V119.48C107.383 120.268 107.512 121.054 107.788 121.792C108.065 122.531 108.485 123.207 109.024 123.783C109.563 124.359 110.21 124.823 110.928 125.148C111.646 125.474 112.422 125.655 113.21 125.68C116.31 125.68 118.86 123.39 118.86 119.51ZM136.52 111.45H139.06L132.34 128C130.97 131.32 129.42 132.52 127 132.52C125.815 132.535 124.644 132.261 123.59 131.72L124.4 129.83C125.171 130.243 126.036 130.446 126.91 130.42C128.34 130.42 129.23 129.67 130.2 127.42L122.91 111.42H125.54L131.37 124.78L136.52 111.45ZM150.44 124L152.2 122.48C153.54 124.48 154.9 125.58 157.2 125.58C159.65 125.58 161.44 123.81 161.44 120.37V105.78H163.92V120.29C163.981 121.325 163.836 122.362 163.493 123.341C163.149 124.319 162.615 125.22 161.92 125.99C161.281 126.59 160.53 127.058 159.709 127.366C158.889 127.675 158.016 127.819 157.14 127.79C155.783 127.831 154.442 127.499 153.261 126.831C152.079 126.163 151.104 125.184 150.44 124ZM168.32 119.51V119.45C168.32 114.83 171.57 111.11 176.01 111.11C180.75 111.11 183.48 114.89 183.48 119.57C183.496 119.83 183.496 120.09 183.48 120.35H170.74C170.784 121.813 171.398 123.2 172.453 124.215C173.507 125.23 174.917 125.792 176.38 125.78C177.336 125.789 178.282 125.591 179.154 125.199C180.026 124.807 180.802 124.231 181.43 123.51L182.92 124.84C182.121 125.809 181.111 126.583 179.967 127.103C178.823 127.623 177.576 127.875 176.32 127.84C175.241 127.841 174.173 127.624 173.18 127.202C172.187 126.779 171.29 126.16 170.543 125.381C169.796 124.603 169.214 123.682 168.832 122.673C168.45 121.664 168.276 120.588 168.32 119.51ZM181.06 118.58C180.81 115.67 179.14 113.12 175.95 113.12C173.15 113.12 171.05 115.45 170.74 118.58H181.06ZM187.91 123.23V113.56H185.68V111.45H187.91V106.61H190.3V111.45H195.38V113.56H190.3V122.92C190.249 123.285 190.284 123.657 190.403 124.006C190.521 124.356 190.719 124.672 190.981 124.932C191.243 125.191 191.562 125.385 191.913 125.5C192.263 125.614 192.635 125.645 193 125.59C193.807 125.591 194.602 125.399 195.32 125.03V127.03C194.431 127.491 193.441 127.724 192.44 127.71C189.86 127.76 187.91 126.49 187.91 123.23ZM199.3 105.78H208.54C210.611 105.659 212.647 106.348 214.22 107.7C214.671 108.156 215.027 108.699 215.266 109.295C215.504 109.89 215.621 110.528 215.61 111.17V111.23C215.625 112.317 215.303 113.382 214.686 114.278C214.07 115.174 213.191 115.856 212.17 116.23C214.74 117 216.82 118.49 216.82 121.47V121.53C216.82 125.25 213.69 127.45 208.94 127.45H199.3V105.78ZM213.13 111.51C213.13 109.37 211.43 107.98 208.32 107.98H201.72V115.45H208.14C211.08 115.45 213.14 114.12 213.14 111.57L213.13 111.51ZM208.57 117.62H201.72V125.28H209C212.28 125.28 214.33 123.82 214.33 121.4V121.34C214.34 119 212.36 117.62 208.57 117.62ZM221.35 111.45H223.74V115.64C224.234 114.31 225.128 113.166 226.3 112.366C227.471 111.565 228.861 111.147 230.28 111.17V113.75H230.09C226.59 113.75 223.74 116.26 223.74 121.09V127.48H221.35V111.45ZM232.19 122.83V122.77C232.19 119.39 234.98 117.59 239.04 117.59C240.708 117.576 242.368 117.805 243.97 118.27V117.71C243.97 114.83 242.2 113.34 239.19 113.34C237.501 113.36 235.84 113.763 234.33 114.52L233.61 112.52C235.425 111.634 237.42 111.175 239.44 111.18C240.378 111.112 241.32 111.234 242.21 111.538C243.1 111.842 243.92 112.322 244.62 112.95C245.195 113.579 245.637 114.318 245.918 115.122C246.2 115.927 246.316 116.78 246.26 117.63V127.43H244V125.01C243.323 125.899 242.444 126.614 241.435 127.094C240.426 127.574 239.317 127.806 238.2 127.77C235.19 127.82 232.19 126.12 232.19 122.83ZM244 121.59V120C242.47 119.551 240.884 119.322 239.29 119.32C236.29 119.32 234.6 120.62 234.6 122.63V122.7C234.6 124.7 236.46 125.89 238.6 125.89C241.58 125.93 244 124.13 244 121.59ZM251.08 105.31H253.81V108H251.08V105.31ZM251.24 111.45H253.62V127.45H251.24V111.45ZM258.78 111.45H261.17V114.24C261.709 113.264 262.507 112.456 263.475 111.904C264.444 111.351 265.546 111.077 266.66 111.11C270.54 111.11 272.8 113.71 272.8 117.53V127.53H270.41V118.17C270.41 115.17 268.8 113.33 265.98 113.33C265.328 113.316 264.681 113.437 264.078 113.686C263.476 113.935 262.931 114.307 262.48 114.777C262.028 115.247 261.679 115.805 261.453 116.416C261.228 117.028 261.131 117.679 261.17 118.33V127.51H258.78V111.45ZM276.25 125.43L277.46 123.73C279.047 124.975 280.993 125.676 283.01 125.73C284.94 125.73 286.33 124.73 286.33 123.18V123.12C286.33 121.51 284.44 120.89 282.33 120.3C279.82 119.59 277.03 118.72 277.03 115.77V115.71C277.03 112.95 279.32 111.12 282.49 111.12C284.538 111.157 286.534 111.77 288.25 112.89L287.17 114.69C285.766 113.741 284.124 113.204 282.43 113.14C280.53 113.14 279.32 114.14 279.32 115.46V115.52C279.32 117.04 281.32 117.63 283.45 118.28C285.93 119.03 288.6 119.99 288.6 122.87V123C288.6 126 286.08 127.81 282.89 127.81C280.475 127.767 278.142 126.931 276.25 125.43Z" fill="black"/>
</svg>
