<svg width="273" height="115" viewBox="0 0 273 115" fill="none" xmlns="http://www.w3.org/2000/svg">
<g clip-path="url(#clip0_3_704)">
<path d="M163.591 38.806C157.606 38.806 153.149 41.7449 153.149 48.8176C153.149 54.1468 156.086 57.846 163.269 57.846C169.356 57.846 173.491 54.2591 173.491 48.5975C173.491 42.1815 169.791 38.806 163.591 38.806ZM151.625 88.7459C150.209 90.4841 148.798 92.3309 148.798 94.5105C148.798 98.8588 154.343 100.167 161.96 100.167C168.27 100.167 176.865 99.7254 176.865 93.8588C176.865 90.3719 172.73 90.156 167.505 89.8284L151.625 88.7459ZM183.826 39.1346C185.781 41.6375 187.851 45.1194 187.851 50.1234C187.851 62.1985 178.386 69.2689 164.682 69.2689C161.197 69.2689 158.042 68.8348 156.086 68.2918L152.495 74.0565L163.155 74.7078C181.977 75.907 193.07 76.452 193.07 90.9154C193.07 103.429 182.085 110.497 163.155 110.497C143.465 110.497 135.959 105.492 135.959 96.8993C135.959 92.0018 138.135 89.3968 141.943 85.8015C138.351 84.2835 137.156 81.5653 137.156 78.6268C137.156 76.2318 138.351 74.0565 140.312 71.9881C142.27 69.9231 144.445 67.8534 147.056 65.4608C141.726 62.8504 137.7 57.1931 137.7 49.1414C137.7 36.6321 145.969 28.0409 162.61 28.0409C167.289 28.0409 170.119 28.4715 172.621 29.1283H193.836V38.3729L183.826 39.1346Z" fill="#F03C2E"/>
<path d="M212.975 19.3665C206.773 19.3665 203.184 15.7732 203.184 9.57012C203.184 3.37474 206.773 -0.000254243 212.975 -0.000254243C219.285 -0.000254243 222.875 3.37474 222.875 9.57012C222.875 15.7732 219.285 19.3665 212.975 19.3665ZM198.939 84.743V76.1531L204.489 75.3939C206.013 75.1731 206.229 74.8494 206.229 73.2136V41.2302C206.229 40.0359 205.904 39.2712 204.812 38.9475L198.939 36.8787L200.135 28.0701H222.656V73.2136C222.656 74.9574 222.761 75.1731 224.398 75.3939L229.946 76.1531V84.743H198.939Z" fill="#F03C2E"/>
<path d="M272.966 80.5256C268.286 82.8074 261.434 84.8748 255.23 84.8748C242.285 84.8748 237.391 79.658 237.391 67.3596V38.8591C237.391 38.2078 237.391 37.7707 236.518 37.7707H228.904V28.0891C238.48 26.9984 242.285 22.2107 243.481 10.3534H253.818V25.8065C253.818 26.5652 253.818 26.8939 254.689 26.8939H270.026V37.7707H253.818V63.7694C253.818 70.1888 255.342 72.6888 261.214 72.6888C264.264 72.6888 267.415 71.9295 270.026 70.9495L272.966 80.5256Z" fill="#F03C2E"/>
<path d="M111.777 51.9769L62.0345 2.2381C59.1723 -0.626645 54.5263 -0.626645 51.66 2.2381L41.3314 12.5676L54.4335 25.6702C57.4794 24.6419 60.9706 25.3314 63.3974 27.7586C65.8368 30.201 66.5214 33.722 65.4671 36.7781L78.0951 49.4056C81.1503 48.3529 84.6751 49.033 87.1146 51.4769C90.5253 54.8865 90.5253 60.4114 87.1146 63.8221C83.7035 67.2337 78.1786 67.2337 74.766 63.8221C72.2015 61.2556 71.5673 57.4876 72.8661 54.3279L61.0893 42.5506L61.0883 73.5417C61.9198 73.9534 62.7045 74.5027 63.3974 75.1926C66.807 78.6019 66.807 84.1257 63.3974 87.5404C59.9868 90.9495 54.4594 90.9495 51.0521 87.5404C47.642 84.1257 47.642 78.6019 51.0521 75.1926C51.8949 74.3514 52.87 73.7146 53.9105 73.2879V42.0091C52.87 41.5837 51.8964 40.9515 51.0521 40.1042C48.4691 37.5232 47.847 33.7322 49.1718 30.5604L36.2563 17.6424L2.14978 51.7469C-0.715942 54.614 -0.715942 59.26 2.14978 62.1252L51.8915 111.864C54.7553 114.729 59.3998 114.729 62.2675 111.864L111.777 62.3557C114.642 59.4895 114.642 54.8421 111.777 51.9769Z" fill="#F03C2E"/>
</g>
<defs>
<clipPath id="clip0_3_704">
<rect width="272.962" height="114.012" fill="white"/>
</clipPath>
</defs>
</svg>
