<svg width="120" height="60" viewBox="0 0 120 60" fill="none" xmlns="http://www.w3.org/2000/svg">
<g clip-path="url(#clip0_3_713)">
<mask id="mask0_3_713" style="mask-type:luminance" maskUnits="userSpaceOnUse" x="-1" y="9" width="44" height="44">
<path d="M-0.187851 9.95725H42.705V52.8501H-0.187851V9.95725Z" fill="white"/>
</mask>
<g mask="url(#mask0_3_713)">
<path d="M31.2951 41.9291C31.2951 43.8613 26.8196 45.4275 21.2987 45.4275C15.7778 45.4275 11.3023 43.8613 11.3023 41.9291C11.3023 39.9969 15.7776 38.4302 21.2987 38.4302C26.8198 38.4302 31.2951 39.9989 31.2951 41.9291" fill="#A0DCF2"/>
</g>
<mask id="mask1_3_713" style="mask-type:luminance" maskUnits="userSpaceOnUse" x="15" y="40" width="12" height="11">
<path d="M23.9839 41.7972C24.052 41.576 24.0633 41.2349 23.3806 41.3894C23.3806 41.3894 21.5149 41.6559 21.426 43.8325L21.3835 48.0026H20.9351L20.8928 43.8325C20.8038 41.6561 18.9384 41.3894 18.9384 41.3894C18.2577 41.2349 18.2666 41.5756 18.3347 41.7969C17.6655 40.6574 15.8735 40.8048 15.8735 40.8048C15.2514 41.0266 15.8291 41.4263 15.8291 41.4263C16.8061 41.7814 16.8954 42.8477 16.8954 42.8477V45.8602L16.9987 48.1891C17.2205 49.2264 17.768 49.8397 18.3049 50.2007L24.0246 50.1941C24.7164 49.7245 25.4239 48.8347 25.4239 47.1545V42.8477C25.4239 42.8477 25.5127 41.7814 26.4903 41.4263C26.4903 41.4263 27.0674 41.0264 26.4456 40.8048C26.4456 40.8048 26.3698 40.7988 26.2437 40.7984C25.7562 40.7984 24.5161 40.8917 23.9843 41.7972M18.5837 46.0905V42.8036C18.5837 42.4825 18.5271 42.2125 18.4302 41.9855C19.0736 42.4871 19.1167 43.7439 19.1167 43.7439V47.8465C18.4763 47.3934 18.5837 46.0899 18.5837 46.0899M23.2046 43.7433C23.2046 43.7433 23.2477 42.4863 23.8909 41.9849C23.7942 42.2119 23.7376 42.4819 23.7376 42.803V46.0901C23.7376 46.0901 23.8449 47.3014 23.2046 47.8003V43.7433Z" fill="white"/>
</mask>
<g mask="url(#mask1_3_713)">
<path d="M31.2951 41.9291C31.2951 43.8613 26.8196 45.4275 21.2987 45.4275C15.7778 45.4275 11.3023 43.8613 11.3023 41.9291C11.3023 39.9969 15.7776 38.4302 21.2987 38.4302C26.8198 38.4302 31.2951 39.9989 31.2951 41.9291" fill="#82BDE7"/>
</g>
<mask id="mask2_3_713" style="mask-type:luminance" maskUnits="userSpaceOnUse" x="-1" y="9" width="44" height="44">
<path d="M-0.187851 9.95725H42.705V52.8501H-0.187851V9.95725Z" fill="white"/>
</mask>
<g mask="url(#mask2_3_713)">
<path d="M9.88006 31.642L9.59152 32.6474C9.59152 32.6474 9.51646 33.0108 9.85881 33.0751C10.2163 33.0682 10.1871 32.7336 10.162 32.6251L9.88006 31.642Z" fill="#A0DCF2"/>
<path d="M38.9404 27.4268L38.9668 27.2961C36.0342 26.7097 33.0249 26.7037 31.2024 26.7794C31.5014 25.7019 31.5916 24.462 31.5916 23.0793C31.5916 21.0963 30.8465 19.5098 29.637 18.3027C29.8485 17.6206 30.1308 16.1052 29.355 14.1657C29.355 14.1657 27.9848 13.7312 24.8918 15.8026C23.6792 15.4996 22.3889 15.3498 21.0965 15.3498C19.6747 15.3498 18.238 15.5309 16.898 15.8985C13.7037 13.7191 12.2938 14.1655 12.2938 14.1655C11.3732 16.469 11.9423 18.1708 12.1151 18.5942C11.0332 19.7618 10.3727 21.252 10.3727 23.0791C10.3727 24.4586 10.53 25.6959 10.9137 26.7714C9.0774 26.7047 6.17757 26.7303 3.34783 27.2957L3.37404 27.4264C6.21867 26.8574 9.13638 26.8376 10.9597 26.9067C11.0441 27.1291 11.1384 27.3436 11.2437 27.554C9.43901 27.6122 6.35788 27.842 3.40482 28.6752L3.44096 28.8033C6.41725 27.9639 9.52539 27.7397 11.3126 27.6853C12.3909 29.6949 14.5167 30.9932 18.2986 31.3987C17.7616 31.7593 17.2143 32.3725 16.9919 33.4103C16.2606 33.7598 13.9451 34.6141 12.5557 32.2248C12.5557 32.2248 11.7781 30.803 10.2895 30.6918C10.2895 30.6918 8.84586 30.6719 10.1896 31.5913C10.1896 31.5913 11.1561 32.0467 11.8225 33.7558C11.8225 33.7558 12.6923 36.6739 16.8887 35.7376V38.7521C16.8887 38.7521 16.7999 39.8184 15.8223 40.1735C15.8223 40.1735 15.2448 40.5734 15.8668 40.795C15.8668 40.795 18.5764 41.0174 18.5764 38.7963V35.5095C18.5764 35.5095 18.4691 34.2058 19.1092 33.7529V39.1556C19.1092 39.1556 19.0651 40.4437 18.3987 40.9324C18.3987 40.9324 17.9544 41.7317 18.9316 41.5099C18.9316 41.5099 20.7971 41.2434 20.886 39.0668L20.9285 33.6033H21.3767L21.4194 39.0668C21.5082 41.2432 23.3738 41.5099 23.3738 41.5099C24.3508 41.7317 23.9066 40.9324 23.9066 40.9324C23.2404 40.4439 23.1961 39.1556 23.1961 39.1556V33.8033C23.8361 34.2997 23.7291 35.5134 23.7291 35.5134V38.8003C23.7291 41.0212 26.4385 40.799 26.4385 40.799C27.06 40.5772 26.4832 40.1774 26.4832 40.1774C25.5058 39.82 25.4168 38.756 25.4168 38.756V34.4475C25.4168 32.7675 24.7093 31.8775 24.0174 31.4078C28.0486 31.0079 29.9859 29.7056 30.8779 27.6821C32.6444 27.7306 35.8237 27.9458 38.8647 28.8041L38.9008 28.676C35.8771 27.8231 32.7191 27.6025 30.9345 27.5505C31.0191 27.3459 31.0928 27.1335 31.1583 26.915C32.9663 26.8356 35.9893 26.8386 38.9334 27.4274" fill="#292929"/>
<path d="M27.6484 22.984C28.5172 23.7709 29.0254 24.7215 29.0254 25.7452C29.0254 30.526 25.4613 30.6556 21.0654 30.6556C16.6694 30.6556 13.105 29.9958 13.105 25.7472C13.105 24.7301 13.6062 23.7856 14.4642 23.0018C15.8952 21.6956 18.3174 22.3872 21.065 22.3872C23.8018 22.3872 26.2149 21.6886 27.6478 22.986" fill="#F5CDB5"/>
<path d="M18.4183 25.9908C18.4183 27.3074 17.6768 28.375 16.7622 28.375C15.8475 28.375 15.1056 27.3076 15.1056 25.9908C15.1056 24.6741 15.8475 23.6071 16.7622 23.6071C17.6768 23.6071 18.4183 24.6741 18.4183 25.9908Z" fill="white"/>
<path d="M17.8867 26.0208C17.8867 26.8985 17.3903 27.6098 16.7826 27.6098C16.175 27.6098 15.6785 26.8985 15.6785 26.0208C15.6785 25.1431 16.1726 24.431 16.7826 24.431C17.3927 24.431 17.8867 25.1427 17.8867 26.0208Z" fill="#B1645A"/>
<path d="M27.3039 25.9908C27.3039 27.3074 26.5624 28.375 25.6473 28.375C24.7323 28.375 23.9912 27.3076 23.9912 25.9908C23.9912 24.6741 24.7329 23.6071 25.6473 23.6071C26.5618 23.6071 27.3039 24.6741 27.3039 25.9908Z" fill="white"/>
<path d="M26.7723 26.0208C26.7723 26.8985 26.2758 27.6098 25.6682 27.6098C25.0605 27.6098 24.5641 26.8985 24.5641 26.0208C24.5641 25.1431 25.0605 24.431 25.6682 24.431C26.2758 24.431 26.7723 25.1427 26.7723 26.0208ZM21.5028 28.1059C21.5028 28.3347 21.3174 28.5201 21.0886 28.5201C20.8598 28.5201 20.6744 28.3347 20.6744 28.1059C20.6744 27.8771 20.8596 27.6917 21.0886 27.6917C21.3175 27.6917 21.5028 27.8771 21.5028 28.1059ZM20.1237 29.1534C20.1179 29.1369 20.1153 29.1194 20.1163 29.1019C20.1172 29.0845 20.1216 29.0674 20.1291 29.0516C20.1366 29.0358 20.1472 29.0217 20.1602 29.01C20.1732 28.9983 20.1884 28.9892 20.2049 28.9834C20.2214 28.9776 20.2389 28.9751 20.2564 28.976C20.2738 28.9769 20.2909 28.9813 20.3067 28.9888C20.3225 28.9964 20.3367 29.0069 20.3484 29.0199C20.3601 29.0329 20.3691 29.0481 20.3749 29.0646C20.4813 29.3655 20.7667 29.5676 21.0852 29.5676C21.4037 29.5676 21.6889 29.3655 21.7957 29.0646C21.8016 29.0481 21.8106 29.033 21.8223 29.02C21.834 29.007 21.8481 28.9964 21.8639 28.9889C21.8796 28.9814 21.8967 28.977 21.9142 28.9761C21.9317 28.9752 21.9491 28.9777 21.9656 28.9835C21.9821 28.9893 21.9973 28.9984 22.0103 29.01C22.0233 29.0217 22.0338 29.0359 22.0414 29.0516C22.0489 29.0674 22.0532 29.0845 22.0542 29.102C22.0551 29.1194 22.0526 29.1369 22.0467 29.1534C21.9752 29.351 21.8445 29.5217 21.6724 29.6423C21.5004 29.763 21.2953 29.8277 21.0852 29.8277C20.8751 29.8277 20.6701 29.763 20.498 29.6423C20.326 29.5217 20.1953 29.351 20.1237 29.1534Z" fill="#B1645A"/>
<path d="M10.9405 31.0492C10.9405 31.1598 10.811 31.249 10.6515 31.249C10.4921 31.249 10.3628 31.1596 10.3628 31.0492C10.3628 30.9388 10.4919 30.849 10.6515 30.849C10.8112 30.849 10.9405 30.9384 10.9405 31.0492ZM11.7403 31.493C11.7403 31.6036 11.6109 31.6932 11.4514 31.6932C11.2919 31.6932 11.1627 31.6038 11.1627 31.493C11.1627 31.3822 11.2917 31.2933 11.4514 31.2933C11.6111 31.2933 11.7403 31.3826 11.7403 31.493ZM12.2292 32.0689C12.2292 32.1791 12.1002 32.2687 11.9403 32.2687C11.7804 32.2687 11.6518 32.1793 11.6518 32.0689C11.6518 31.9585 11.7808 31.8687 11.9403 31.8687C12.0998 31.8687 12.2292 31.9581 12.2292 32.0689ZM12.6731 32.7355C12.6731 32.8461 12.544 32.9357 12.3845 32.9357C12.2251 32.9357 12.0956 32.8463 12.0956 32.7355C12.0956 32.6247 12.2247 32.5354 12.3845 32.5354C12.5444 32.5354 12.6731 32.6247 12.6731 32.7355ZM13.162 33.3597C13.162 33.4699 13.0329 33.5594 12.8732 33.5594C12.7136 33.5594 12.5843 33.4701 12.5843 33.3597C12.5843 33.2493 12.7138 33.1595 12.8732 33.1595C13.0327 33.1595 13.162 33.2489 13.162 33.3597ZM13.8286 33.8925C13.8286 34.0031 13.6995 34.0926 13.5397 34.0926C13.3798 34.0926 13.2511 34.0033 13.2511 33.8925C13.2511 33.7816 13.3802 33.6927 13.5397 33.6927C13.6991 33.6927 13.8286 33.782 13.8286 33.8925Z" fill="#C5E6DA"/>
<path d="M14.7615 34.2481C14.7615 34.3583 14.6324 34.4479 14.4728 34.4479C14.3131 34.4479 14.1838 34.3585 14.1838 34.2481C14.1838 34.1377 14.3129 34.0479 14.4728 34.0479C14.6326 34.0479 14.7615 34.1373 14.7615 34.2481Z" fill="#C5E6DA"/>
<path d="M15.6901 34.2481C15.6901 34.3583 15.561 34.4479 15.4013 34.4479C15.2417 34.4479 15.1124 34.3585 15.1124 34.2481C15.1124 34.1377 15.2415 34.0479 15.4013 34.0479C15.5612 34.0479 15.6901 34.1373 15.6901 34.2481Z" fill="#C5E6DA"/>
<path d="M16.6325 34.0934C16.6325 34.204 16.5034 34.2936 16.3438 34.2936C16.1841 34.2936 16.0548 34.2042 16.0548 34.0934C16.0548 33.9826 16.1839 33.8932 16.3438 33.8932C16.5036 33.8932 16.6325 33.9826 16.6325 34.0934Z" fill="#C5E6DA"/>
</g>
<path d="M50.666 21.143C51.766 21.143 53.019 20.87 54.451 20.325V23.838C54.133 23.952 53.678 24.078 53.087 24.213C53.269 24.736 53.36 25.225 53.36 25.679C53.36 27.134 52.917 28.407 52.03 29.499C51.1962 30.5492 49.9844 31.2312 48.654 31.399C47.754 31.535 47.29 32.024 47.29 32.865C47.29 33.161 47.438 33.465 47.733 33.752C48.119 34.184 48.688 34.457 49.438 34.57C52.688 35.07 54.315 36.423 54.315 38.628C54.315 42.152 52.212 43.914 48.015 43.914C46.287 43.914 44.865 43.607 43.752 42.994C42.352 42.221 41.638 40.994 41.638 39.344C41.638 37.444 42.695 36.127 44.808 35.422V35.354C44.035 34.877 43.648 34.149 43.648 33.172C43.648 31.899 44.012 31.102 44.748 30.785V30.717C44.02 30.467 43.373 29.899 42.804 29.012C42.167 28.057 41.849 27.034 41.849 25.942C41.849 24.305 42.429 22.942 43.589 21.85C44.6721 20.838 46.1069 20.2878 47.589 20.316C48.6775 20.3093 49.7483 20.5915 50.692 21.134M45.577 25.976C45.577 27.546 46.293 28.329 47.725 28.329C49.112 28.329 49.805 27.533 49.805 25.942C49.805 25.282 49.645 24.714 49.328 24.237C48.942 23.714 48.408 23.453 47.725 23.453C46.293 23.453 45.577 24.292 45.577 25.976ZM50.829 39.072C50.829 37.912 49.874 37.332 47.964 37.332C46.122 37.332 45.202 37.934 45.202 39.139C45.202 40.321 46.202 40.912 48.202 40.912C49.952 40.912 50.829 40.298 50.829 39.072ZM58.3 17.835C57.64 17.835 57.072 17.585 56.595 17.085C56.1478 16.6039 55.9035 15.9688 55.913 15.312C55.913 14.607 56.14 14.005 56.595 13.505C57.072 13.005 57.641 12.755 58.3 12.755C58.937 12.755 59.482 13.005 59.937 13.505C60.414 14.005 60.653 14.608 60.653 15.312C60.6569 15.6402 60.5957 15.9659 60.4727 16.2703C60.3498 16.5746 60.1677 16.8516 59.937 17.085C59.482 17.585 58.937 17.835 58.3 17.835ZM56.356 35.635C56.401 35.18 56.424 34.407 56.424 33.315V22.712L56.356 20.495H60.2C60.155 20.927 60.132 21.643 60.132 22.643V33.113L60.2 35.637H56.346M67.346 20.495H70.313V23.803C70.0967 23.7987 69.8806 23.7874 69.665 23.769L68.812 23.735H67.346V30.078C67.346 31.601 67.846 32.363 68.846 32.363C69.5271 32.3702 70.1939 32.1677 70.756 31.783V35.183C69.916 35.638 68.903 35.865 67.721 35.865C66.061 35.865 64.913 35.265 64.277 34.092C63.8 33.205 63.561 31.807 63.561 29.898V23.794H63.595V23.726L63.083 23.692C62.6945 23.6998 62.3069 23.7339 61.923 23.794V20.486H63.593V19.156C63.593 18.519 63.559 18.008 63.491 17.621H67.447C67.379 18.053 67.345 18.541 67.345 19.087V20.485M79.445 20.393C78.467 20.393 77.445 20.733 76.375 21.416V15.448L76.443 12.89H72.555C72.623 13.254 72.657 14.106 72.657 15.448V33.488L72.555 35.636H76.511C76.511 35.568 76.488 35.296 76.443 34.816L76.375 33.486V25.1C77.171 24.35 77.945 23.975 78.695 23.975C79.559 23.975 80.218 24.407 80.673 25.271C81.013 25.953 81.185 26.806 81.185 27.829L81.151 32.433C81.151 33.206 81.094 34.273 80.981 35.639H85.107C85.007 35.071 84.971 34.025 84.971 32.502V27.83C84.971 25.852 84.528 24.17 83.641 22.783C82.641 21.183 81.241 20.396 79.446 20.396M92.55 35.773C90.754 35.773 89.424 34.977 88.55 33.386C87.868 32.09 87.527 30.386 87.527 28.306V23.634L87.391 20.497H91.483C91.415 20.997 91.369 22.067 91.347 23.703L91.313 28.307C91.313 29.603 91.461 30.535 91.756 31.103C92.096 31.808 92.722 32.16 93.632 32.16C94.269 32.16 94.985 31.785 95.78 31.035V22.635C95.7772 22.1909 95.7545 21.7471 95.712 21.305L95.644 20.487H99.6C99.555 20.874 99.532 21.59 99.532 22.635V33.08L99.6 35.638H95.9V34.4C94.854 35.3 93.74 35.764 92.558 35.764M109.328 35.73C108.751 35.7429 108.178 35.6308 107.648 35.4012C107.118 35.1716 106.644 34.83 106.259 34.4V35.628H102.644C102.712 35.241 102.746 34.525 102.746 33.48V15.45L102.644 12.892H106.532C106.486 13.292 106.464 14.154 106.464 15.45V21.384C107.51 20.724 108.534 20.384 109.534 20.384C111.33 20.384 112.74 21.18 113.764 22.771C114.628 24.158 115.06 25.841 115.06 27.818C115.06 29.841 114.605 31.603 113.696 33.104C112.596 34.854 111.15 35.73 109.331 35.73M108.819 23.965C108.069 23.965 107.284 24.34 106.466 25.09V31C107.194 31.705 107.91 32.057 108.614 32.057C109.501 32.057 110.171 31.557 110.626 30.591C110.99 29.818 111.172 28.897 111.172 27.829C111.172 25.259 110.388 23.976 108.819 23.976" fill="black"/>
</g>
<defs>
<clipPath id="clip0_3_713">
<rect width="120" height="60" fill="white"/>
</clipPath>
</defs>
</svg>
