<svg width="120" height="60" viewBox="0 0 120 60" fill="none" xmlns="http://www.w3.org/2000/svg">
<path d="M33.04 23.95L34.308 26.594C35.088 28.306 35.678 30.114 35.924 31.979C36.17 33.844 36.062 35.779 35.479 37.557C34.819 39.575 33.569 41.371 32.039 42.841C30.227 44.581 27.899 45.921 25.391 46.019C23.756 46.083 22.128 45.616 20.681 44.854C19.464 44.214 18.353 43.36 17.467 42.309C16.581 41.258 15.922 40.006 15.617 38.665C15.242 37.015 15.411 35.261 15.979 33.665C16.385 32.525 16.987 31.462 17.416 30.329C17.884 29.091 18.146 27.769 18.766 26.601C19.329 25.541 20.172 24.636 20.62 23.523C20.888 22.858 21.004 22.143 21.177 21.449C21.35 20.755 21.592 20.053 22.063 19.513C22.63 18.863 23.483 18.509 24.343 18.41C25.203 18.311 26.069 18.445 26.911 18.637C27.581 18.79 28.243 18.98 28.891 19.21C29.444 19.407 29.991 19.636 30.471 19.976C31.121 20.44 31.618 21.092 32.014 21.786C32.41 22.48 32.712 23.223 33.044 23.95H33.04Z" fill="#020204"/>
<path d="M25.838 46.035L27.898 46.235L29.684 46.587C30.608 46.811 31.529 47.087 32.479 47.124C32.729 47.131 32.981 47.12 33.226 47.066C33.4722 47.0153 33.7037 46.9093 33.903 46.756C34.195 46.523 34.38 46.172 34.449 45.806C34.518 45.44 34.475 45.056 34.369 44.7C34.154 43.985 33.694 43.375 33.312 42.734L32.662 41.629C32.425 41.273 32.142 40.939 31.782 40.709C31.285 40.389 30.669 40.284 30.08 40.343C29.491 40.402 28.928 40.613 28.402 40.886C27.666 41.266 26.972 41.79 26.572 42.516C26.432 42.768 26.332 43.04 26.212 43.303C26.092 43.566 25.955 43.825 25.754 44.033C25.53 44.263 25.239 44.419 25.007 44.643C24.891 44.753 24.79 44.883 24.73 45.033C24.67 45.183 24.656 45.353 24.71 45.505C24.7488 45.6089 24.8139 45.7009 24.899 45.772C24.984 45.8425 25.0813 45.8967 25.186 45.932C25.394 46.005 25.618 46.016 25.838 46.029V46.035Z" fill="#020204"/>
<path d="M23.8 45.99C23.226 46.003 22.658 46.106 22.095 46.222L20.491 46.596C19.595 46.831 18.698 47.113 17.771 47.133C17.527 47.1422 17.2828 47.121 17.044 47.07C16.807 47.015 16.576 46.917 16.386 46.765C16.086 46.533 15.91 46.183 15.841 45.817C15.772 45.451 15.814 45.07 15.921 44.713C16.134 43.999 16.589 43.388 16.963 42.743L17.593 41.64C17.823 41.284 18.099 40.94 18.453 40.718C18.935 40.401 19.536 40.294 20.11 40.35C20.684 40.406 21.234 40.618 21.74 40.895C22.455 41.295 23.107 41.823 23.52 42.525C23.82 43.017 23.977 43.58 24.316 44.04C24.498 44.288 24.728 44.502 24.88 44.77C24.9586 44.903 25.0077 45.0513 25.024 45.205C25.038 45.36 25.004 45.518 24.919 45.645C24.8605 45.7289 24.7835 45.7984 24.694 45.848C24.6047 45.8973 24.5082 45.9324 24.408 45.952C24.208 45.994 24.003 45.987 23.8 45.992V45.99ZM20.582 22.09L20.394 16.362C20.431 15.409 20.587 14.445 21.01 13.59C21.4359 12.7278 22.1176 12.0182 22.962 11.558C23.762 11.132 24.662 10.95 25.559 10.96C26.776 10.973 27.997 11.34 28.983 12.055C29.601 12.503 30.121 13.079 30.531 13.723C30.881 14.273 31.153 14.873 31.323 15.501C31.673 16.801 31.59 18.151 31.658 19.484C31.723 20.748 31.925 22.009 31.856 23.284C31.841 23.558 31.811 23.839 31.689 24.086C31.5636 24.3247 31.371 24.5215 31.135 24.652C30.8993 24.7806 30.6421 24.865 30.376 24.901C29.846 24.983 29.306 24.929 28.772 24.978C27.998 25.05 27.26 25.338 26.492 25.456C25.576 25.596 24.642 25.496 23.718 25.46L22.618 25.395C22.25 25.349 21.883 25.26 21.555 25.095C21.355 24.987 21.168 24.847 21.018 24.675C20.868 24.503 20.753 24.298 20.694 24.078C20.606 23.746 20.646 23.396 20.654 23.053C20.6613 22.7385 20.6409 22.4239 20.593 22.113L20.582 22.09Z" fill="#020204"/>
<path d="M22.04 21.706C22.077 22.54 21.923 23.382 21.592 24.149C21.415 24.559 21.188 24.949 20.946 25.324C20.526 25.977 20.046 26.612 19.816 27.354C19.676 27.804 19.63 28.284 19.686 28.754C19.1801 29.4967 18.743 30.2839 18.38 31.106C17.83 32.351 17.454 33.676 17.32 35.032C17.158 36.692 17.37 38.397 18.025 39.929C18.499 41.037 19.205 42.051 20.125 42.841C20.588 43.241 21.102 43.585 21.652 43.855C23.558 44.792 25.912 44.793 27.786 43.795C28.766 43.273 29.592 42.51 30.389 41.738C30.869 41.273 31.346 40.798 31.713 40.238C32.418 39.162 32.663 37.854 32.816 36.576C33.083 34.342 33.091 31.983 32.112 29.956C31.774 29.2572 31.3267 28.6169 30.787 28.059C30.639 27.085 30.357 26.132 29.949 25.235L29.013 23.32C28.781 22.786 28.589 22.213 28.183 21.794C27.763 21.358 27.153 21.142 26.55 21.087C25.947 21.032 25.35 21.123 24.742 21.22L22.052 21.705L22.04 21.706Z" fill="#FDFDFB"/>
<g filter="url(#filter0_f_3_750)">
<path d="M21.7462 23.9336C21.9595 24.5521 22.3888 25.08 22.8968 25.4923C23.0659 25.6295 23.2453 25.7559 23.4437 25.8452C23.6421 25.9345 23.8611 25.9855 24.0778 25.9669C24.2901 25.9489 24.492 25.8655 24.6778 25.7608C24.8636 25.656 25.0355 25.5294 25.2155 25.4154C25.5241 25.22 25.8544 25.0622 26.1747 24.8868C26.5607 24.6755 26.935 24.4359 27.2601 24.1403C27.4089 24.0044 27.5477 23.8562 27.712 23.7394C27.8763 23.6227 28.0731 23.5383 28.2742 23.5519C28.425 23.5622 28.5664 23.6263 28.7141 23.6581C28.7892 23.674 28.8644 23.6819 28.9392 23.6704C29.014 23.6589 29.087 23.6273 29.1393 23.5727C29.2035 23.5059 29.2315 23.4099 29.227 23.3172C29.2225 23.2245 29.1915 23.1352 29.1481 23.0532C29.0617 22.8894 28.9308 22.7482 28.8725 22.5725C28.8207 22.4159 28.8312 22.2468 28.8357 22.0822C28.8402 21.9176 28.8367 21.7453 28.7606 21.5991C28.7027 21.4876 28.6057 21.3993 28.4948 21.3406C28.3838 21.2818 28.2593 21.2529 28.1345 21.2398C27.8846 21.2164 27.6342 21.2649 27.3837 21.2791C27.051 21.2978 26.717 21.2563 26.3845 21.2763C25.9699 21.3013 25.5631 21.4216 25.1477 21.4223C24.6734 21.4232 24.1997 21.268 23.7312 21.3422C23.5302 21.374 23.3385 21.4472 23.1455 21.5115C22.9525 21.5759 22.753 21.6327 22.5496 21.6298C22.3186 21.6264 22.0949 21.5465 21.8644 21.5299C21.7492 21.5217 21.6312 21.5299 21.523 21.5704C21.4147 21.6109 21.3169 21.6861 21.2639 21.7887C21.2335 21.8476 21.2185 21.9136 21.2156 21.9798C21.2127 22.0459 21.2218 22.1122 21.2379 22.1764C21.2698 22.3049 21.3286 22.4248 21.3757 22.5481C21.5502 22.9932 21.5876 23.481 21.7436 23.933L21.7462 23.9336Z" fill="black" fill-opacity="0.26"/>
</g>
<g opacity="0.3" filter="url(#filter1_f_3_750)">
<path d="M21.1515 22.1708C21.5658 22.4269 21.9377 22.7412 22.25 23.0998C22.5397 23.4326 22.7861 23.8098 23.1644 24.0563C23.4316 24.2303 23.7525 24.3284 24.0781 24.3581C24.4604 24.3931 24.8472 24.3366 25.2157 24.2367C25.5573 24.1442 25.8875 24.0141 26.1905 23.8422C26.7664 23.5149 27.2477 23.0353 27.8815 22.8202C28.0202 22.7733 28.1646 22.7397 28.2982 22.6818C28.4319 22.6239 28.5575 22.5371 28.6214 22.4143C28.684 22.2964 28.6803 22.1603 28.7003 22.0307C28.7216 21.8922 28.7697 21.7582 28.796 21.6204C28.8223 21.4827 28.8255 21.3352 28.7609 21.2085C28.7073 21.1035 28.61 21.0207 28.4979 20.9679C28.3858 20.9152 28.2599 20.8913 28.1341 20.8856C27.8829 20.874 27.6346 20.9334 27.3841 20.9546C27.0521 20.9825 26.7179 20.943 26.3849 20.9523C25.9705 20.9638 25.5622 21.0503 25.148 21.0682C24.6756 21.0887 24.2043 21.02 23.7316 21.0048C23.5272 20.9981 23.3214 21.0013 23.1198 21.0339C22.9183 21.0666 22.7205 21.1288 22.5499 21.2331C22.3845 21.3343 22.2496 21.4716 22.0981 21.5896C22.0223 21.6487 21.9417 21.7033 21.8533 21.7448C21.7649 21.7863 21.6679 21.8146 21.569 21.819C21.518 21.8213 21.4665 21.8173 21.4161 21.8244C21.3739 21.8309 21.3335 21.8451 21.2972 21.8661C21.261 21.8871 21.2296 21.9145 21.2049 21.9468C21.1802 21.979 21.1627 22.0154 21.1533 22.0539C21.144 22.0924 21.143 22.1323 21.1505 22.1711L21.1515 22.1708Z" fill="black"/>
</g>
<path d="M22.23 16.513C22.0049 16.5298 21.7927 16.6246 21.63 16.781C21.467 16.934 21.352 17.133 21.28 17.345C21.138 17.769 21.18 18.228 21.203 18.675C21.233 19.079 21.263 19.49 21.403 19.875C21.4763 20.0642 21.5861 20.2371 21.726 20.384C21.8668 20.5311 22.0453 20.6366 22.242 20.689C22.4276 20.7341 22.6221 20.7272 22.804 20.669C22.984 20.612 23.15 20.509 23.286 20.376C23.484 20.182 23.616 19.929 23.694 19.663C23.7654 19.3951 23.7971 19.1181 23.788 18.841C23.783 18.495 23.738 18.147 23.628 17.818C23.518 17.489 23.348 17.178 23.105 16.93C22.988 16.81 22.855 16.704 22.705 16.63C22.555 16.556 22.385 16.514 22.219 16.523L22.23 16.513Z" fill="url(#paint0_radial_3_750)"/>
<path d="M26.178 16.513C25.813 16.731 25.531 17.081 25.395 17.483C25.225 17.987 25.288 18.545 25.458 19.049C25.632 19.567 25.93 20.059 26.38 20.369C26.6049 20.5264 26.8647 20.6266 27.137 20.661C27.41 20.6946 27.6869 20.6459 27.932 20.521C28.226 20.367 28.452 20.098 28.59 19.796C28.728 19.494 28.79 19.161 28.81 18.83C28.835 18.407 28.794 17.977 28.653 17.577C28.501 17.145 28.223 16.747 27.839 16.5C27.646 16.376 27.429 16.29 27.201 16.258C26.973 16.226 26.739 16.246 26.524 16.324C26.401 16.369 26.284 16.432 26.18 16.512L26.178 16.513Z" fill="url(#paint1_radial_3_750)"/>
<g opacity="0.3" filter="url(#filter2_f_3_750)">
<path d="M22.156 20.1199L21.5127 20.7067C21.3995 20.8207 21.286 20.9427 21.2352 21.095C21.1902 21.2303 21.1987 21.3772 21.1764 21.5184C21.1689 21.5668 21.1576 21.6149 21.1573 21.6637C21.1569 21.6882 21.1602 21.7126 21.1671 21.7361C21.1742 21.7595 21.1859 21.7816 21.2028 21.7995C21.2306 21.8292 21.2702 21.8453 21.31 21.8534C21.3499 21.8614 21.3908 21.8624 21.4313 21.8668C21.6137 21.8864 21.7818 21.9749 21.9328 22.0791L22.3775 22.4029C22.7195 22.6201 23.1282 22.7167 23.5332 22.7321C23.9381 22.7475 24.3421 22.6857 24.7394 22.6062C25.0551 22.543 25.37 22.4684 25.6695 22.3501C26.1283 22.1693 26.5418 21.8908 26.9369 21.5958C27.1164 21.4618 27.2934 21.3236 27.4546 21.1681C27.5093 21.1152 27.5623 21.0603 27.6209 21.012C27.6796 20.9636 27.7447 20.9215 27.8171 20.8982C27.9273 20.8628 28.0471 20.8729 28.1613 20.892C28.2474 20.9064 28.3337 20.9258 28.4208 20.922C28.4644 20.9203 28.5082 20.9128 28.5486 20.8965C28.5891 20.8802 28.6265 20.8552 28.6542 20.8213C28.6903 20.7761 28.7099 20.7199 28.7096 20.662C28.7098 20.6046 28.692 20.548 28.6632 20.4985C28.605 20.3996 28.5044 20.3328 28.3996 20.2862C28.256 20.2223 28.1007 20.191 27.9479 20.1539C27.4788 20.0407 27.0228 19.8734 26.5905 19.6587C26.3756 19.5519 26.1666 19.4337 25.9552 19.3205C25.7378 19.204 25.5162 19.092 25.2801 19.0205C24.7523 18.8605 24.1753 18.913 23.6545 19.0939C23.0758 19.2948 22.5526 19.6529 22.1557 20.1195L22.156 20.1199Z" fill="black"/>
</g>
<path d="M23.278 19.458C23.498 19.208 23.651 18.906 23.863 18.648C23.969 18.52 24.093 18.403 24.236 18.32C24.38 18.2339 24.5466 18.1935 24.714 18.204C24.899 18.22 25.072 18.312 25.207 18.439C25.342 18.566 25.442 18.726 25.522 18.893C25.599 19.053 25.66 19.223 25.77 19.363C25.888 19.511 26.053 19.613 26.202 19.729C26.2777 19.7857 26.3465 19.8512 26.407 19.924C26.467 19.998 26.512 20.084 26.531 20.177C26.55 20.27 26.541 20.371 26.508 20.461C26.475 20.551 26.418 20.633 26.35 20.701C26.21 20.834 26.023 20.906 25.832 20.933C25.452 20.987 25.066 20.873 24.682 20.883C24.298 20.893 23.912 21.031 23.524 21.017C23.328 21.0153 23.1365 20.9577 22.972 20.851C22.8914 20.7957 22.8233 20.7242 22.772 20.641C22.722 20.558 22.692 20.461 22.688 20.365C22.6864 20.2716 22.7055 20.179 22.744 20.094C22.781 20.009 22.834 19.931 22.892 19.859C23.01 19.715 23.152 19.595 23.277 19.456L23.278 19.458Z" fill="url(#paint2_radial_3_750)"/>
<g filter="url(#filter3_f_3_750)">
<path d="M27.6178 12.5661C27.2967 12.7927 27.437 13.0756 27.5751 13.3596C27.7132 13.6436 27.2714 14.4623 27.2667 14.4975C27.2619 14.5327 28.1362 14.0825 28.3745 13.79C28.656 13.4446 29.3671 14.2573 29.3285 14.1335C29.3288 13.9122 27.9391 12.3395 27.6179 12.5661H27.6178Z" fill="#7C7C7C"/>
</g>
<path d="M26.9813 17.5649C26.8504 17.5743 26.7227 17.619 26.6118 17.6902C26.5008 17.7613 26.406 17.8549 26.3315 17.9633C26.1829 18.1797 26.1174 18.4451 26.107 18.7073C26.0991 18.9042 26.1207 19.1038 26.1861 19.2898C26.2515 19.4758 26.3615 19.648 26.5134 19.7736C26.6688 19.9023 26.8662 19.9796 27.0677 19.9891C27.2693 19.9986 27.4736 19.9406 27.6389 19.8254C27.7708 19.7336 27.8771 19.6072 27.9529 19.4655C28.0287 19.3238 28.0744 19.167 28.0951 19.0077C28.1319 18.7262 28.0903 18.4324 27.9602 18.1801C27.83 17.9278 27.6095 17.72 27.343 17.6219C27.2278 17.5793 27.1038 17.5573 26.9813 17.566V17.5649Z" fill="#020204"/>
<g filter="url(#filter4_f_3_750)">
<path d="M27.2937 18.4236C27.1852 18.4664 27.0135 18.4395 26.966 18.546C26.9378 18.6091 26.9776 18.7129 27.0415 18.7389C27.1708 18.7915 27.3712 18.6963 27.4236 18.5666C27.4461 18.5103 27.4119 18.4213 27.3559 18.3975C27.3353 18.3888 27.3146 18.4151 27.2938 18.4233L27.2937 18.4236Z" fill="#141413"/>
</g>
<g filter="url(#filter5_f_3_750)">
<path d="M27.7908 18.7054C27.9361 18.5601 27.6874 18.1743 27.4933 18.0165C27.3528 17.9021 26.9434 17.7823 26.961 17.9069C26.9785 18.0315 27.1614 18.1907 27.286 18.3124C27.4378 18.462 27.7219 18.7746 27.7908 18.7054Z" fill="url(#paint3_linear_3_750)"/>
</g>
<mask id="mask0_3_750" style="mask-type:luminance" maskUnits="userSpaceOnUse" x="25" y="16" width="4" height="5">
<path d="M26.1782 16.5134C25.8591 16.7798 25.5258 17.0896 25.3953 17.4841C25.2312 17.9802 25.1907 18.6011 25.4579 19.0499C25.9489 19.8744 27.0091 20.7848 27.9318 20.5217C28.5425 20.3476 28.6968 19.457 28.8086 18.8307C28.8825 18.4165 28.8833 17.9297 28.6521 17.5781C28.1996 16.89 27.346 16.3387 26.5226 16.3255C26.3919 16.3233 26.2784 16.4294 26.1782 16.5134Z" fill="white"/>
</mask>
<g mask="url(#mask0_3_750)">
<path d="M24.8629 17.7816C25.1626 17.533 25.5083 17.3457 25.8803 17.2305C26.6426 16.995 27.5087 17.0881 28.1823 17.5155C28.4149 17.663 28.6223 17.8464 28.8387 18.017C29.0552 18.1876 29.2846 18.3477 29.5447 18.4391C29.685 18.4885 29.835 18.5172 29.9831 18.5018C30.1169 18.4877 30.2461 18.4376 30.3569 18.3615C30.4676 18.2853 30.5604 18.1838 30.6299 18.0687C30.7692 17.8386 30.8141 17.5595 30.79 17.2917C30.742 16.756 30.4398 16.283 30.1865 15.8086C30.1072 15.6601 30.0317 15.5089 29.936 15.3702C29.6425 14.9448 29.1753 14.6643 28.6853 14.4999C28.1952 14.3356 27.6774 14.2762 27.1646 14.2116C26.9359 14.1828 26.7045 14.1527 26.4757 14.1803C26.2126 14.2119 25.9651 14.318 25.7084 14.3838C25.5866 14.4151 25.4624 14.437 25.3417 14.472C25.2209 14.5069 25.102 14.5559 25.0038 14.6343C24.8604 14.7491 24.7702 14.9212 24.7311 15.1007C24.6921 15.2802 24.7011 15.4669 24.7296 15.6483C24.787 16.0111 24.9225 16.3653 24.9098 16.7323C24.901 16.9843 24.8218 17.2319 24.8315 17.4839C24.8344 17.559 24.8449 17.6313 24.8628 17.7031" fill="url(#paint4_linear_3_750)"/>
</g>
<g filter="url(#filter6_f_3_750)">
<path d="M27.3877 15.4816C27.3279 15.5568 27.274 15.6384 27.2311 15.7284C27.4999 15.7862 27.7572 15.897 27.9864 16.0494C28.4305 16.3443 28.7677 16.7754 29.0042 17.255C29.0593 17.1939 29.1097 17.1283 29.153 17.0554C28.9153 16.5558 28.5713 16.104 28.1118 15.799C27.8911 15.6525 27.6452 15.5417 27.3878 15.4821L27.3877 15.4816Z" fill="url(#paint5_linear_3_750)"/>
</g>
<g filter="url(#filter7_f_3_750)">
<path d="M22.2049 15.7265C22.1746 15.7259 22.1451 15.7286 22.1147 15.73L22.0558 15.7335C22.2328 15.7495 22.4088 15.7971 22.5687 15.8688C22.7866 15.9665 22.9788 16.1059 23.148 16.2646C23.4616 16.5583 23.6947 16.921 23.8526 17.3055C23.814 17.0149 23.7267 16.7329 23.5943 16.4714C23.5324 16.4 23.4683 16.3299 23.3986 16.2647C23.2295 16.1061 23.0371 15.9669 22.8193 15.8689C22.6289 15.7834 22.4167 15.7301 22.2048 15.7264L22.2049 15.7265Z" fill="url(#paint6_linear_3_750)"/>
</g>
<path d="M21.692 18.361C21.645 18.641 21.644 18.937 21.74 19.206C21.8061 19.383 21.9071 19.5448 22.037 19.682C22.121 19.782 22.217 19.855 22.337 19.908C22.4481 19.9644 22.5753 19.9807 22.697 19.954C22.8076 19.9231 22.9052 19.8571 22.975 19.766C23.045 19.676 23.095 19.571 23.128 19.463C23.228 19.143 23.212 18.791 23.113 18.47C23.041 18.236 22.921 18.01 22.733 17.853C22.643 17.778 22.539 17.719 22.426 17.693C22.313 17.667 22.189 17.673 22.083 17.721C21.9658 17.779 21.8711 17.8743 21.814 17.992C21.754 18.107 21.724 18.235 21.702 18.362L21.692 18.361Z" fill="#020204"/>
<g filter="url(#filter8_f_3_750)">
<path d="M22.2873 18.1574C22.3176 18.2368 22.4193 18.2656 22.4752 18.3296C22.5294 18.3919 22.5863 18.4562 22.6161 18.5332C22.6731 18.6805 22.5597 18.899 22.6787 19.0029C22.716 19.0355 22.7908 19.0362 22.8275 19.0029C22.971 18.8724 22.939 18.6091 22.8824 18.4236C22.831 18.2552 22.7036 18.0959 22.5467 18.0159C22.474 17.9789 22.3651 17.9482 22.3029 18.0008C22.2629 18.0347 22.2686 18.1086 22.2873 18.1574Z" fill="url(#paint7_linear_3_750)"/>
</g>
<path d="M21.168 21.8582C21.1755 21.8952 21.1896 21.9309 21.2089 21.9635C21.2422 22.0192 21.2908 22.0644 21.3433 22.1025C21.3958 22.1406 21.4527 22.1727 21.5077 22.2071C21.8 22.3909 22.0382 22.6493 22.2498 22.922C22.5338 23.288 22.785 23.6942 23.1643 23.9604C23.4321 24.1483 23.7525 24.2554 24.0779 24.2881C24.46 24.3265 24.847 24.2648 25.2155 24.1563C25.557 24.0557 25.8873 23.9145 26.1903 23.7279C26.7665 23.3727 27.2475 22.8519 27.8813 22.6185C28.02 22.5675 28.1644 22.531 28.2979 22.4681C28.4315 22.4053 28.5572 22.3111 28.6211 22.1778C28.6838 22.0498 28.68 21.902 28.7 21.7613C28.7213 21.611 28.7694 21.4654 28.7957 21.3159C28.822 21.1663 28.8252 21.0062 28.7607 20.8687C28.7071 20.7547 28.6097 20.6648 28.4976 20.6075C28.3855 20.5503 28.2596 20.5243 28.1339 20.5181C27.8826 20.5056 27.6343 20.5701 27.3838 20.593C27.0519 20.6233 26.7177 20.5807 26.3846 20.5905C25.9702 20.603 25.5619 20.6963 25.1478 20.7164C24.6753 20.7393 24.2039 20.6663 23.7313 20.6475C23.5266 20.6392 23.3205 20.6412 23.1185 20.6757C22.9166 20.7101 22.7183 20.7789 22.5498 20.8952C22.3858 21.0087 22.2547 21.1633 22.1039 21.2941C22.0285 21.3595 21.9473 21.4193 21.8577 21.4628C21.768 21.5063 21.6689 21.5334 21.5691 21.5313C21.5189 21.5301 21.4651 21.5217 21.4162 21.5372C21.3857 21.5468 21.3586 21.5656 21.3356 21.5881C21.3125 21.6105 21.2936 21.6365 21.2757 21.6632C21.234 21.7251 21.1977 21.7904 21.1671 21.8584L21.168 21.8582Z" fill="url(#paint8_radial_3_750)"/>
<g filter="url(#filter9_f_3_750)">
<path d="M23.0225 22.3674C22.9756 22.5696 23.0054 22.7819 23.1059 22.9634C23.2064 23.145 23.3706 23.2828 23.5668 23.3504C23.8146 23.433 24.0938 23.3924 24.3253 23.2717C24.4593 23.2015 24.5821 23.1031 24.6597 22.9731C24.699 22.9081 24.7248 22.8358 24.7355 22.7606C24.7456 22.6855 24.7387 22.6078 24.7124 22.537C24.6835 22.4594 24.6322 22.3907 24.5688 22.3371C24.5054 22.2835 24.4304 22.2447 24.3517 22.2186C24.1942 22.1665 24.0248 22.1655 23.859 22.1735C23.6077 22.1856 23.3577 22.2171 23.1113 22.2678" fill="#D9B30D"/>
</g>
<g filter="url(#filter10_f_3_750)">
<path d="M22.2094 20.8121L21.7211 21.1331C21.6388 21.1915 21.554 21.2546 21.5107 21.3455C21.4799 21.4101 21.4729 21.4833 21.4731 21.5547C21.4734 21.6261 21.4769 21.698 21.4673 21.7677C21.4611 21.816 21.4481 21.8636 21.4458 21.9124C21.4445 21.9368 21.4464 21.9612 21.4528 21.985C21.4589 22.0088 21.4708 22.0306 21.4873 22.0488C21.5089 22.0717 21.5384 22.0858 21.5687 22.0951C21.599 22.1044 21.6301 22.1089 21.6609 22.1164C21.8081 22.151 21.9361 22.2413 22.0484 22.3424L22.3791 22.6525C22.6969 22.9111 23.1182 23.0183 23.5265 23.0249C23.9349 23.0316 24.3412 22.946 24.7409 22.8558L25.671 22.5998C26.1348 22.4288 26.5653 22.1699 26.9384 21.8455C27.1075 21.6984 27.2662 21.5368 27.4561 21.4177C27.6239 21.3122 27.8122 21.2426 27.9829 21.1417C27.9982 21.1327 28.0134 21.1235 28.027 21.1121C28.0407 21.1007 28.0528 21.0873 28.0608 21.0714C28.0746 21.0438 28.0746 21.0112 28.0658 20.9817C28.0571 20.9521 28.04 20.926 28.0208 20.9023C27.9995 20.8759 27.9753 20.8519 27.9494 20.8299C27.771 20.677 27.5289 20.6217 27.2947 20.6031C27.0606 20.5846 26.8238 20.5977 26.5933 20.559C26.3753 20.5215 26.1683 20.4413 25.958 20.374C25.7373 20.3027 25.5117 20.2478 25.2829 20.2099C24.7449 20.1223 24.191 20.139 23.6574 20.25C23.1491 20.3559 22.6591 20.5469 22.2119 20.8112L22.2094 20.8121Z" fill="#604405"/>
</g>
<path d="M22.156 20.2451C21.9143 20.408 21.6968 20.6063 21.5127 20.832C21.4075 20.961 21.3118 21.1013 21.2588 21.2594C21.2171 21.3836 21.2029 21.5152 21.1766 21.6435C21.1666 21.6916 21.1553 21.74 21.1553 21.7888C21.1554 21.8134 21.1586 21.8381 21.1661 21.8615C21.1736 21.8849 21.1859 21.9068 21.2029 21.9245C21.2311 21.9538 21.2706 21.9696 21.3104 21.9779C21.3502 21.9861 21.3911 21.9873 21.4314 21.9919C21.6136 22.0126 21.7814 22.1011 21.9324 22.2051L22.3776 22.528C22.7201 22.7447 23.1286 22.8409 23.5334 22.8566C23.9382 22.8722 24.3422 22.8107 24.7397 22.7313C25.0553 22.6683 25.3702 22.5935 25.6697 22.4753C26.1284 22.2944 26.542 22.0159 26.9371 21.721C27.1166 21.5869 27.2936 21.4488 27.4548 21.2932C27.5096 21.2403 27.5625 21.1855 27.6212 21.1371C27.6798 21.0888 27.7449 21.0467 27.8173 21.0234C27.9276 20.9879 28.0473 20.9981 28.1615 21.0171C28.2476 21.0315 28.3339 21.0509 28.4211 21.0472C28.4647 21.0454 28.5084 21.0379 28.5488 21.0216C28.5893 21.0053 28.6268 20.9803 28.6544 20.9465C28.6906 20.9013 28.7101 20.845 28.7098 20.7871C28.7101 20.7298 28.6923 20.6731 28.6635 20.6237C28.6052 20.5247 28.5046 20.458 28.3998 20.4114C28.2562 20.3475 28.1009 20.3162 27.9481 20.2791C27.479 20.1658 27.023 19.9985 26.5908 19.7838C26.3758 19.6771 26.1669 19.5588 25.9554 19.4456C25.738 19.3291 25.5164 19.2171 25.2803 19.1456C24.7526 18.9856 24.1755 19.0381 23.6548 19.219C23.0761 19.4199 22.5529 19.778 22.1559 20.2446L22.156 20.2451Z" fill="url(#paint9_linear_3_750)"/>
<g filter="url(#filter11_f_3_750)">
<path d="M25.8638 20.3611C25.8354 20.3253 25.7949 20.3 25.751 20.2872C25.7072 20.2744 25.6602 20.2747 25.6152 20.281C25.525 20.2964 25.4444 20.3436 25.369 20.3968C25.1548 20.5441 24.9656 20.726 24.8007 20.9267C24.5821 21.1922 24.4017 21.4994 24.3412 21.8379C24.3312 21.8949 24.3243 21.9532 24.3314 22.0108C24.3386 22.0684 24.3606 22.1254 24.4016 22.1665C24.4374 22.2026 24.4863 22.2246 24.5366 22.2319C24.587 22.2392 24.6388 22.2321 24.6869 22.2159C24.7834 22.1833 24.8635 22.1157 24.9392 22.048C25.3571 21.6741 25.735 21.2253 25.8862 20.6852C25.9012 20.6309 25.9142 20.5754 25.9137 20.5192C25.9132 20.463 25.8986 20.4052 25.8638 20.3611Z" fill="#F6DA4A"/>
</g>
<g opacity="0.8" filter="url(#filter12_f_3_750)">
<path d="M24.8629 19.587C24.8917 19.68 25.0418 19.6647 25.1285 19.7091C25.2045 19.7482 25.2655 19.834 25.3511 19.8365C25.4325 19.839 25.5595 19.8083 25.5703 19.7276C25.5843 19.6207 25.4282 19.5528 25.3279 19.5136C25.1989 19.4633 25.0331 19.4377 24.912 19.5051C24.8842 19.5205 24.8539 19.5567 24.8634 19.5871L24.8629 19.587Z" fill="url(#paint10_radial_3_750)"/>
</g>
<g opacity="0.8" filter="url(#filter13_f_3_750)">
<path d="M23.4321 19.5332C23.3208 19.4968 23.1368 19.6931 23.1968 19.7937C23.2134 19.8213 23.2638 19.8563 23.2978 19.8375C23.3491 19.8093 23.391 19.7085 23.4465 19.6691C23.4835 19.6428 23.4753 19.5473 23.4319 19.5333L23.4321 19.5332Z" fill="url(#paint11_radial_3_750)"/>
</g>
<g filter="url(#filter14_f_3_750)">
<path d="M28.337 21.4425C28.5346 21.4425 28.7171 21.2442 28.7445 20.9998C28.7719 20.7553 28.6339 20.5571 28.4362 20.5571C28.2385 20.5571 28.0561 20.7553 28.0287 20.9998C28.0013 21.2442 28.1393 21.4425 28.337 21.4425Z" fill="url(#paint12_linear_3_750)"/>
</g>
<mask id="mask1_3_750" style="mask-type:luminance" maskUnits="userSpaceOnUse" x="21" y="16" width="3" height="5">
<path d="M22.2302 16.5134C21.7552 17.1134 21.1632 17.9777 21.2039 18.6741C21.2446 19.3706 21.6874 20.4196 22.253 20.6783C22.8185 20.9369 22.9737 20.6799 23.2964 20.3651C23.6191 20.0504 23.7799 19.4447 23.7982 18.8307C23.8165 18.2167 23.418 17.3376 23.1168 16.9205C22.8155 16.5033 22.705 15.9134 22.2299 16.5134H22.2302Z" fill="white"/>
</mask>
<g mask="url(#mask1_3_750)">
<path d="M21.7492 17.4109C22.0855 17.2104 22.4951 17.1641 22.8849 17.2009C23.2747 17.2377 23.6521 17.3522 24.0298 17.4552C24.3069 17.5306 24.5875 17.6005 24.8471 17.723C25.1068 17.8455 25.3482 18.0256 25.4912 18.2745L25.5589 18.395C25.5832 18.4341 25.6119 18.4714 25.6486 18.499C25.6853 18.5266 25.7308 18.5446 25.7768 18.5421C25.7999 18.5408 25.8227 18.5346 25.8425 18.5228C25.8622 18.511 25.8792 18.494 25.8898 18.4737C25.9021 18.4503 25.9058 18.4231 25.9045 18.3965C25.9024 18.3701 25.8975 18.344 25.8898 18.3186C25.7952 17.9738 25.5723 17.6813 25.4025 17.3666L25.1147 16.7909C24.7617 16.1446 24.1822 15.6365 23.5239 15.307C22.8655 14.9774 22.1301 14.819 21.3948 14.7759C20.543 14.726 19.6888 14.8272 18.8483 14.975C18.4837 15.0392 18.1142 15.1147 17.7916 15.2959C17.6303 15.3865 17.4825 15.5035 17.3672 15.6479C17.2518 15.7924 17.1698 15.9655 17.1432 16.1486C17.1177 16.3252 17.1445 16.5068 17.2058 16.6742C17.2672 16.8415 17.3634 16.9946 17.476 17.1329C17.7011 17.4095 17.9896 17.6257 18.2554 17.8632C18.5212 18.1007 18.769 18.3632 19.065 18.56C19.2135 18.6583 19.3747 18.7397 19.5463 18.7876C19.7179 18.8354 19.9008 18.849 20.0754 18.8132C20.2564 18.7761 20.424 18.6873 20.5707 18.5749C20.7174 18.4625 20.8445 18.3269 20.965 18.1868C21.2062 17.9068 21.4314 17.5999 21.7488 17.4107L21.7492 17.4109Z" fill="url(#paint13_radial_3_750)"/>
</g>
<path d="M33.613 29.426C34.375 30.039 34.859 30.966 35.009 31.932C35.126 32.686 35.049 33.46 34.879 34.202C34.709 34.944 34.447 35.665 34.186 36.382C34.082 36.668 33.978 36.957 33.936 37.258C33.894 37.559 33.921 37.878 34.066 38.146C34.233 38.452 34.544 38.663 34.878 38.763C35.2111 38.8579 35.5636 38.8624 35.899 38.776C36.233 38.693 36.545 38.53 36.817 38.319C37.507 37.782 37.925 36.949 38.087 36.089C38.249 35.229 38.174 34.342 38.024 33.479C37.819 32.304 37.474 31.155 37.037 30.046C36.715 29.23 36.337 28.428 35.811 27.726C35.295 27.04 34.645 26.462 34.141 25.768C33.791 25.286 33.509 24.748 33.088 24.324C32.8808 24.1081 32.6308 23.9378 32.354 23.824C32.0756 23.7107 31.7681 23.69 31.477 23.765C31.099 23.872 30.789 24.17 30.625 24.527C30.461 24.884 30.432 25.294 30.495 25.682C30.578 26.182 30.805 26.647 31.065 27.084C31.355 27.577 31.695 28.052 32.135 28.419C32.595 28.802 33.15 29.054 33.615 29.419L33.613 29.426Z" fill="#020204"/>
<mask id="mask2_3_750" style="mask-type:luminance" maskUnits="userSpaceOnUse" x="30" y="23" width="9" height="16">
<path d="M33.6126 29.4263C34.3798 30.0429 34.8594 30.9691 35.0081 31.9319C35.2408 33.4388 34.7089 34.9475 34.186 36.3828C34.0819 36.669 33.9769 36.959 33.9355 37.259C33.894 37.559 33.9202 37.8788 34.0668 38.1466C34.233 38.4503 34.5427 38.6633 34.8788 38.7632C35.209 38.8614 35.5666 38.8584 35.9009 38.7748C36.2351 38.6911 36.5461 38.5282 36.8174 38.3188C37.5162 37.7802 37.9343 36.9427 38.0926 36.0837C38.251 35.2246 38.1743 34.3388 38.0225 33.4785C37.8155 32.3048 37.4729 31.1561 37.0355 30.0453C36.7144 29.2303 36.3382 28.4282 35.8089 27.7255C35.293 27.0403 34.6405 26.4604 34.138 25.767C33.7896 25.2855 33.5131 24.7487 33.0933 24.3255C32.8834 24.1138 32.6371 23.9328 32.3575 23.8245C32.0778 23.7161 31.7627 23.6837 31.4733 23.7641C31.2814 23.8175 31.1045 23.9191 30.9584 24.0522C30.8122 24.1854 30.6966 24.3498 30.615 24.5286C30.4517 24.886 30.4266 25.2942 30.4919 25.6807C30.5761 26.1796 30.8036 26.6444 31.0614 27.0824C31.3514 27.5749 31.6886 28.0494 32.1306 28.4169C32.5897 28.7986 33.1459 29.0525 33.6112 29.4265" fill="white"/>
</mask>
<g mask="url(#mask2_3_750)">
<g filter="url(#filter15_f_3_750)">
<path d="M31.8187 28.2448L32.01 28.4171C32.4776 28.7997 32.7266 29.2294 33.2008 29.6042C33.9768 30.2173 34.7642 31.2756 34.9165 32.2422C35.0354 32.9962 34.8782 33.4058 34.6863 34.2949C34.4944 35.184 33.9505 36.4429 33.6567 37.3002C33.5394 37.6422 33.8939 37.501 33.8475 37.8614C33.8241 38.0384 33.8226 38.2175 33.843 38.3949L33.8519 38.2919C33.9084 37.8005 34.0589 37.328 34.223 36.8645C34.5385 35.9724 34.9007 35.0984 35.1504 34.183C35.4001 33.2675 35.3723 32.6092 35.2422 31.8225C35.0783 30.8335 34.5029 29.9202 33.6881 29.3173C33.1116 28.891 32.4323 28.6177 31.819 28.2448H31.8187Z" fill="#838384"/>
</g>
</g>
<g opacity="0.25" filter="url(#filter16_f_3_750)">
<path d="M19.9359 27.6905C20.0632 27.8814 19.8568 28.5395 22.8225 28.1183C22.8225 28.1183 22.3017 28.1755 21.7883 28.2942C20.9901 28.5613 20.2947 28.86 19.7582 29.2555C19.2267 29.6466 18.8376 30.157 18.3499 30.5955C18.3499 30.5955 19.1397 29.1524 19.3365 28.7182C19.5333 28.2839 19.3035 28.3048 19.4594 27.6642C19.6152 27.0236 19.9962 26.4107 19.9962 26.4107C19.9962 26.4107 19.6851 27.3139 19.9359 27.6904V27.6905Z" fill="url(#paint14_radial_3_750)"/>
</g>
<g opacity="0.42" filter="url(#filter17_f_3_750)">
<path d="M29.4725 27.5183C28.8682 27.9392 28.514 27.8895 27.7806 27.9718C27.0472 28.0541 25.0627 28.0244 25.0627 28.0244C25.0627 28.0244 25.3501 28.019 25.9869 28.1376C26.6237 28.2562 27.9226 28.3696 28.654 28.648C29.3854 28.9265 29.652 29.0059 30.0966 29.2869C30.7292 29.687 31.1936 30.3136 31.7985 30.752C31.7985 30.752 31.8278 30.1703 31.5836 29.7359C31.3393 29.3015 30.6817 28.6167 30.4898 27.9773C30.2979 27.3378 30.2049 26.0818 30.2049 26.0818C30.2049 26.0818 30.0772 27.0971 29.4727 27.5181L29.4725 27.5183Z" fill="url(#paint15_radial_3_750)"/>
</g>
<g opacity="0.2" filter="url(#filter18_f_3_750)">
<path d="M23.7882 26.6192L23.7009 27.1633C23.6833 27.2523 23.6639 27.3412 23.6307 27.4255C23.5975 27.5098 23.5501 27.5898 23.4829 27.6505C23.4241 27.7036 23.3522 27.7401 23.28 27.7732C22.9984 27.9022 22.697 27.9878 22.3896 28.0262L22.7573 28.0598C22.8343 28.0682 22.9116 28.0776 22.9868 28.0969C23.0619 28.1162 23.1352 28.147 23.1977 28.1915C23.2664 28.2416 23.3202 28.3102 23.3605 28.3851C23.4407 28.5344 23.4675 28.7062 23.4824 28.8736C23.5012 29.0895 23.5027 29.307 23.4866 29.523C23.5011 29.3784 23.5314 29.2354 23.5767 29.0974C23.6585 28.8486 23.7902 28.6153 23.9676 28.4227C24.038 28.3463 24.1154 28.2761 24.2005 28.2163C24.4645 28.0322 24.7879 27.9535 25.1069 27.9957C24.7833 28.0089 24.4651 27.9101 24.2058 27.716C24.0753 27.6176 23.9615 27.4951 23.8826 27.3521C23.7601 27.1279 23.7265 26.8658 23.7886 26.6179L23.7882 26.6192Z" fill="url(#paint16_radial_3_750)"/>
</g>
<g opacity="0.1" filter="url(#filter19_f_3_750)">
<path d="M23.0153 30.8831C22.8612 31.4696 22.7554 32.0677 22.6989 32.6714C22.6191 33.5247 22.6383 34.384 22.5924 35.2399C22.5549 35.9662 22.4684 36.6999 22.5944 37.4162C22.6546 37.7578 22.7627 38.0907 22.9145 38.4026C22.9386 38.2836 22.9562 38.1633 22.9673 38.0424C23.0208 37.4617 22.923 36.8791 22.8899 36.2969C22.8321 35.2763 22.9734 34.2551 23.0309 33.2357C23.075 32.452 23.0698 31.6663 23.0152 30.8832L23.0153 30.8831Z" fill="black"/>
</g>
<g filter="url(#filter20_f_3_750)">
<path d="M30.0535 22.0875C29.7827 22.3343 30.1805 22.7048 30.3692 23.1402C30.4864 23.4108 30.8109 23.7922 31.1247 23.7312C31.3608 23.6852 31.5073 23.3454 31.485 23.1061C31.4419 22.6439 31.0519 22.5358 30.7689 22.3771C30.5446 22.2513 30.2436 21.9144 30.0536 22.0877L30.0535 22.0875Z" fill="#838384"/>
</g>
<g opacity="0.2" filter="url(#filter21_f_3_750)">
<path d="M94.0464 42.7573C94.1634 42.9573 93.8444 43.1817 93.6842 43.3508C93.3315 43.7232 92.8545 43.9648 92.4113 44.2301C91.6506 44.6854 90.788 44.9695 90.0419 45.4473C89.5425 45.7671 89.0993 46.164 88.645 46.5423C88.2563 46.866 87.9399 47.2783 87.509 47.5466C87.0781 47.815 86.6029 48.067 86.0953 48.1291C85.4801 48.2043 84.8255 48.097 84.256 47.858C83.8579 47.6909 83.4636 47.4347 83.2317 47.0777C82.9985 46.7188 82.9667 46.2587 82.9445 45.8346C82.905 45.0755 83.1198 44.3239 83.2246 43.5707C83.3121 42.9442 83.463 42.3253 83.5153 41.6949C83.6105 40.5498 83.415 39.3891 83.5565 38.2486C83.6021 37.8808 83.5333 37.4144 83.8153 37.1659C84.0774 36.9348 84.5137 37.0256 84.8675 37.0327C85.2977 37.0415 85.7205 37.1517 86.1396 37.2478C86.4041 37.3083 86.6539 37.4244 86.9206 37.4745C87.3631 37.5576 87.8167 37.6081 88.267 37.5938C88.7538 37.5782 89.2236 37.3688 89.7107 37.3727C89.9103 37.3743 90.1125 37.408 90.3006 37.4729C90.4914 37.5387 90.6849 37.624 90.8309 37.7604C90.9422 37.8643 91.0149 38.0055 91.0728 38.1449C91.1592 38.3531 91.1877 38.5806 91.2229 38.8025C91.254 38.9997 91.2032 39.2122 91.2761 39.3988C91.5115 40 91.9935 40.4919 92.4627 40.9449C92.6869 41.1873 92.9811 41.3876 93.256 41.5496C93.548 41.7218 93.8178 41.8565 93.9587 42.1529C94.0436 42.3389 93.8887 42.6239 94.0465 42.7574L94.0464 42.7573Z" fill="url(#paint17_linear_3_750)"/>
</g>
<mask id="mask3_3_750" style="mask-type:luminance" maskUnits="userSpaceOnUse" x="30" y="37" width="12" height="12">
<path d="M41.2416 42.7573C41.3555 42.9573 41.0449 43.1817 40.8888 43.3508C40.5454 43.7232 40.0809 43.9648 39.6492 44.2301C38.9085 44.6854 38.0685 44.9695 37.3419 45.4473C36.8555 45.7671 36.424 46.164 35.9816 46.5423C35.6031 46.866 35.2949 47.2783 34.8753 47.5466C34.4557 47.8149 33.993 48.067 33.4987 48.1291C32.8996 48.2043 32.2621 48.097 31.7074 47.858C31.3198 47.6909 30.9358 47.4347 30.71 47.0777C30.4829 46.7188 30.452 46.2587 30.4303 45.8346C30.3918 45.0755 30.601 44.3239 30.7031 43.5707C30.7883 42.9442 30.9352 42.3253 30.9862 41.6949C31.0789 40.5498 30.8885 39.3891 31.0263 38.2486C31.0707 37.8807 31.0037 37.4144 31.2783 37.1659C31.5336 36.9348 31.9585 37.0256 32.3029 37.0327C32.7219 37.0415 33.1337 37.1517 33.5418 37.2478C33.7993 37.3083 34.0426 37.4244 34.3024 37.4745C34.7333 37.5576 35.1749 37.6081 35.6135 37.5938C36.0876 37.5782 36.545 37.3688 37.0194 37.3727C37.2138 37.3743 37.4107 37.408 37.5938 37.4729C37.7796 37.5387 37.9681 37.624 38.1103 37.7604C38.2186 37.8643 38.2894 38.0055 38.3458 38.1449C38.43 38.3531 38.4578 38.5806 38.492 38.8025C38.5223 38.9997 38.4728 39.2121 38.5438 39.3988C38.773 40 39.2424 40.4919 39.6994 40.9449C39.9177 41.1873 40.2042 41.3876 40.4718 41.5496C40.7562 41.7217 41.019 41.8565 41.1561 42.1529C41.2388 42.3389 41.088 42.6239 41.2417 42.7574L41.2416 42.7573Z" fill="white"/>
</mask>
<g mask="url(#mask3_3_750)">
<path d="M41.2416 42.7573C41.1576 42.9727 41.0378 43.174 40.8888 43.3508C40.5601 43.741 40.1037 43.9984 39.6492 44.2301C38.8739 44.6252 38.0707 44.9719 37.3419 45.4473C36.8537 45.7657 36.403 46.1396 35.9816 46.5423C35.6212 46.8868 35.2794 47.2546 34.8753 47.5466C34.4674 47.841 33.996 48.0544 33.4987 48.1291C32.8937 48.2199 32.2686 48.1024 31.7074 47.858C31.3144 47.6868 30.9363 47.4418 30.71 47.0777C30.4828 46.7121 30.4309 46.265 30.4303 45.8346C30.4293 45.0734 30.5703 44.3189 30.7031 43.5707C30.8133 42.9479 30.9186 42.3238 30.9862 41.6949C31.1093 40.5513 31.1085 39.396 31.0263 38.2486C31.0138 38.0565 30.9965 37.8625 31.0253 37.6719C31.0541 37.4814 31.1324 37.2915 31.2783 37.1659C31.4132 37.0498 31.594 36.9985 31.7718 36.9888C31.9497 36.979 32.1268 37.0072 32.3029 37.0329C32.7179 37.0935 33.1362 37.1412 33.5418 37.2479C33.7977 37.3152 34.0469 37.4058 34.3024 37.4746C34.7286 37.5899 35.1749 37.645 35.6135 37.5939C36.0857 37.5388 36.5442 37.3613 37.0194 37.3728C37.2144 37.3776 37.4077 37.4144 37.5938 37.473C37.7836 37.5329 37.9709 37.6186 38.1103 37.7605C38.2163 37.8682 38.2902 38.0041 38.3458 38.145C38.4285 38.3547 38.4729 38.5781 38.492 38.8027C38.5089 39.0016 38.5061 39.2027 38.5438 39.3989C38.6058 39.7215 38.7752 40.0156 38.9857 40.2676C39.1963 40.5196 39.4492 40.7336 39.6992 40.945C39.9497 41.1554 40.2015 41.3653 40.4717 41.5498C40.5985 41.6364 40.7292 41.7176 40.8496 41.8128C40.97 41.908 41.0807 42.0191 41.1559 42.1529C41.258 42.3345 41.2892 42.5547 41.2414 42.7574L41.2416 42.7573Z" fill="url(#paint18_linear_3_750)"/>
</g>
<mask id="mask4_3_750" style="mask-type:luminance" maskUnits="userSpaceOnUse" x="30" y="37" width="12" height="12">
<path d="M41.2416 42.7573C41.3555 42.9573 41.0449 43.1817 40.8888 43.3508C40.5454 43.7232 40.0809 43.9648 39.6492 44.2301C38.9085 44.6854 38.0685 44.9695 37.3419 45.4473C36.8555 45.7671 36.424 46.164 35.9816 46.5423C35.6031 46.866 35.2949 47.2783 34.8753 47.5466C34.4557 47.8149 33.993 48.067 33.4987 48.1291C32.8996 48.2043 32.2621 48.097 31.7074 47.858C31.3198 47.6909 30.9358 47.4347 30.71 47.0777C30.4829 46.7188 30.452 46.2587 30.4303 45.8346C30.3918 45.0755 30.601 44.3239 30.7031 43.5707C30.7883 42.9442 30.9352 42.3253 30.9862 41.6949C31.0789 40.5498 30.8885 39.3891 31.0263 38.2486C31.0707 37.8807 31.0037 37.4144 31.2783 37.1659C31.5336 36.9348 31.9585 37.0256 32.3029 37.0327C32.7219 37.0415 33.1337 37.1517 33.5418 37.2478C33.7993 37.3083 34.0426 37.4244 34.3024 37.4745C34.7333 37.5576 35.1749 37.6081 35.6135 37.5938C36.0876 37.5782 36.545 37.3688 37.0194 37.3727C37.2138 37.3743 37.4107 37.408 37.5938 37.4729C37.7796 37.5387 37.9681 37.624 38.1103 37.7604C38.2186 37.8643 38.2894 38.0055 38.3458 38.1449C38.43 38.3531 38.4578 38.5806 38.492 38.8025C38.5223 38.9997 38.4728 39.2121 38.5438 39.3988C38.773 40 39.2424 40.4919 39.6994 40.9449C39.9177 41.1873 40.2042 41.3876 40.4718 41.5496C40.7562 41.7217 41.019 41.8565 41.1561 42.1529C41.2388 42.3389 41.088 42.6239 41.2417 42.7574L41.2416 42.7573Z" fill="white"/>
</mask>
<g mask="url(#mask4_3_750)">
<g filter="url(#filter22_f_3_750)">
<path d="M40.8513 42.3625C40.7737 42.5567 40.6649 42.7369 40.5292 42.8961C40.2283 43.2486 39.8115 43.479 39.3971 43.6865C38.689 44.041 37.9562 44.3526 37.2902 44.7806C36.845 45.0667 36.4334 45.4027 36.0479 45.7652C35.7184 46.0749 35.4059 46.406 35.0375 46.668C34.6642 46.9336 34.2336 47.1249 33.7803 47.1916C33.2279 47.2731 32.6579 47.1675 32.1446 46.9479C31.7867 46.7948 31.441 46.5759 31.2337 46.2464C31.0275 45.9186 30.9794 45.5162 30.9782 45.1288C30.9766 44.4443 31.1057 43.7673 31.2274 43.0936C31.3285 42.5337 31.4247 41.9728 31.486 41.4072C31.5975 40.3791 31.5922 39.3407 31.5226 38.3089C31.5109 38.136 31.4975 37.9614 31.5241 37.7903C31.5506 37.6192 31.6215 37.4487 31.7528 37.3356C31.8759 37.2295 32.0413 37.183 32.2037 37.1745C32.3662 37.166 32.5278 37.1923 32.6885 37.2159C33.0672 37.2716 33.4491 37.3136 33.8196 37.4091C34.0532 37.4695 34.2811 37.5509 34.5142 37.6131C34.9037 37.717 35.3111 37.7665 35.7117 37.7203C36.1426 37.6706 36.5618 37.5111 36.9956 37.5215C37.1735 37.5259 37.3501 37.5591 37.5204 37.6117C37.6935 37.665 37.8649 37.7412 37.992 37.8701C38.088 37.9672 38.1543 38.0898 38.207 38.2158C38.2854 38.4033 38.3364 38.6037 38.3405 38.807C38.3449 39.0192 38.2984 39.2323 38.3272 39.4425C38.3505 39.6132 38.4228 39.7742 38.5151 39.9197C38.6074 40.0653 38.7198 40.1966 38.8312 40.3281C39.0462 40.5824 39.2621 40.8413 39.5317 41.0364C39.8389 41.2587 40.2034 41.3884 40.5207 41.596C40.6153 41.6579 40.7068 41.7278 40.7735 41.8189C40.8291 41.8966 40.8652 41.9866 40.8788 42.0812C40.8924 42.1758 40.8831 42.2722 40.8516 42.3625H40.8513Z" fill="#CD8907"/>
</g>
</g>
<mask id="mask5_3_750" style="mask-type:luminance" maskUnits="userSpaceOnUse" x="30" y="37" width="12" height="12">
<path d="M41.2415 42.7573C41.3554 42.9573 41.0448 43.1818 40.8888 43.3508C40.5452 43.7233 40.0807 43.9648 39.6489 44.2302C38.9082 44.6855 38.0683 44.9711 37.3416 45.4473C36.8553 45.7671 36.4239 46.1642 35.9812 46.5423C35.6027 46.866 35.2946 47.2786 34.8748 47.5466C34.455 47.8146 33.9924 48.0668 33.4981 48.1292C32.8989 48.2045 32.2615 48.097 31.7084 47.8581C31.3207 47.6909 30.9353 47.4345 30.711 47.0778C30.4839 46.7189 30.4528 46.2589 30.4314 45.8347C30.3927 45.0756 30.602 44.324 30.7042 43.5709C30.7893 42.9442 30.9362 42.3252 30.9873 41.6951C31.0799 40.5501 30.8897 39.3893 31.0274 38.2487C31.0703 37.8809 31.0048 37.4146 31.2794 37.1661C31.5346 36.935 31.9594 37.0271 32.3039 37.033C32.7229 37.042 33.1347 37.1522 33.5426 37.248C33.8003 37.3085 34.0434 37.4248 34.3033 37.4749C34.7328 37.558 35.1757 37.6085 35.6144 37.5941C36.0886 37.5787 36.5459 37.369 37.0203 37.3731C37.2148 37.3746 37.4116 37.4086 37.5949 37.4734C37.7806 37.5391 37.9691 37.6247 38.1113 37.7608C38.2197 37.8648 38.2902 38.0059 38.3467 38.1467C38.4308 38.3551 38.4586 38.5823 38.4927 38.8043C38.523 39.0014 38.4735 39.2141 38.5447 39.4004C38.7737 40.0017 39.2433 40.4936 39.7 40.9465C39.9184 41.1888 40.2049 41.3892 40.4726 41.5513C40.7568 41.7234 41.0195 41.8581 41.1569 42.1545C41.2395 42.3405 41.0888 42.6256 41.2426 42.7591L41.2415 42.7573Z" fill="white"/>
</mask>
<g mask="url(#mask5_3_750)">
<g filter="url(#filter23_f_3_750)">
<path d="M40.8072 42.1437C40.721 42.339 40.6093 42.521 40.4765 42.6824C40.1682 43.0572 39.752 43.3153 39.3135 43.4808C38.5916 43.7535 37.8036 43.7901 37.0951 44.1007C36.6633 44.2899 36.2747 44.575 35.881 44.8447C35.5629 45.0623 35.2379 45.2723 34.8885 45.4245C34.4941 45.5966 34.0745 45.693 33.6535 45.761C33.3858 45.8042 33.1148 45.8357 32.8444 45.8207C32.5739 45.8057 32.3026 45.7424 32.0641 45.6046C31.8831 45.4999 31.7205 45.3494 31.6237 45.1542C31.5163 44.9372 31.4977 44.6825 31.5003 44.4364C31.5069 43.781 31.6472 43.1327 31.6429 42.4773C31.6391 41.9068 31.5262 41.3435 31.4937 40.7741C31.4311 39.6789 31.6662 38.5647 31.4593 37.4904C31.4264 37.3184 31.3817 37.1466 31.3839 36.971C31.385 36.883 31.3982 36.795 31.429 36.7136C31.4598 36.6323 31.5096 36.5585 31.5757 36.5071C31.6316 36.4639 31.6974 36.4376 31.7651 36.4258C31.8329 36.4139 31.9022 36.4162 31.9702 36.4268C32.1059 36.448 32.2353 36.5012 32.3675 36.5406C32.7457 36.6533 33.1453 36.6508 33.5296 36.7359C33.7708 36.7893 34.0045 36.8763 34.2431 36.9418C34.644 37.0498 35.0621 37.0981 35.4732 37.0498C35.9156 36.9981 36.3476 36.8376 36.7923 36.8492C36.9745 36.8538 37.1555 36.8878 37.3313 36.9402C37.5071 36.9927 37.6828 37.0668 37.8158 37.2011C37.9117 37.298 37.9804 37.4218 38.0366 37.55C38.1182 37.737 38.175 37.9405 38.1737 38.147C38.173 38.2546 38.1565 38.3613 38.1469 38.4681C38.1373 38.5749 38.1343 38.6848 38.1598 38.7887C38.1853 38.8926 38.2391 38.9874 38.3006 39.0727C38.362 39.1581 38.4316 39.2363 38.495 39.32C38.6728 39.5542 38.7999 39.8271 38.9384 40.0903C39.0768 40.3534 39.2322 40.614 39.4509 40.8034C39.7487 41.0615 40.135 41.1646 40.4669 41.3684C40.5642 41.4281 40.6583 41.498 40.7266 41.5937C40.7813 41.6707 40.8174 41.7613 40.8314 41.8572C40.8454 41.953 40.837 42.0512 40.8069 42.1426L40.8072 42.1437Z" fill="#F5C021"/>
</g>
</g>
<g filter="url(#filter24_f_3_750)">
<path d="M31.384 37.5933C31.7944 37.4822 32.1439 37.7933 32.4415 38.0282C32.6338 38.1923 32.9116 38.1509 33.1476 38.1587C33.5384 38.1446 33.9273 38.2242 34.3184 38.1757C35.0881 38.1106 35.8426 37.9215 36.6159 37.8876C36.9854 37.8643 37.4001 37.8429 37.7192 38.0586C37.8486 38.1483 38.0383 38.5271 38.1659 38.3849C38.1133 37.9868 37.8181 37.6013 37.4219 37.4953C37.1118 37.4465 36.7956 37.5316 36.4837 37.5041C35.5538 37.4819 34.6307 37.3093 33.6986 37.3588C33.0502 37.3644 32.4025 37.3344 31.7552 37.3091C31.5009 37.2571 31.4111 37.4832 31.2729 37.5696" fill="url(#paint19_linear_3_750)"/>
</g>
<g opacity="0.75" filter="url(#filter25_f_3_750)">
<path d="M33.2238 30.0243C33.3725 30.0013 34.2906 30.7818 34.1651 31.0731C34.0396 31.3643 33.8038 31.1882 33.6351 31.1902C33.4664 31.1922 33.005 31.4016 32.9277 31.2695C32.8504 31.1373 33.1318 30.8285 33.279 30.5706C33.3976 30.3628 33.075 30.0488 33.2238 30.0257L33.2238 30.0243Z" fill="#7C7C7C"/>
</g>
<g opacity="0.25" filter="url(#filter26_f_3_750)">
<path d="M20.2688 25.1114C20.254 24.9316 19.9972 24.9047 19.8827 24.9943C19.7859 25.0701 19.6953 25.3289 19.7787 25.4301C19.9143 25.5942 20.2891 25.3581 20.2688 25.1117L20.2688 25.1114Z" fill="#7C7C7C"/>
</g>
<g opacity="0.35" filter="url(#filter27_f_3_750)">
<path d="M36.9173 38.2183C36.8468 38.0803 36.7185 37.9771 36.5753 37.9173C36.4322 37.8576 36.2751 37.8384 36.1201 37.8397C35.8101 37.8422 35.502 37.9228 35.1932 37.896C34.9323 37.8735 34.6847 37.7754 34.4291 37.7135C34.1665 37.6509 33.8877 37.6259 33.6268 37.6956C33.348 37.7715 33.102 37.9579 32.9479 38.2023C32.8121 38.4178 32.7475 38.6724 32.7275 38.9263C32.7074 39.1802 32.7291 39.4356 32.7548 39.6892C32.7733 39.8725 32.7941 40.0562 32.8384 40.2353C32.8828 40.4144 32.9517 40.5889 33.0596 40.7382C33.215 40.9532 33.4458 41.1065 33.6947 41.1986C34.1059 41.3488 34.5582 41.3409 34.9639 41.1764C35.6728 40.8686 36.2728 40.3166 36.6386 39.6357C36.7695 39.3919 36.8712 39.1321 36.937 38.8634C36.963 38.7566 36.9836 38.6477 36.9846 38.5378C36.9856 38.4278 36.9662 38.316 36.9162 38.2183H36.9173Z" fill="url(#paint20_radial_3_750)"/>
</g>
<g opacity="0.35" filter="url(#filter28_f_3_750)">
<path d="M36.9173 38.0736C36.8468 37.9738 36.7185 37.8991 36.5753 37.856C36.4322 37.8128 36.2751 37.7989 36.1201 37.7998C35.8101 37.8016 35.502 37.8599 35.1932 37.8406C34.9323 37.8243 34.6847 37.7534 34.4291 37.7086C34.1665 37.6633 33.8877 37.6452 33.6268 37.6957C33.348 37.7505 33.102 37.8853 32.9479 38.062C32.8121 38.2177 32.7475 38.4018 32.7275 38.5854C32.7074 38.7689 32.7291 38.9536 32.7548 39.1368C32.7733 39.2694 32.7941 39.4022 32.8384 39.5317C32.8828 39.6612 32.9517 39.7873 33.0596 39.8952C33.215 40.0506 33.4458 40.1615 33.6947 40.228C34.1059 40.3366 34.5582 40.3309 34.9639 40.212C35.6728 39.9895 36.2728 39.5904 36.6386 39.0982C36.7695 38.922 36.8712 38.7341 36.937 38.5399C36.963 38.4627 36.9836 38.384 36.9846 38.3045C36.9856 38.225 36.9662 38.1442 36.9162 38.0736H36.9173Z" fill="url(#paint21_radial_3_750)"/>
</g>
<path d="M37.5065 36.9267C37.4558 36.7884 37.3665 36.6659 37.2573 36.5672C37.148 36.4685 37.0193 36.3928 36.8836 36.3352C36.6124 36.2199 36.3174 36.1773 36.0278 36.1227L35.2101 35.9628C34.9258 35.9144 34.6317 35.8836 34.3502 35.9471C34.1039 36.0026 33.8762 36.13 33.6898 36.3003C33.5034 36.4707 33.3579 36.6831 33.2533 36.9141C33.0689 37.3187 33.0109 37.774 33.0461 38.2172C33.0724 38.547 33.1557 38.8869 33.3731 39.1366C33.5484 39.3383 33.7973 39.4642 34.0537 39.54C34.4953 39.6706 34.9765 39.6637 35.4141 39.5206C36.1417 39.2746 36.771 38.8013 37.209 38.1704C37.3518 37.9637 37.4736 37.7385 37.5288 37.4936C37.5709 37.3057 37.5724 37.1078 37.5065 36.928V36.9267Z" fill="#020204"/>
<mask id="mask6_3_750" style="mask-type:luminance" maskUnits="userSpaceOnUse" x="33" y="35" width="5" height="5">
<path d="M37.5065 36.9266C37.4558 36.7884 37.3665 36.6659 37.2573 36.5671C37.148 36.4684 37.0193 36.3928 36.8836 36.3352C36.6124 36.2199 36.3174 36.1773 36.0278 36.1227L35.2101 35.9628C34.9258 35.9144 34.6317 35.8836 34.3502 35.9471C34.1039 36.0026 33.8762 36.13 33.6898 36.3003C33.5034 36.4707 33.3579 36.6831 33.2533 36.9141C33.0689 37.3187 33.0109 37.774 33.0461 38.2172C33.0724 38.547 33.1557 38.8869 33.373 39.1366C33.5484 39.3383 33.7973 39.4642 34.0537 39.54C34.4953 39.6706 34.9765 39.6637 35.4141 39.5206C36.1417 39.2746 36.771 38.8013 37.209 38.1704C37.3518 37.9637 37.4736 37.7385 37.5288 37.4936C37.5709 37.3057 37.5724 37.1078 37.5065 36.928" fill="white"/>
</mask>
<g mask="url(#mask6_3_750)">
<g filter="url(#filter29_f_3_750)">
<path d="M34.5043 35.8153C34.436 35.8191 34.368 35.8269 34.3007 35.8389C33.8661 35.9162 33.4681 36.1909 33.2439 36.5709C33.0857 36.8418 33.0134 37.1544 33.0365 37.4673C33.0456 37.2491 33.1029 37.0355 33.2087 36.8447C33.3883 36.5213 33.7138 36.2773 34.0778 36.2107C34.3032 36.1696 34.5327 36.1944 34.7589 36.2224C34.976 36.2495 35.1948 36.2779 35.4088 36.3243C35.7395 36.3959 36.0669 36.5059 36.3445 36.7C36.4091 36.7451 36.4698 36.7965 36.5206 36.8566C36.5715 36.9168 36.611 36.9866 36.6263 37.0641C36.6486 37.1773 36.6163 37.2962 36.5599 37.3967C36.5036 37.4973 36.4265 37.5855 36.3445 37.6668C36.2781 37.7327 36.2073 37.7963 36.1371 37.8585C36.4577 37.7963 36.7824 37.7084 37.049 37.5219C37.1617 37.443 37.2638 37.3484 37.3308 37.2283C37.3978 37.1081 37.4262 36.9627 37.3934 36.8291C37.3713 36.7389 37.322 36.656 37.2604 36.5864C37.1988 36.5169 37.1251 36.4597 37.0491 36.4064C36.7134 36.1713 36.3207 36.0206 35.914 35.9718C35.6534 35.9238 35.3904 35.8833 35.1273 35.8503C34.9215 35.8245 34.7115 35.8036 34.5048 35.8152L34.5043 35.8153Z" fill="url(#paint22_radial_3_750)"/>
</g>
</g>
<mask id="mask7_3_750" style="mask-type:luminance" maskUnits="userSpaceOnUse" x="33" y="35" width="5" height="5">
<path d="M37.5065 36.9266C37.4558 36.7884 37.3665 36.6659 37.2573 36.5671C37.148 36.4684 37.0193 36.3928 36.8836 36.3352C36.6124 36.2199 36.3174 36.1773 36.0278 36.1227L35.2101 35.9628C34.9258 35.9144 34.6317 35.8836 34.3502 35.9471C34.1039 36.0026 33.8762 36.13 33.6898 36.3003C33.5034 36.4707 33.3579 36.6831 33.2533 36.9141C33.0689 37.3187 33.0109 37.774 33.0461 38.2172C33.0724 38.547 33.1557 38.8869 33.373 39.1366C33.5484 39.3383 33.7973 39.4642 34.0537 39.54C34.4953 39.6706 34.9765 39.6637 35.4141 39.5206C36.1417 39.2746 36.771 38.8013 37.209 38.1704C37.3518 37.9637 37.4736 37.7385 37.5288 37.4936C37.5709 37.3057 37.5724 37.1078 37.5065 36.928" fill="white"/>
</mask>
<g mask="url(#mask7_3_750)">
<g filter="url(#filter30_f_3_750)">
<path d="M34.5043 35.8153C34.436 35.8191 34.368 35.8269 34.3007 35.8389C33.8661 35.9162 33.4681 36.1909 33.2439 36.5709C33.0857 36.8418 33.0134 37.1544 33.0365 37.4673C33.0456 37.2491 33.1029 37.0355 33.2087 36.8447C33.3883 36.5213 33.7138 36.2773 34.0778 36.2107C34.3032 36.1696 34.5327 36.1944 34.7589 36.2224C34.976 36.2495 35.1948 36.2779 35.4088 36.3243C35.7395 36.3959 36.0669 36.5059 36.3445 36.7C36.4091 36.7451 36.4698 36.7965 36.5206 36.8566C36.5715 36.9168 36.611 36.9866 36.6263 37.0641C36.6486 37.1773 36.6163 37.2962 36.5599 37.3967C36.5036 37.4973 36.4265 37.5855 36.3445 37.6668C36.2781 37.7327 36.2073 37.7963 36.1371 37.8585C36.4577 37.7963 36.7824 37.7084 37.049 37.5219C37.1617 37.443 37.2638 37.3484 37.3308 37.2283C37.3978 37.1081 37.4262 36.9627 37.3934 36.8291C37.3713 36.7389 37.322 36.656 37.2604 36.5864C37.1988 36.5169 37.1251 36.4597 37.0491 36.4064C36.7134 36.1713 36.3207 36.0206 35.914 35.9718C35.6534 35.9238 35.3904 35.8833 35.1273 35.8503C34.9215 35.8245 34.7115 35.8036 34.5048 35.8152L34.5043 35.8153Z" fill="url(#paint23_linear_3_750)"/>
</g>
</g>
<path d="M20.26 24.288L18.14 26.942C17.697 27.492 17.244 28.044 16.956 28.687C16.708 29.24 16.591 29.84 16.422 30.422C16.229 31.082 15.968 31.722 15.674 32.342L14.804 34.037C14.586 34.445 14.364 34.861 14.289 35.317C14.229 35.677 14.264 36.049 14.356 36.403C14.448 36.757 14.596 37.103 14.762 37.418C15.462 38.805 16.537 40.001 17.799 40.916C18.372 41.331 18.985 41.69 19.629 41.984C19.979 42.144 20.345 42.284 20.729 42.292C20.921 42.295 21.114 42.264 21.289 42.187C21.464 42.11 21.621 41.987 21.725 41.825C21.853 41.627 21.897 41.382 21.871 41.148C21.8401 40.9135 21.7582 40.6885 21.631 40.489C21.331 39.999 20.859 39.642 20.404 39.289L17.564 36.889C17.307 36.649 17.051 36.403 16.871 36.102C16.696 35.808 16.601 35.474 16.538 35.138C16.363 34.218 16.408 33.248 16.721 32.366C16.844 32.02 17.005 31.691 17.161 31.359C17.431 30.784 17.688 30.199 18.044 29.672C18.487 29.017 19.08 28.472 19.441 27.758C19.746 27.164 19.869 26.496 19.987 25.838L20.261 24.295L20.26 24.288Z" fill="#020204"/>
<mask id="mask8_3_750" style="mask-type:luminance" maskUnits="userSpaceOnUse" x="14" y="24" width="8" height="19">
<path d="M20.2045 24.3109C20.2045 24.3109 19.5649 25.1056 19.2153 25.5944C18.8657 26.0832 18.4967 26.4274 18.1397 26.941C17.7827 27.4545 17.2171 28.1224 16.956 28.6858C16.6948 29.2493 16.6654 29.8177 16.4217 30.4207C16.1781 31.0237 15.9583 31.7537 15.6739 32.3417C15.3896 32.9297 15.0013 33.5549 14.8046 34.0372C14.608 34.5196 14.3274 34.7542 14.29 35.3174C14.2527 35.8806 14.2178 36.3592 14.7625 37.4183C15.3073 38.4774 16.9215 40.1749 17.7991 40.9162C18.6767 41.6575 18.9753 41.8212 19.6282 41.9842C20.281 42.1471 21.3638 42.3597 21.7238 41.8251C22.0838 41.2905 22.0084 41.0779 21.6298 40.4891C21.2513 39.9002 21.0255 39.8249 20.4028 39.2899C19.7801 38.7549 18.0683 37.4269 17.5616 36.8799C17.0549 36.3329 16.6714 36.4525 16.8689 36.0928C17.0665 35.733 16.5925 35.5905 16.536 35.1291C16.4403 34.3469 16.6542 32.7868 16.7189 32.3567C16.7835 31.9267 16.8722 31.9905 17.1595 31.3496C17.4469 30.7088 17.6761 30.2694 18.0426 29.6628C18.4091 29.0561 19.123 28.3941 19.4393 27.749C19.7556 27.1039 19.8782 26.4062 19.9857 25.8303C20.0931 25.2543 20.2045 24.3109 20.2045 24.3109Z" fill="white"/>
</mask>
<g mask="url(#mask8_3_750)">
<g opacity="0.95" filter="url(#filter31_f_3_750)">
<path d="M18.2341 29.2785C17.943 29.5467 17.6918 29.8554 17.4885 30.1951C17.1543 30.7538 16.9573 31.3811 16.7146 31.9851C16.5337 32.4348 16.3232 32.8861 16.2978 33.37C16.2849 33.6185 16.3216 33.8668 16.33 34.1155C16.3384 34.3643 16.3153 34.6228 16.1923 34.84C16.0904 35.0217 15.9209 35.1645 15.7247 35.2339C15.9914 35.3237 16.2245 35.4925 16.3929 35.718C16.5326 35.9059 16.6219 36.1256 16.7432 36.3255C16.8417 36.4881 16.9627 36.6387 17.1118 36.757C17.2609 36.8754 17.4387 36.96 17.6275 36.9841C17.7574 36.9999 17.8891 36.9874 18.0137 36.9476C18.1384 36.9078 18.2529 36.8415 18.3496 36.7534C18.1085 34.4942 18.3293 32.1868 18.9947 30.0144C19.0367 29.8772 19.0808 29.739 19.0912 29.596C19.1016 29.4529 19.0749 29.3019 18.988 29.1879C18.9416 29.1271 18.8792 29.0789 18.8088 29.0491C18.7384 29.0193 18.6603 29.0084 18.5846 29.0175C18.509 29.0267 18.4356 29.0559 18.3742 29.1015C18.3128 29.1471 18.2637 29.2088 18.233 29.2787L18.2341 29.2785Z" fill="#7C7C7C"/>
</g>
</g>
<mask id="mask9_3_750" style="mask-type:luminance" maskUnits="userSpaceOnUse" x="10" y="36" width="13" height="13">
<path d="M15.1335 36.387C15.9258 36.2169 16.6364 36.9974 17.2463 37.5309C18.0512 38.2349 16.1755 40.7897 18.9053 40.0148C19.6394 39.8064 19.769 41.4318 20.1785 42.0757C20.6921 42.8834 21.6298 43.7897 21.8886 44.7112C22.087 45.4175 22.0568 46.0773 21.6848 46.7095C21.2376 47.4699 20.2079 48.016 19.3311 48.1137C18.6134 48.1939 17.8433 47.6333 17.1536 47.4185C15.6109 46.9383 14.1749 46.6895 12.632 46.2095L11.2579 45.7803C10.6942 45.6145 10.448 45.656 10.1656 45.1831C9.82956 44.6207 10.2508 43.9647 10.562 43.33C11.0718 42.2897 10.8015 41.0971 10.6198 40.1346C10.5043 39.5223 10.5372 39.1416 10.9634 38.783C11.5891 38.2564 12.7835 38.5911 13.5129 38.2716C14.2423 37.952 14.3476 36.5562 15.1334 36.3876L15.1335 36.387Z" fill="white"/>
</mask>
<g mask="url(#mask9_3_750)">
<path d="M15.1335 36.387C15.3339 36.304 15.5591 36.2888 15.7723 36.3282C15.9855 36.3675 16.1869 36.4597 16.3664 36.5814C16.7252 36.8252 16.9912 37.1799 17.2461 37.5309C17.8314 38.3368 18.3948 39.1596 18.9052 40.0148C19.3193 40.7085 19.6999 41.4249 20.1784 42.0758C20.4908 42.5006 20.8431 42.895 21.157 43.3186C21.4709 43.7422 21.7493 44.2024 21.8886 44.7111C22.0694 45.3721 21.9994 46.1006 21.6848 46.7094C21.4634 47.1378 21.1241 47.5051 20.7112 47.7541C20.2984 48.0031 19.8131 48.1316 19.3314 48.1136C18.5655 48.0848 17.8658 47.7021 17.1538 47.4184C15.7033 46.8407 14.1275 46.6593 12.6323 46.2094C12.1726 46.0711 11.7209 45.9075 11.2582 45.7802C11.0527 45.7239 10.8435 45.674 10.6494 45.5861C10.4552 45.4981 10.2736 45.3669 10.1656 45.1831C10.0822 45.0411 10.0469 44.8737 10.0491 44.7089C10.0514 44.544 10.09 44.3813 10.1461 44.2264C10.2583 43.9165 10.4396 43.6359 10.562 43.3299C10.7618 42.8301 10.7977 42.2792 10.7708 41.7416C10.7438 41.2039 10.6568 40.6712 10.6198 40.1345C10.6035 39.8947 10.5973 39.6518 10.643 39.416C10.6887 39.1801 10.7903 38.9494 10.9634 38.7828C11.123 38.6291 11.3348 38.5379 11.5516 38.4925C11.7685 38.4472 11.9919 38.4453 12.2135 38.4502C12.4351 38.4551 12.657 38.467 12.8779 38.4489C13.0989 38.4309 13.3205 38.3813 13.513 38.2713C13.6959 38.1669 13.8454 38.0114 13.9694 37.8412C14.0934 37.671 14.1937 37.4847 14.2964 37.3008C14.3991 37.1169 14.5053 36.9335 14.6398 36.7715C14.7744 36.6094 14.9392 36.4679 15.1337 36.3873L15.1335 36.387Z" fill="url(#paint24_linear_3_750)"/>
<g filter="url(#filter32_f_3_750)">
<path d="M15.4495 36.7327C15.6318 36.6593 15.8371 36.6513 16.0286 36.6947C16.2201 36.738 16.3981 36.8325 16.5532 36.9511C16.8636 37.1908 17.0793 37.529 17.2865 37.8617C17.7838 38.6675 18.2698 39.4818 18.729 40.3127C19.0768 40.9381 19.4085 41.577 19.8359 42.1515C20.1195 42.5326 20.443 42.8818 20.7325 43.2585C21.022 43.6351 21.2799 44.0454 21.4081 44.5027C21.5729 45.0922 21.5061 45.7428 21.2208 46.2855C21.0142 46.6769 20.7025 47.0028 20.3207 47.2266C19.9379 47.449 19.4995 47.5572 19.0572 47.5383C18.3559 47.5059 17.7156 47.1557 17.0555 46.9182C15.79 46.459 14.4184 46.3974 13.1203 46.0389C12.6549 45.9126 12.2013 45.7441 11.7337 45.6263C11.5267 45.574 11.3162 45.5314 11.1196 45.4484C10.9231 45.3654 10.738 45.2367 10.6314 45.052C10.5521 44.9145 10.5204 44.7528 10.5253 44.5942C10.5301 44.4357 10.5704 44.2811 10.6255 44.1315C10.7385 43.835 10.9161 43.5679 11.0301 43.2704C11.2029 42.8227 11.2242 42.3304 11.1921 41.8517C11.1601 41.3729 11.0769 40.8984 11.0477 40.4194C11.0347 40.2052 11.0327 39.9885 11.076 39.7786C11.1194 39.5687 11.2108 39.3652 11.3635 39.2134C11.5289 39.0493 11.7568 38.9599 11.9869 38.9248C12.217 38.8897 12.4511 38.905 12.6828 38.9257C12.9144 38.9464 13.1468 38.9724 13.3792 38.9585C13.6116 38.9446 13.8472 38.888 14.0393 38.7572C14.2143 38.6388 14.3457 38.4661 14.4457 38.2815C14.5456 38.0968 14.617 37.8988 14.6932 37.7031C14.7694 37.5075 14.8519 37.3121 14.9715 37.1395C15.0911 36.9669 15.2516 36.8132 15.4483 36.7342" fill="#D99A03"/>
</g>
<g filter="url(#filter33_f_3_750)">
<path d="M15.2808 36.2774C15.4574 36.1899 15.6653 36.1719 15.859 36.2114C16.0527 36.2509 16.232 36.3455 16.3846 36.4692C16.6896 36.7153 16.8831 37.0689 17.0635 37.4146C17.4775 38.2086 17.8631 39.0199 18.3585 39.7676C18.718 40.3088 19.1326 40.8153 19.4961 41.355C19.9891 42.087 20.3899 42.8922 20.5553 43.7546C20.6665 44.3348 20.663 44.9602 20.3834 45.4839C20.1993 45.8279 19.9012 46.1113 19.5488 46.2866C19.1965 46.4619 18.7919 46.5347 18.3977 46.4999C17.7771 46.4452 17.2134 46.1401 16.6294 45.9273C15.5928 45.5496 14.4726 45.4595 13.4059 45.1744C12.956 45.0543 12.5165 44.8995 12.0593 44.8054C11.8582 44.7633 11.653 44.7328 11.461 44.6602C11.2689 44.5877 11.0869 44.4676 10.9887 44.29C10.9198 44.165 10.8964 44.0187 10.9068 43.877C10.9172 43.7353 10.9594 43.5972 11.0152 43.4659C11.1264 43.2034 11.2907 42.9628 11.3784 42.6914C11.5053 42.2926 11.4532 41.8602 11.3579 41.4529C11.2625 41.0457 11.1253 40.646 11.083 40.2302C11.0643 40.0451 11.0646 39.8562 11.1068 39.6748C11.1491 39.4934 11.2355 39.3191 11.3711 39.1889C11.5456 39.0214 11.79 38.938 12.0329 38.9146C12.2758 38.8912 12.5204 38.9232 12.7619 38.9576C13.0034 38.9921 13.2464 39.0315 13.4903 39.0192C13.7342 39.0068 13.9823 38.9441 14.1734 38.7948C14.3623 38.6472 14.481 38.4273 14.5491 38.1999C14.6173 37.9724 14.6393 37.7347 14.6673 37.4992C14.6952 37.2638 14.7299 37.0261 14.8213 36.8066C14.9128 36.5872 15.0668 36.385 15.2823 36.2781L15.2808 36.2774Z" fill="#F5BD0C"/>
</g>
<g filter="url(#filter34_f_3_750)">
<path d="M17.4921 38.2597C17.8186 38.85 18.0177 39.5276 18.3414 40.1229C18.6393 40.6706 18.9782 41.2345 19.2809 41.7396C19.4155 41.9644 19.7297 42.3101 20.0475 42.8465C20.3353 43.3325 20.6259 44.011 20.7886 44.2389C20.6952 43.9721 20.503 43.256 20.2738 42.7454C20.0609 42.2682 19.8104 41.9961 19.6567 41.7396C19.354 41.2345 19.0282 40.7806 18.7172 40.299C18.2882 39.6349 17.9611 38.8917 17.4921 38.2598V38.2597Z" fill="url(#paint25_linear_3_750)"/>
</g>
</g>
<path d="M50.13 23.524H54.03V32.924H59.627V36.162H50.13V23.524ZM62.177 23.524H66.077V36.172H62.177V23.524ZM68.98 23.524H72.967L76.65 30.294H76.688V23.524H80.371V36.172H76.571L72.693 29.267H72.655V36.172H68.972L68.98 23.524ZM94.78 31.284C94.78 34.81 92.92 36.484 89.02 36.484C85.12 36.484 83.244 34.819 83.244 31.284V23.522H87.144V30.416C87.144 31.691 87.144 33.323 89.042 33.323C90.94 33.323 90.886 31.696 90.886 30.416V23.522H94.786V31.284H94.78ZM100.98 29.441L96.82 23.524H101.392L103.292 26.964L105.174 23.524H109.497L105.44 29.479L109.953 36.172H105.261L103.097 32.402L100.867 36.172H96.403L100.98 29.441Z" fill="#003764"/>
<defs>
<filter id="filter0_f_3_750" x="20.705" y="20.7235" width="9.03256" height="5.7573" filterUnits="userSpaceOnUse" color-interpolation-filters="sRGB">
<feFlood flood-opacity="0" result="BackgroundImageFix"/>
<feBlend mode="normal" in="SourceGraphic" in2="BackgroundImageFix" result="shape"/>
<feGaussianBlur stdDeviation="0.255031" result="effect1_foregroundBlur_3_750"/>
</filter>
<filter id="filter1_f_3_750" x="20.9214" y="20.66" width="8.11629" height="3.93259" filterUnits="userSpaceOnUse" color-interpolation-filters="sRGB">
<feFlood flood-opacity="0" result="BackgroundImageFix"/>
<feBlend mode="normal" in="SourceGraphic" in2="BackgroundImageFix" result="shape"/>
<feGaussianBlur stdDeviation="0.112044" result="effect1_foregroundBlur_3_750"/>
</filter>
<filter id="filter2_f_3_750" x="20.8163" y="18.5841" width="8.2342" height="4.49131" filterUnits="userSpaceOnUse" color-interpolation-filters="sRGB">
<feFlood flood-opacity="0" result="BackgroundImageFix"/>
<feBlend mode="normal" in="SourceGraphic" in2="BackgroundImageFix" result="shape"/>
<feGaussianBlur stdDeviation="0.17048" result="effect1_foregroundBlur_3_750"/>
</filter>
<filter id="filter3_f_3_750" x="26.7644" y="12.0416" width="3.06792" height="2.96013" filterUnits="userSpaceOnUse" color-interpolation-filters="sRGB">
<feFlood flood-opacity="0" result="BackgroundImageFix"/>
<feBlend mode="normal" in="SourceGraphic" in2="BackgroundImageFix" result="shape"/>
<feGaussianBlur stdDeviation="0.251131" result="effect1_foregroundBlur_3_750"/>
</filter>
<filter id="filter4_f_3_750" x="26.8944" y="18.3334" width="0.598553" height="0.482617" filterUnits="userSpaceOnUse" color-interpolation-filters="sRGB">
<feFlood flood-opacity="0" result="BackgroundImageFix"/>
<feBlend mode="normal" in="SourceGraphic" in2="BackgroundImageFix" result="shape"/>
<feGaussianBlur stdDeviation="0.03119" result="effect1_foregroundBlur_3_750"/>
</filter>
<filter id="filter5_f_3_750" x="26.8304" y="17.724" width="1.134" height="1.12133" filterUnits="userSpaceOnUse" color-interpolation-filters="sRGB">
<feFlood flood-opacity="0" result="BackgroundImageFix"/>
<feBlend mode="normal" in="SourceGraphic" in2="BackgroundImageFix" result="shape"/>
<feGaussianBlur stdDeviation="0.0650105" result="effect1_foregroundBlur_3_750"/>
</filter>
<filter id="filter6_f_3_750" x="27.194" y="15.4445" width="1.99604" height="1.8476" filterUnits="userSpaceOnUse" color-interpolation-filters="sRGB">
<feFlood flood-opacity="0" result="BackgroundImageFix"/>
<feBlend mode="normal" in="SourceGraphic" in2="BackgroundImageFix" result="shape"/>
<feGaussianBlur stdDeviation="0.0185386" result="effect1_foregroundBlur_3_750"/>
</filter>
<filter id="filter7_f_3_750" x="22.022" y="15.6925" width="1.86439" height="1.6468" filterUnits="userSpaceOnUse" color-interpolation-filters="sRGB">
<feFlood flood-opacity="0" result="BackgroundImageFix"/>
<feBlend mode="normal" in="SourceGraphic" in2="BackgroundImageFix" result="shape"/>
<feGaussianBlur stdDeviation="0.0169102" result="effect1_foregroundBlur_3_750"/>
</filter>
<filter id="filter8_f_3_750" x="22.1444" y="17.8442" width="0.914346" height="1.31195" filterUnits="userSpaceOnUse" color-interpolation-filters="sRGB">
<feFlood flood-opacity="0" result="BackgroundImageFix"/>
<feBlend mode="normal" in="SourceGraphic" in2="BackgroundImageFix" result="shape"/>
<feGaussianBlur stdDeviation="0.0642589" result="effect1_foregroundBlur_3_750"/>
</filter>
<filter id="filter9_f_3_750" x="22.7756" y="21.9446" width="2.18955" height="1.67434" filterUnits="userSpaceOnUse" color-interpolation-filters="sRGB">
<feFlood flood-opacity="0" result="BackgroundImageFix"/>
<feBlend mode="normal" in="SourceGraphic" in2="BackgroundImageFix" result="shape"/>
<feGaussianBlur stdDeviation="0.11261" result="effect1_foregroundBlur_3_750"/>
</filter>
<filter id="filter10_f_3_750" x="21.2555" y="19.9641" width="7.00626" height="3.25112" filterUnits="userSpaceOnUse" color-interpolation-filters="sRGB">
<feFlood flood-opacity="0" result="BackgroundImageFix"/>
<feBlend mode="normal" in="SourceGraphic" in2="BackgroundImageFix" result="shape"/>
<feGaussianBlur stdDeviation="0.0949478" result="effect1_foregroundBlur_3_750"/>
</filter>
<filter id="filter11_f_3_750" x="24.1158" y="20.0641" width="2.01064" height="2.38338" filterUnits="userSpaceOnUse" color-interpolation-filters="sRGB">
<feFlood flood-opacity="0" result="BackgroundImageFix"/>
<feBlend mode="normal" in="SourceGraphic" in2="BackgroundImageFix" result="shape"/>
<feGaussianBlur stdDeviation="0.106347" result="effect1_foregroundBlur_3_750"/>
</filter>
<filter id="filter12_f_3_750" x="24.8341" y="19.4367" width="0.764633" height="0.42749" filterUnits="userSpaceOnUse" color-interpolation-filters="sRGB">
<feFlood flood-opacity="0" result="BackgroundImageFix"/>
<feBlend mode="normal" in="SourceGraphic" in2="BackgroundImageFix" result="shape"/>
<feGaussianBlur stdDeviation="0.0137787" result="effect1_foregroundBlur_3_750"/>
</filter>
<filter id="filter13_f_3_750" x="23.1575" y="19.5012" width="0.339989" height="0.369225" filterUnits="userSpaceOnUse" color-interpolation-filters="sRGB">
<feFlood flood-opacity="0" result="BackgroundImageFix"/>
<feBlend mode="normal" in="SourceGraphic" in2="BackgroundImageFix" result="shape"/>
<feGaussianBlur stdDeviation="0.0137787" result="effect1_foregroundBlur_3_750"/>
</filter>
<filter id="filter14_f_3_750" x="27.9396" y="20.4715" width="0.893898" height="1.05653" filterUnits="userSpaceOnUse" color-interpolation-filters="sRGB">
<feFlood flood-opacity="0" result="BackgroundImageFix"/>
<feBlend mode="normal" in="SourceGraphic" in2="BackgroundImageFix" result="shape"/>
<feGaussianBlur stdDeviation="0.0427819" result="effect1_foregroundBlur_3_750"/>
</filter>
<filter id="filter15_f_3_750" x="31.4769" y="27.9031" width="4.20457" height="10.8335" filterUnits="userSpaceOnUse" color-interpolation-filters="sRGB">
<feFlood flood-opacity="0" result="BackgroundImageFix"/>
<feBlend mode="normal" in="SourceGraphic" in2="BackgroundImageFix" result="shape"/>
<feGaussianBlur stdDeviation="0.170876" result="effect1_foregroundBlur_3_750"/>
</filter>
<filter id="filter16_f_3_750" x="18.1769" y="26.2377" width="4.81874" height="4.53085" filterUnits="userSpaceOnUse" color-interpolation-filters="sRGB">
<feFlood flood-opacity="0" result="BackgroundImageFix"/>
<feBlend mode="normal" in="SourceGraphic" in2="BackgroundImageFix" result="shape"/>
<feGaussianBlur stdDeviation="0.0865343" result="effect1_foregroundBlur_3_750"/>
</filter>
<filter id="filter17_f_3_750" x="24.7776" y="25.7967" width="7.30707" height="5.24042" filterUnits="userSpaceOnUse" color-interpolation-filters="sRGB">
<feFlood flood-opacity="0" result="BackgroundImageFix"/>
<feBlend mode="normal" in="SourceGraphic" in2="BackgroundImageFix" result="shape"/>
<feGaussianBlur stdDeviation="0.142547" result="effect1_foregroundBlur_3_750"/>
</filter>
<filter id="filter18_f_3_750" x="22.193" y="26.4213" width="3.1106" height="3.29837" filterUnits="userSpaceOnUse" color-interpolation-filters="sRGB">
<feFlood flood-opacity="0" result="BackgroundImageFix"/>
<feBlend mode="normal" in="SourceGraphic" in2="BackgroundImageFix" result="shape"/>
<feGaussianBlur stdDeviation="0.0983299" result="effect1_foregroundBlur_3_750"/>
</filter>
<filter id="filter19_f_3_750" x="22.1662" y="30.5208" width="1.25654" height="8.24405" filterUnits="userSpaceOnUse" color-interpolation-filters="sRGB">
<feFlood flood-opacity="0" result="BackgroundImageFix"/>
<feBlend mode="normal" in="SourceGraphic" in2="BackgroundImageFix" result="shape"/>
<feGaussianBlur stdDeviation="0.181127" result="effect1_foregroundBlur_3_750"/>
</filter>
<filter id="filter20_f_3_750" x="29.7362" y="21.8135" width="1.97674" height="2.14993" filterUnits="userSpaceOnUse" color-interpolation-filters="sRGB">
<feFlood flood-opacity="0" result="BackgroundImageFix"/>
<feBlend mode="normal" in="SourceGraphic" in2="BackgroundImageFix" result="shape"/>
<feGaussianBlur stdDeviation="0.11286" result="effect1_foregroundBlur_3_750"/>
</filter>
<filter id="filter21_f_3_750" x="82.3789" y="36.4484" width="12.2535" height="12.2652" filterUnits="userSpaceOnUse" color-interpolation-filters="sRGB">
<feFlood flood-opacity="0" result="BackgroundImageFix"/>
<feBlend mode="normal" in="SourceGraphic" in2="BackgroundImageFix" result="shape"/>
<feGaussianBlur stdDeviation="0.280396" result="effect1_foregroundBlur_3_750"/>
</filter>
<filter id="filter22_f_3_750" x="29.7809" y="35.9756" width="12.3012" height="12.4406" filterUnits="userSpaceOnUse" color-interpolation-filters="sRGB">
<feFlood flood-opacity="0" result="BackgroundImageFix"/>
<feBlend mode="normal" in="SourceGraphic" in2="BackgroundImageFix" result="shape"/>
<feGaussianBlur stdDeviation="0.598622" result="effect1_foregroundBlur_3_750"/>
</filter>
<filter id="filter23_f_3_750" x="30.4404" y="35.4744" width="11.341" height="11.2935" filterUnits="userSpaceOnUse" color-interpolation-filters="sRGB">
<feFlood flood-opacity="0" result="BackgroundImageFix"/>
<feBlend mode="normal" in="SourceGraphic" in2="BackgroundImageFix" result="shape"/>
<feGaussianBlur stdDeviation="0.471697" result="effect1_foregroundBlur_3_750"/>
</filter>
<filter id="filter24_f_3_750" x="31.1529" y="37.1814" width="7.13299" height="1.35511" filterUnits="userSpaceOnUse" color-interpolation-filters="sRGB">
<feFlood flood-opacity="0" result="BackgroundImageFix"/>
<feBlend mode="normal" in="SourceGraphic" in2="BackgroundImageFix" result="shape"/>
<feGaussianBlur stdDeviation="0.06" result="effect1_foregroundBlur_3_750"/>
</filter>
<filter id="filter25_f_3_750" x="32.3402" y="29.4496" width="2.41086" height="2.43786" filterUnits="userSpaceOnUse" color-interpolation-filters="sRGB">
<feFlood flood-opacity="0" result="BackgroundImageFix"/>
<feBlend mode="normal" in="SourceGraphic" in2="BackgroundImageFix" result="shape"/>
<feGaussianBlur stdDeviation="0.287119" result="effect1_foregroundBlur_3_750"/>
</filter>
<filter id="filter26_f_3_750" x="19.5856" y="24.7842" width="0.844334" height="0.860638" filterUnits="userSpaceOnUse" color-interpolation-filters="sRGB">
<feFlood flood-opacity="0" result="BackgroundImageFix"/>
<feBlend mode="normal" in="SourceGraphic" in2="BackgroundImageFix" result="shape"/>
<feGaussianBlur stdDeviation="0.080144" result="effect1_foregroundBlur_3_750"/>
</filter>
<filter id="filter27_f_3_750" x="32.0071" y="36.9412" width="5.68998" height="5.07709" filterUnits="userSpaceOnUse" color-interpolation-filters="sRGB">
<feFlood flood-opacity="0" result="BackgroundImageFix"/>
<feBlend mode="normal" in="SourceGraphic" in2="BackgroundImageFix" result="shape"/>
<feGaussianBlur stdDeviation="0.356242" result="effect1_foregroundBlur_3_750"/>
</filter>
<filter id="filter28_f_3_750" x="32.4433" y="37.3891" width="4.81755" height="3.19275" filterUnits="userSpaceOnUse" color-interpolation-filters="sRGB">
<feFlood flood-opacity="0" result="BackgroundImageFix"/>
<feBlend mode="normal" in="SourceGraphic" in2="BackgroundImageFix" result="shape"/>
<feGaussianBlur stdDeviation="0.138135" result="effect1_foregroundBlur_3_750"/>
</filter>
<filter id="filter29_f_3_750" x="32.7755" y="35.5551" width="4.8884" height="2.56013" filterUnits="userSpaceOnUse" color-interpolation-filters="sRGB">
<feFlood flood-opacity="0" result="BackgroundImageFix"/>
<feBlend mode="normal" in="SourceGraphic" in2="BackgroundImageFix" result="shape"/>
<feGaussianBlur stdDeviation="0.128393" result="effect1_foregroundBlur_3_750"/>
</filter>
<filter id="filter30_f_3_750" x="32.7755" y="35.5551" width="4.8884" height="2.56013" filterUnits="userSpaceOnUse" color-interpolation-filters="sRGB">
<feFlood flood-opacity="0" result="BackgroundImageFix"/>
<feBlend mode="normal" in="SourceGraphic" in2="BackgroundImageFix" result="shape"/>
<feGaussianBlur stdDeviation="0.128393" result="effect1_foregroundBlur_3_750"/>
</filter>
<filter id="filter31_f_3_750" x="15.4411" y="28.7308" width="3.93582" height="8.54354" filterUnits="userSpaceOnUse" color-interpolation-filters="sRGB">
<feFlood flood-opacity="0" result="BackgroundImageFix"/>
<feBlend mode="normal" in="SourceGraphic" in2="BackgroundImageFix" result="shape"/>
<feGaussianBlur stdDeviation="0.141795" result="effect1_foregroundBlur_3_750"/>
</filter>
<filter id="filter32_f_3_750" x="9.54172" y="35.6852" width="12.938" height="12.8383" filterUnits="userSpaceOnUse" color-interpolation-filters="sRGB">
<feFlood flood-opacity="0" result="BackgroundImageFix"/>
<feBlend mode="normal" in="SourceGraphic" in2="BackgroundImageFix" result="shape"/>
<feGaussianBlur stdDeviation="0.491524" result="effect1_foregroundBlur_3_750"/>
</filter>
<filter id="filter33_f_3_750" x="10.2994" y="35.5865" width="10.9291" height="11.5269" filterUnits="userSpaceOnUse" color-interpolation-filters="sRGB">
<feFlood flood-opacity="0" result="BackgroundImageFix"/>
<feBlend mode="normal" in="SourceGraphic" in2="BackgroundImageFix" result="shape"/>
<feGaussianBlur stdDeviation="0.302509" result="effect1_foregroundBlur_3_750"/>
</filter>
<filter id="filter34_f_3_750" x="17.3995" y="38.167" width="3.48188" height="6.1646" filterUnits="userSpaceOnUse" color-interpolation-filters="sRGB">
<feFlood flood-opacity="0" result="BackgroundImageFix"/>
<feBlend mode="normal" in="SourceGraphic" in2="BackgroundImageFix" result="shape"/>
<feGaussianBlur stdDeviation="0.0463466" result="effect1_foregroundBlur_3_750"/>
</filter>
<radialGradient id="paint0_radial_3_750" cx="0" cy="0" r="1" gradientUnits="userSpaceOnUse" gradientTransform="translate(47.9726 140.208) rotate(-2.41004) scale(3.88822 9.58074)">
<stop stop-color="#FEFEFC"/>
<stop offset="0.757" stop-color="#FEFEFC"/>
<stop offset="1" stop-color="#D4D4D4"/>
</radialGradient>
<radialGradient id="paint1_radial_3_750" cx="0" cy="0" r="1" gradientUnits="userSpaceOnUse" gradientTransform="translate(89.3858 144.064) rotate(-1.81001) scale(6.984 10.0917)">
<stop stop-color="#FEFEFC"/>
<stop offset="0.757" stop-color="#FEFEFC"/>
<stop offset="1" stop-color="#D4D4D4"/>
</radialGradient>
<radialGradient id="paint2_radial_3_750" cx="0" cy="0" r="1" gradientUnits="userSpaceOnUse" gradientTransform="translate(116.557 27.5913) rotate(-36.0084) scale(6.40425 4.24791)">
<stop stop-color="#020204"/>
<stop offset="0.734" stop-color="#020204"/>
<stop offset="1" stop-color="#5C5C5C"/>
</radialGradient>
<linearGradient id="paint3_linear_3_750" x1="291.785" y1="132.207" x2="297.556" y2="139.142" gradientUnits="userSpaceOnUse">
<stop stop-color="#949494" stop-opacity="0.392"/>
<stop offset="0.5" stop-color="#949494"/>
<stop offset="1" stop-color="#949494" stop-opacity="0.392"/>
</linearGradient>
<linearGradient id="paint4_linear_3_750" x1="556.165" y1="534.501" x2="660.497" y2="620.2" gradientUnits="userSpaceOnUse">
<stop stop-color="#747474"/>
<stop offset="0.125" stop-color="#8C8C8C"/>
<stop offset="0.25" stop-color="#A4A4A4"/>
<stop offset="0.5" stop-color="#D4D4D4"/>
<stop offset="0.619" stop-color="#D4D4D4"/>
<stop offset="1" stop-color="#7C7C7C"/>
</linearGradient>
<linearGradient id="paint5_linear_3_750" x1="57.0395" y1="202.69" x2="82.3126" y2="228.546" gradientUnits="userSpaceOnUse">
<stop stop-color="#646464" stop-opacity="0"/>
<stop offset="0.306" stop-color="#646464" stop-opacity="0.583"/>
<stop offset="0.47" stop-color="#646464"/>
<stop offset="0.728" stop-color="#646464" stop-opacity="0.257"/>
<stop offset="1" stop-color="#646464" stop-opacity="0"/>
</linearGradient>
<linearGradient id="paint6_linear_3_750" x1="-24.2516" y1="184.17" x2="-3.16406" y2="207.276" gradientUnits="userSpaceOnUse">
<stop stop-color="#646464" stop-opacity="0"/>
<stop offset="0.306" stop-color="#646464" stop-opacity="0.583"/>
<stop offset="0.47" stop-color="#646464"/>
<stop offset="0.728" stop-color="#646464" stop-opacity="0.257"/>
<stop offset="1" stop-color="#646464" stop-opacity="0"/>
</linearGradient>
<linearGradient id="paint7_linear_3_750" x1="130.104" y1="157.288" x2="137.284" y2="165.288" gradientUnits="userSpaceOnUse">
<stop stop-color="#757574" stop-opacity="0"/>
<stop offset="0.263" stop-color="#757574"/>
<stop offset="0.5" stop-color="#757574"/>
<stop offset="1" stop-color="#757574" stop-opacity="0"/>
</linearGradient>
<radialGradient id="paint8_radial_3_750" cx="0" cy="0" r="1" gradientUnits="userSpaceOnUse" gradientTransform="translate(2301.65 -359.786) rotate(-22.428) scale(240.926 83.7022)">
<stop stop-color="#D2940A"/>
<stop offset="0.751" stop-color="#D89C08"/>
<stop offset="0.866" stop-color="#B67E07"/>
<stop offset="1" stop-color="#946106"/>
</radialGradient>
<linearGradient id="paint9_linear_3_750" x1="375.136" y1="622.042" x2="801.737" y2="615.421" gradientUnits="userSpaceOnUse">
<stop stop-color="#AD780A"/>
<stop offset="0.12" stop-color="#D89E08"/>
<stop offset="0.255" stop-color="#EDB80B"/>
<stop offset="0.392" stop-color="#EBC80D"/>
<stop offset="0.527" stop-color="#F5D838"/>
<stop offset="0.769" stop-color="#F6D811"/>
<stop offset="1" stop-color="#F5CD31"/>
</linearGradient>
<radialGradient id="paint10_radial_3_750" cx="0" cy="0" r="1" gradientUnits="userSpaceOnUse" gradientTransform="translate(79.9714 51.4925) scale(2.29175 0.701612)">
<stop stop-color="#3A2903"/>
<stop offset="0.555" stop-color="#735208"/>
<stop offset="1" stop-color="#AC8C04"/>
</radialGradient>
<radialGradient id="paint11_radial_3_750" cx="0" cy="0" r="1" gradientUnits="userSpaceOnUse" gradientTransform="translate(41.168 69.3088) scale(0.437286 0.518381)">
<stop stop-color="#3A2903"/>
<stop offset="0.555" stop-color="#735208"/>
<stop offset="1" stop-color="#AC8C04"/>
</radialGradient>
<linearGradient id="paint12_linear_3_750" x1="186.465" y1="159.581" x2="186.919" y2="161.936" gradientUnits="userSpaceOnUse">
<stop stop-color="#F5CE2D"/>
<stop offset="1" stop-color="#D79B08"/>
</linearGradient>
<radialGradient id="paint13_radial_3_750" cx="0" cy="0" r="1" gradientUnits="userSpaceOnUse" gradientTransform="translate(505.165 35.8543) rotate(-9.34942) scale(63.5787 27.2711)">
<stop stop-color="#C8C8C8"/>
<stop offset="1" stop-color="#797978"/>
</radialGradient>
<radialGradient id="paint14_radial_3_750" cx="0" cy="0" r="1" gradientUnits="userSpaceOnUse" gradientTransform="translate(-990.244 731.227) rotate(180) scale(85.5655 87.4989)">
<stop/>
<stop offset="1" stop-opacity="0.25"/>
</radialGradient>
<radialGradient id="paint15_radial_3_750" cx="0" cy="0" r="1" gradientUnits="userSpaceOnUse" gradientTransform="translate(2091.75 868.279) scale(184.53 97.6505)">
<stop/>
<stop offset="1" stop-opacity="0.25"/>
</radialGradient>
<radialGradient id="paint16_radial_3_750" cx="0" cy="0" r="1" gradientUnits="userSpaceOnUse" gradientTransform="translate(734.949 724.623) scale(29.469 33.6866)">
<stop/>
<stop offset="1" stop-opacity="0.25"/>
</radialGradient>
<linearGradient id="paint17_linear_3_750" x1="397.818" y1="3646.42" x2="439.046" y2="3953.82" gradientUnits="userSpaceOnUse">
<stop/>
<stop offset="1" stop-opacity="0"/>
</linearGradient>
<linearGradient id="paint18_linear_3_750" x1="4819.05" y1="4188.22" x2="5363.57" y2="3332.22" gradientUnits="userSpaceOnUse">
<stop stop-color="#3E2A06"/>
<stop offset="1" stop-color="#AD780A"/>
</linearGradient>
<linearGradient id="paint19_linear_3_750" x1="342.588" y1="360.226" x2="342.33" y2="374.59" gradientUnits="userSpaceOnUse">
<stop stop-color="#F3CD0C"/>
<stop offset="1" stop-color="#F3CD0C" stop-opacity="0"/>
</linearGradient>
<radialGradient id="paint20_radial_3_750" cx="0" cy="0" r="1" gradientUnits="userSpaceOnUse" gradientTransform="translate(1601.4 2087.71) rotate(15) scale(97.3083 87.4661)">
<stop stop-color="#110800"/>
<stop offset="0.591" stop-color="#A65A00" stop-opacity="0.8"/>
<stop offset="1" stop-color="#FF921E" stop-opacity="0"/>
</radialGradient>
<radialGradient id="paint21_radial_3_750" cx="0" cy="0" r="1" gradientUnits="userSpaceOnUse" gradientTransform="translate(1601.4 1519.7) rotate(10.9628) scale(95.7398 64.2674)">
<stop stop-color="#110800"/>
<stop offset="0.591" stop-color="#A65A00" stop-opacity="0.8"/>
<stop offset="1" stop-color="#FF921E" stop-opacity="0"/>
</radialGradient>
<radialGradient id="paint22_radial_3_750" cx="0" cy="0" r="1" gradientUnits="userSpaceOnUse" gradientTransform="translate(600.89 382.949) rotate(23.5217) scale(35.3021 7.63222)">
<stop stop-color="#7C7C7C"/>
<stop offset="1" stop-color="#7C7C7C" stop-opacity="0.33"/>
</radialGradient>
<linearGradient id="paint23_linear_3_750" x1="1601.41" y1="607.544" x2="1614.45" y2="606.382" gradientUnits="userSpaceOnUse">
<stop stop-color="#7C7C7C"/>
<stop offset="1" stop-color="#7C7C7C" stop-opacity="0.33"/>
</linearGradient>
<linearGradient id="paint24_linear_3_750" x1="1479.98" y1="3596.83" x2="2040.61" y2="4547.79" gradientUnits="userSpaceOnUse">
<stop stop-color="#B98309"/>
<stop offset="1" stop-color="#382605"/>
</linearGradient>
<linearGradient id="paint25_linear_3_750" x1="581.325" y1="1964.9" x2="689.675" y2="2077.35" gradientUnits="userSpaceOnUse">
<stop stop-color="#EBC40C"/>
<stop offset="1" stop-color="#EBC40C" stop-opacity="0"/>
</linearGradient>
</defs>
</svg>
