<svg width="510" height="151" viewBox="0 0 510 151" fill="none" xmlns="http://www.w3.org/2000/svg">
<path d="M105.2 22.56H129.65C143.94 22.56 152.57 31.02 152.57 43.25V43.42C152.57 57.28 141.8 64.42 128.37 64.42H118.37V82.42H105.2V22.56ZM128.8 52.74C135.38 52.74 139.23 48.81 139.23 43.68V43.51C139.23 37.61 135.13 34.44 128.54 34.44H118.37V52.74H128.8ZM156.59 20.02H169.59V43.08C172.59 39.23 176.43 35.73 183.01 35.73C192.85 35.73 198.58 42.23 198.58 52.73V82.42H185.58V56.85C185.58 50.69 182.67 47.53 177.71 47.53C172.75 47.53 169.59 50.69 169.59 56.85V82.42H156.59V20.02ZM204.4 36.58H217.4V43.17C220.57 38.89 224.93 35.73 231.68 35.73C242.37 35.73 252.55 44.11 252.55 59.42V59.59C252.55 74.89 242.55 83.27 231.68 83.27C228.931 83.3244 226.207 82.734 223.728 81.5462C221.248 80.3584 219.081 78.6062 217.4 76.43V96.1H204.4V36.58ZM239.55 59.58V59.42C239.55 51.8 234.42 46.76 228.35 46.76C222.28 46.76 217.23 51.76 217.23 59.42V59.59C217.23 67.2 222.28 72.24 228.35 72.24C234.42 72.24 239.55 67.28 239.55 59.59V59.58ZM253.67 73.7L261.45 64.37C266.84 68.82 272.45 71.64 279.33 71.64C284.71 71.64 287.96 69.51 287.96 66V65.83C287.96 62.49 285.96 60.78 275.9 58.22C263.9 55.14 256.06 51.8 256.06 39.92V39.75C256.06 28.89 264.79 21.75 277.06 21.75C285.13 21.6218 292.992 24.3131 299.29 29.36L292.45 39.28C287.15 35.61 281.93 33.38 276.89 33.38C271.85 33.38 269.19 35.69 269.19 38.6V38.77C269.19 42.7 271.75 43.99 282.1 46.64C294.24 49.8 301.1 54.16 301.1 64.64V64.81C301.1 76.69 292.03 83.36 279.1 83.36C269.723 83.3799 260.669 79.9403 253.67 73.7ZM307.66 69.42V47.7H302.19V36.58H307.66V24.87H320.66V36.58H331.44V47.7H320.66V67.28C320.66 70.28 321.95 71.73 324.85 71.73C327.094 71.7416 329.303 71.1806 331.27 70.1V80.54C328.163 82.3696 324.604 83.288 321 83.19C313.05 83.19 307.66 80.02 307.66 69.42ZM333.14 59.76V59.59C333.14 46.42 343.75 35.73 358.03 35.73C372.31 35.73 382.74 46.25 382.74 59.42V59.59C382.74 72.76 372.14 83.45 357.86 83.45C343.58 83.45 333.14 72.93 333.14 59.76ZM369.92 59.76V59.59C369.92 52.83 365.04 46.93 357.86 46.93C350.42 46.93 345.97 52.66 345.97 59.42V59.59C345.97 66.34 350.85 72.24 358.03 72.24C365.47 72.24 369.92 66.51 369.92 59.76ZM386.65 36.58H399.65V45.82C402.3 39.49 406.57 35.38 414.27 35.73V49.32H413.58C404.95 49.32 399.65 54.54 399.65 65.49V82.42H386.65V36.58ZM418.91 36.58H431.91V43.08C434.91 39.23 438.84 35.73 445.43 35.73C451.43 35.73 455.94 38.38 458.34 43C462.34 38.29 467.15 35.73 473.39 35.73C483.05 35.73 488.87 41.54 488.87 52.57V82.42H475.87V56.85C475.87 50.69 473.13 47.53 468.26 47.53C463.39 47.53 460.39 50.69 460.39 56.85V82.42H447.39V56.85C447.39 50.69 444.66 47.53 439.78 47.53C434.9 47.53 431.91 50.69 431.91 56.85V82.42H418.91V36.58ZM22.5 22.52H82.5V82.52H22.5V22.52Z" fill="black"/>
<path d="M29.98 71.18H52.48V74.93H29.98V71.18ZM49.6 49.29L52.53 45.78C54.3705 47.4797 56.7656 48.4533 59.27 48.52C61.27 48.52 62.53 47.72 62.53 46.39V46.33C62.53 45.07 61.75 44.43 57.98 43.46C53.43 42.3 50.5 41.04 50.5 36.56V36.49C50.5 32.4 53.79 29.69 58.4 29.69C61.4432 29.6362 64.4088 30.6518 66.78 32.56L64.2 36.3C62.5141 34.9811 60.4667 34.2068 58.33 34.08C56.43 34.08 55.43 34.95 55.43 36.08V36.15C55.43 37.63 56.43 38.15 60.3 39.15C64.88 40.35 67.46 41.99 67.46 45.93V45.99C67.46 50.47 64.04 52.99 59.17 52.99C55.6444 53.0058 52.2368 51.7204 49.6 49.38M30 30.02H39.2C44.56 30.02 47.8 33.2 47.8 37.79V37.85C47.8 43.05 43.8 45.75 38.72 45.75H35V52.49H30V30.02ZM38.86 41.35C41.33 41.35 42.78 39.88 42.78 37.95V37.89C42.78 35.67 41.24 34.48 38.78 34.48H35V41.35H38.86Z" fill="white"/>
<path d="M107.54 124.46V127.53H105.15V104.9H107.54V114.73C108.167 113.654 109.062 112.76 110.139 112.134C111.215 111.508 112.435 111.173 113.68 111.16C117.52 111.16 121.33 114.16 121.33 119.47V119.53C121.33 124.77 117.55 127.87 113.68 127.87C112.451 127.871 111.242 127.558 110.168 126.962C109.093 126.365 108.189 125.504 107.54 124.46ZM118.89 119.56V119.5C118.89 115.72 116.28 113.3 113.24 113.3C111.654 113.352 110.153 114.031 109.066 115.187C107.979 116.344 107.394 117.884 107.44 119.47V119.53C107.413 120.318 107.541 121.104 107.818 121.842C108.095 122.581 108.515 123.257 109.054 123.833C109.593 124.409 110.24 124.873 110.958 125.198C111.676 125.524 112.452 125.705 113.24 125.73C116.34 125.73 118.89 123.44 118.89 119.56ZM136.55 111.5H139.09L132.37 128.02C131 131.34 129.45 132.54 127.03 132.54C125.845 132.555 124.674 132.281 123.62 131.74L124.43 129.85C125.201 130.263 126.066 130.466 126.94 130.44C128.37 130.44 129.27 129.69 130.23 127.44L122.94 111.44H125.58L131.4 124.8L136.55 111.5ZM150.47 124.02L152.23 122.5C153.57 124.5 154.93 125.6 157.23 125.6C159.68 125.6 161.47 123.83 161.47 120.39V105.83H163.95V120.34C164.011 121.375 163.866 122.412 163.523 123.391C163.179 124.369 162.645 125.27 161.95 126.04C161.313 126.64 160.563 127.108 159.745 127.416C158.926 127.725 158.054 127.869 157.18 127.84C155.819 127.879 154.473 127.544 153.29 126.87C152.106 126.197 151.131 125.211 150.47 124.02ZM168.35 119.56V119.5C168.35 114.88 171.6 111.16 176.04 111.16C180.78 111.16 183.51 114.94 183.51 119.62C183.526 119.88 183.526 120.14 183.51 120.4H170.77C170.814 121.862 171.429 123.25 172.483 124.264C173.537 125.279 174.947 125.841 176.41 125.83C177.366 125.839 178.312 125.641 179.184 125.249C180.056 124.857 180.832 124.281 181.46 123.56L182.95 124.9C182.149 125.868 181.139 126.641 179.996 127.161C178.852 127.68 177.606 127.933 176.35 127.9C175.27 127.901 174.201 127.683 173.208 127.26C172.214 126.837 171.317 126.217 170.569 125.438C169.822 124.659 169.24 123.736 168.859 122.726C168.477 121.716 168.304 120.639 168.35 119.56ZM181.09 118.63C180.84 115.72 179.17 113.18 175.98 113.18C173.19 113.18 171.08 115.5 170.77 118.63H181.09ZM187.94 123.28V113.61H185.71V111.5H187.94V106.66H190.33V111.5H195.41V113.61H190.33V123.02C190.279 123.385 190.314 123.757 190.433 124.106C190.551 124.456 190.749 124.772 191.011 125.032C191.273 125.291 191.592 125.485 191.943 125.6C192.293 125.714 192.665 125.745 193.03 125.69C193.837 125.691 194.632 125.499 195.35 125.13V127.13C194.461 127.591 193.471 127.825 192.47 127.81C189.89 127.81 187.94 126.54 187.94 123.28ZM199.33 105.83H208.57C210.641 105.709 212.677 106.398 214.25 107.75C214.702 108.206 215.058 108.748 215.297 109.344C215.535 109.94 215.652 110.578 215.64 111.22V111.28C215.655 112.367 215.332 113.432 214.716 114.328C214.1 115.224 213.221 115.906 212.2 116.28C214.77 117.05 216.85 118.54 216.85 121.52V121.58C216.85 125.3 213.72 127.5 208.98 127.5H199.33V105.83ZM213.16 111.56C213.16 109.42 211.46 108.03 208.36 108.03H201.75V115.5H208.17C211.11 115.5 213.17 114.17 213.17 111.62L213.16 111.56ZM208.6 117.67H201.75V125.33H209C212.28 125.33 214.33 123.87 214.33 121.45V121.39C214.37 119.02 212.39 117.67 208.6 117.67ZM221.38 111.5H223.77V115.69C224.264 114.36 225.158 113.216 226.33 112.416C227.501 111.615 228.891 111.197 230.31 111.22V113.8H230.12C226.62 113.8 223.77 116.31 223.77 121.14V127.53H221.38V111.5ZM232.22 122.88V122.82C232.22 119.44 235.01 117.64 239.07 117.64C240.738 117.625 242.399 117.854 244 118.32V117.76C244 114.88 242.23 113.39 239.22 113.39C237.531 113.409 235.87 113.813 234.36 114.57L233.64 112.57C235.455 111.684 237.45 111.225 239.47 111.23C240.408 111.162 241.35 111.284 242.24 111.588C243.13 111.892 243.95 112.372 244.65 113C245.225 113.629 245.667 114.368 245.948 115.172C246.23 115.977 246.346 116.83 246.29 117.68V127.48H244V125.06C243.324 125.949 242.444 126.664 241.435 127.144C240.426 127.624 239.317 127.856 238.2 127.82C235.22 127.87 232.22 126.17 232.22 122.88ZM244 121.64V120.09C242.47 119.641 240.884 119.412 239.29 119.41C236.29 119.41 234.6 120.71 234.6 122.73V122.79C234.6 124.79 236.47 125.98 238.6 125.98C241.61 126.02 244 124.18 244 121.64ZM251.11 105.36H253.84V108.02H251.11V105.36ZM251.27 111.5H253.65V127.5H251.27V111.5ZM258.81 111.5H261.2V114.29C261.741 113.316 262.539 112.509 263.507 111.957C264.475 111.405 265.576 111.13 266.69 111.16C270.57 111.16 272.83 113.76 272.83 117.58V127.58H270.44V118.22C270.44 115.22 268.83 113.38 266.01 113.38C265.358 113.366 264.711 113.487 264.108 113.736C263.506 113.985 262.961 114.357 262.51 114.827C262.058 115.297 261.709 115.855 261.483 116.466C261.258 117.078 261.161 117.729 261.2 118.38V127.56H258.81V111.5ZM276.29 125.48L277.49 123.78C279.077 125.025 281.023 125.726 283.04 125.78C284.97 125.78 286.36 124.78 286.36 123.23V123.17C286.36 121.56 284.47 120.94 282.36 120.35C279.85 119.64 277.06 118.77 277.06 115.82V115.76C277.06 113 279.36 111.17 282.52 111.17C284.568 111.207 286.564 111.82 288.28 112.94L287.2 114.74C285.796 113.791 284.154 113.254 282.46 113.19C280.56 113.19 279.36 114.19 279.36 115.51V115.57C279.36 117.09 281.36 117.68 283.48 118.33C285.96 119.08 288.63 120.04 288.63 122.92V123.02C288.63 126.02 286.11 127.83 282.92 127.83C280.512 127.793 278.183 126.968 276.29 125.48Z" fill="black"/>
</svg>
