<svg width="338" height="151" viewBox="0 0 338 151" fill="none" xmlns="http://www.w3.org/2000/svg">
<path d="M22.5 22.52H82.5V82.52H22.5V22.52Z" fill="black"/>
<path d="M29.98 71.18H52.48V74.93H29.98V71.18ZM30 29.94H40.29C41.4839 29.8652 42.6808 30.0293 43.8106 30.4225C44.9404 30.8157 45.9805 31.4301 46.87 32.23C47.522 32.9166 48.0297 33.7271 48.3629 34.6134C48.6962 35.4997 48.8482 36.4439 48.81 37.39V37.45C48.8845 38.9865 48.4508 40.5047 47.5759 41.77C46.7011 43.0353 45.4338 43.9771 43.97 44.45L49.48 52.51H43.68L38.84 45.29H34.94V52.51H30V29.94ZM40 40.94C42.42 40.94 43.81 39.65 43.81 37.75V37.69C43.81 35.56 42.32 34.46 39.9 34.46H34.94V40.94H40ZM52.92 29.94H61.73C68.82 29.94 73.73 34.81 73.73 41.16V41.22C73.73 47.58 68.83 52.51 61.73 52.51H52.92V29.94ZM57.92 34.42V48.02H61.76C62.6618 48.0733 63.5647 47.9359 64.4098 47.6168C65.2549 47.2978 66.0233 46.8042 66.6649 46.1683C67.3065 45.5323 67.8068 44.7684 68.1334 43.9261C68.4599 43.0838 68.6053 42.1822 68.56 41.28V41.22C68.6059 40.3149 68.4615 39.4102 68.136 38.5644C67.8105 37.7186 67.3112 36.9505 66.6704 36.3096C66.0295 35.6688 65.2614 35.1695 64.4156 34.844C63.5698 34.5185 62.6651 34.3741 61.76 34.42H57.92Z" fill="white"/>
<path d="M105.19 22.41H132.61C140.24 22.41 146.15 24.55 150.09 28.49C153.43 31.83 155.23 36.55 155.23 42.2V42.37C155.23 52.06 150.01 58.14 142.38 60.97L157 82.39H141.61L128.76 63.2H118.39V82.39H105.19V22.41ZM131.76 51.54C138.18 51.54 141.87 48.11 141.87 43.06V42.89C141.87 37.23 137.93 34.32 131.5 34.32H118.39V51.54H131.76ZM161.29 19.84H175V31.41H161.29V19.84ZM161.63 36.46H174.63V82.39H161.63V36.46ZM180.61 59.51V59.34C180.61 44 190.61 35.6 201.52 35.6C204.276 35.5444 207.006 36.1361 209.491 37.3276C211.976 38.519 214.148 40.2769 215.83 42.46V19.84H228.83V82.39H215.83V75.79C212.66 80.08 208.29 83.25 201.52 83.25C190.81 83.25 180.61 74.85 180.61 59.51ZM216 59.51V59.34C216 51.71 210.95 46.66 204.86 46.66C198.77 46.66 193.64 51.66 193.64 59.34V59.51C193.64 67.14 198.78 72.19 204.86 72.19C210.94 72.19 216 67.14 216 59.51ZM234.43 59.68V59.51C234.43 46.4 243.77 35.6 257.14 35.6C272.48 35.6 279.51 47.51 279.51 60.54C279.51 61.54 279.42 62.77 279.33 63.97H247.33C248.62 69.88 252.73 72.97 258.56 72.97C262.93 72.97 266.1 71.6 269.7 68.26L277.15 74.86C272.87 80.17 266.7 83.43 258.39 83.43C244.63 83.42 234.43 73.73 234.43 59.68ZM266.82 55.83C266.05 50.02 262.63 46.02 257.14 46.02C251.65 46.02 248.23 49.87 247.2 55.79L266.82 55.83ZM285.22 36.46H298.22V45.72C300.88 39.37 305.16 35.26 312.88 35.6V49.23H312.19C303.54 49.23 298.19 54.46 298.19 65.42V82.42H285.19L285.22 36.46ZM107.51 124.61V127.68H105.12V105.02H107.51V114.85C108.139 113.777 109.035 112.885 110.111 112.262C111.187 111.638 112.406 111.303 113.65 111.29C117.49 111.29 121.3 114.29 121.3 119.6V119.66C121.3 124.9 117.52 128 113.65 128C112.423 128.003 111.215 127.693 110.141 127.1C109.067 126.507 108.161 125.65 107.51 124.61ZM118.86 119.71V119.65C118.86 115.86 116.25 113.45 113.21 113.45C111.624 113.502 110.123 114.181 109.036 115.337C107.949 116.494 107.364 118.034 107.41 119.62V119.68C107.383 120.468 107.511 121.254 107.788 121.992C108.065 122.731 108.485 123.407 109.024 123.983C109.563 124.559 110.21 125.023 110.928 125.348C111.646 125.674 112.422 125.855 113.21 125.88C116.31 125.88 118.86 123.59 118.86 119.71ZM136.52 111.65H139.06L132.34 128.21C130.97 131.52 129.42 132.73 127 132.73C125.816 132.741 124.646 132.466 123.59 131.93L124.4 130.03C125.17 130.446 126.036 130.65 126.91 130.62C128.34 130.62 129.23 129.88 130.2 127.62L122.91 111.62H125.54L131.37 125.02L136.52 111.65ZM150.44 124.14L152.2 122.62C153.54 124.62 154.9 125.73 157.2 125.73C159.65 125.73 161.44 123.96 161.44 120.52V106.02H163.92V120.53C163.982 121.567 163.837 122.606 163.493 123.586C163.15 124.566 162.615 125.468 161.92 126.24C161.281 126.84 160.53 127.308 159.709 127.616C158.889 127.925 158.016 128.069 157.14 128.04C155.772 128.071 154.422 127.724 153.24 127.035C152.057 126.347 151.088 125.345 150.44 124.14ZM168.32 119.71V119.65C168.32 115.03 171.57 111.31 176.01 111.31C180.75 111.31 183.48 115.09 183.48 119.77C183.496 120.03 183.496 120.29 183.48 120.55H170.74C170.784 122.012 171.399 123.398 172.454 124.411C173.508 125.424 174.918 125.984 176.38 125.97C177.335 125.979 178.28 125.782 179.152 125.391C180.023 125.001 180.8 124.428 181.43 123.71L182.92 125.04C182.121 126.009 181.111 126.783 179.967 127.303C178.823 127.823 177.576 128.075 176.32 128.04C175.241 128.041 174.173 127.824 173.18 127.402C172.187 126.979 171.29 126.36 170.543 125.581C169.796 124.803 169.214 123.882 168.832 122.873C168.45 121.864 168.276 120.788 168.32 119.71ZM181.06 118.78C180.81 115.86 179.14 113.32 175.95 113.32C173.15 113.32 171.05 115.65 170.74 118.78H181.06ZM187.91 123.43V113.76H185.68V111.65H187.91V106.81H190.3V111.65H195.38V113.76H190.3V123.12C190.249 123.485 190.284 123.857 190.403 124.206C190.521 124.556 190.719 124.872 190.981 125.132C191.243 125.391 191.562 125.585 191.913 125.7C192.263 125.814 192.635 125.845 193 125.79C193.807 125.791 194.602 125.599 195.32 125.23V127.23C194.433 127.697 193.443 127.934 192.44 127.92C189.86 127.96 187.91 126.69 187.91 123.43ZM199.3 106.02H208.54C210.612 105.902 212.649 106.594 214.22 107.95C214.672 108.406 215.028 108.948 215.266 109.544C215.505 110.14 215.622 110.778 215.61 111.42V111.48C215.629 112.568 215.307 113.634 214.691 114.531C214.074 115.427 213.193 116.109 212.17 116.48C214.74 117.26 216.82 118.75 216.82 121.72V121.79C216.82 125.51 213.69 127.71 208.94 127.71H199.3V106.02ZM213.13 111.76C213.13 109.62 211.43 108.23 208.32 108.23H201.72V115.7H208.14C211.08 115.7 213.14 114.36 213.14 111.82L213.13 111.76ZM208.57 117.87H201.72V125.53H209C212.28 125.53 214.33 124.07 214.33 121.65V121.59C214.34 119.18 212.36 117.82 208.57 117.82V117.87ZM221.35 111.65H223.74V115.83C224.235 114.502 225.13 113.36 226.302 112.561C227.473 111.762 228.863 111.346 230.28 111.37V113.94H230.09C226.59 113.94 223.74 116.45 223.74 121.29V127.68H221.35V111.65ZM232.19 123.02C232.19 119.64 234.98 117.84 239.04 117.84C240.708 117.827 242.368 118.056 243.97 118.52V117.96C243.97 115.08 242.2 113.59 239.19 113.59C237.501 113.61 235.84 114.013 234.33 114.77L233.61 112.77C235.428 111.892 237.421 111.437 239.44 111.44C240.378 111.372 241.32 111.494 242.21 111.798C243.1 112.102 243.92 112.582 244.62 113.21C245.196 113.838 245.639 114.577 245.921 115.382C246.203 116.186 246.318 117.039 246.26 117.89V127.69H244V125.27C243.324 126.16 242.445 126.875 241.436 127.355C240.426 127.835 239.317 128.067 238.2 128.03C235.19 128.02 232.19 126.31 232.19 123.02ZM244 121.79V120.24C242.471 119.787 240.885 119.555 239.29 119.55C236.29 119.55 234.6 120.86 234.6 122.87V122.93C234.6 124.93 236.46 126.13 238.6 126.13C241.58 126.13 244 124.33 244 121.79ZM251.08 105.51H253.81V108.14H251.08V105.51ZM251.24 111.65H253.62V127.65H251.24V111.65ZM258.78 111.65H261.17V114.44C261.71 113.465 262.508 112.657 263.476 112.105C264.444 111.553 265.546 111.278 266.66 111.31C270.54 111.31 272.8 113.91 272.8 117.73V127.73H270.41V118.36C270.41 115.36 268.8 113.53 265.98 113.53C264.998 113.51 264.035 113.797 263.224 114.35C262.412 114.903 261.794 115.695 261.453 116.616C261.228 117.228 261.131 117.879 261.17 118.53V127.71H258.78V111.65ZM276.25 125.63L277.46 123.93C279.047 125.176 280.993 125.877 283.01 125.93C284.94 125.93 286.33 124.93 286.33 123.39V123.33C286.33 121.72 284.44 121.1 282.33 120.51C279.82 119.79 277.03 118.93 277.03 115.98V115.92C277.03 113.16 279.32 111.33 282.49 111.33C284.538 111.367 286.534 111.981 288.25 113.1L287.17 114.9C285.769 113.944 284.125 113.403 282.43 113.34C280.53 113.34 279.32 114.34 279.32 115.67V115.73C279.32 117.25 281.32 117.84 283.45 118.49C285.93 119.24 288.6 120.2 288.6 123.08V123.14C288.6 126.14 286.08 127.95 282.89 127.95C280.482 127.924 278.15 127.109 276.25 125.63Z" fill="black"/>
</svg>
