<svg width="2500" height="2021" viewBox="0 0 2500 2021" fill="none" xmlns="http://www.w3.org/2000/svg">
<g clip-path="url(#clip0_3_896)">
<path d="M1694.88 643.518L1418.83 733.661L1178.66 839.659L1111.47 857.397C1094.36 873.674 1076.41 890.159 1057.01 906.852C1035.72 925.213 1015.9 941.908 1000.67 954.008C983.767 967.363 958.728 992.402 946.001 1008.26C927.011 1032.04 911.988 1057.29 905.519 1076.7C894.042 1111.76 899.679 1147.23 921.796 1179.99C950.174 1221.72 1006.72 1264.28 1072.66 1293.29C1106.25 1308.11 1162.8 1327.09 1205.36 1337.73C1276.1 1355.68 1412.98 1375.08 1488.31 1378.01C1503.54 1378.63 1523.99 1378.63 1524.82 1378.01C1526.49 1376.96 1538.18 1354.64 1551.74 1326.89C1598.06 1232.36 1631.45 1143.68 1649.6 1067.94C1660.45 1022.03 1669 960.895 1674.64 888.493C1676.1 868.252 1676.72 800.437 1675.47 777.483C1673.59 739.925 1670.25 709.462 1665.04 679.623C1664.21 675.24 1663.99 671.275 1664.41 671.067C1665.25 670.441 1667.75 669.607 1701.76 659.797L1694.88 643.525V643.52H1694.88V643.518ZM1631.87 680.453C1634.37 680.453 1641.05 744.511 1642.72 784.994C1643.13 793.548 1642.92 799.181 1642.51 799.181C1640.84 799.181 1607.24 779.361 1583.25 764.338C1562.38 751.191 1522.74 724.899 1516.48 719.891C1514.39 718.432 1514.6 718.224 1531.71 712.379C1560.71 702.571 1629.57 680.453 1631.87 680.453ZM1491.23 726.777C1493.11 726.777 1497.91 729.487 1509.38 736.583C1552.37 763.5 1610.79 796.052 1635.83 806.904C1643.55 810.242 1644.38 808.988 1626.65 821.093C1588.67 846.966 1541.31 872.421 1483.3 898.087C1473.07 902.678 1464.52 906.224 1464.31 906.224C1463.9 906.224 1465.15 901.01 1466.81 894.749C1480.79 842.789 1488.72 790.208 1489.14 748.058C1489.35 727.191 1489.35 727.191 1491.23 726.568C1490.81 726.777 1491.02 726.777 1491.23 726.777ZM1462.23 737.835C1463.48 739.085 1462.64 785.827 1460.97 798.554C1457.22 829.02 1451.37 857.396 1441.78 889.324C1439.48 897.039 1437.39 903.512 1436.98 903.928C1436.14 904.97 1407.56 877.01 1398.17 866.16C1381.89 847.38 1369.16 828.6 1359.77 810.239C1354.97 800.849 1347.46 782.489 1348.09 781.862C1351.43 779.567 1461.39 737.001 1462.23 737.835ZM1325.76 791.46C1325.97 791.46 1326.18 791.46 1326.39 791.668C1326.8 792.085 1328.27 795.425 1329.52 799.179C1336.19 817.334 1351.22 844.042 1364.16 861.153C1378.35 879.933 1396.92 899.963 1412.35 913.108C1417.36 917.281 1421.95 921.245 1422.58 921.872C1423.83 923.125 1424.25 922.914 1390.24 935.853C1350.8 950.876 1307.82 965.899 1258.57 981.756C1246.81 985.549 1235.05 989.375 1223.31 993.233C1221.43 993.861 1222.06 992.816 1227.48 984.263C1251.9 946.076 1289.04 871.168 1309.9 818.168C1313.45 808.986 1317 799.807 1317.63 797.72C1318.46 794.797 1319.5 793.755 1322.21 792.293C1323.67 791.879 1325.14 791.46 1325.76 791.46ZM1284.03 808.779C1284.66 809.198 1274.02 831.522 1263.58 851.971C1243.34 891.407 1221.22 930.221 1191.59 977.377C1186.59 985.514 1181.79 993.027 1181.16 993.862C1180.12 995.323 1179.7 994.904 1176.36 988.437C1169.27 974.456 1163.42 956.51 1160.29 940.025C1157.16 923.748 1157.79 895.373 1161.34 877.846C1164.05 864.91 1163.84 865.119 1170.1 861.988C1196.81 848.425 1283.2 807.944 1284.03 808.779ZM1643.97 823.387V832.15C1643.97 878.681 1638.96 942.531 1631.66 989.064C1630.4 997.201 1629.36 1003.88 1629.15 1004.09C1629.15 1004.09 1623.1 1002.42 1616.01 1000.33C1584.71 990.522 1550.7 976.124 1520.02 959.226C1499.78 948.166 1470.36 930.01 1471.2 929.175C1471.4 928.968 1480.17 924.378 1490.39 918.952C1531.29 897.67 1570.52 874.717 1604.53 851.973C1617.26 843.417 1636.45 829.648 1640.63 825.89L1643.97 823.387ZM1126.49 885.146C1127.33 885.146 1127.12 886.816 1125.86 894.328C1125.03 899.755 1123.99 909.77 1123.57 916.653C1121.9 947.119 1126.91 969.655 1141.93 1000.54C1146.11 1009.09 1149.45 1016.19 1149.24 1016.39C1147.77 1017.65 1009.64 1058.13 966.24 1070.02C953.304 1073.57 942.038 1076.7 941.199 1076.9C939.741 1077.32 939.532 1077.12 940.157 1073.56C944.956 1042.89 968.327 1002.83 1000.88 969.026C1022.58 946.492 1039.9 933.347 1069.53 916.443C1090.81 904.343 1123.57 886.192 1126.07 885.355C1126.08 885.146 1126.28 885.146 1126.49 885.146ZM1452 943.363C1452.21 943.155 1457.22 945.87 1463.27 949.415C1507.92 975.29 1570.1 999.287 1623.1 1011.6L1627.9 1012.64L1621.22 1016.39C1593.47 1031.84 1502.29 1069.81 1409.02 1104.66C1395.45 1109.66 1382.1 1114.67 1379.59 1115.72C1377.09 1116.76 1374.79 1117.39 1374.79 1117.18C1374.79 1116.97 1378.55 1109.66 1383.35 1100.69C1409.43 1051.87 1435.72 992.399 1449.08 951.084C1450.75 947.119 1451.79 943.574 1452 943.363ZM1418.83 954.215C1419.04 954.427 1417.37 958.805 1415.28 963.813C1397.13 1007.84 1373.33 1055.83 1342.87 1109.67C1335.15 1123.44 1328.68 1134.5 1328.47 1134.5C1328.27 1134.5 1322 1130.74 1314.49 1126.15C1270.26 1099.03 1231.03 1065.64 1205.37 1033.3L1201.61 1028.71L1220.59 1023.49C1288.62 1004.92 1346.41 984.89 1403.8 960.269C1411.94 956.929 1418.62 954.215 1418.83 954.215ZM1624.98 1026.2C1625.19 1031 1614.55 1073.99 1605.78 1105.07C1598.48 1131.16 1592.22 1151.61 1580.74 1187.7C1575.74 1203.57 1571.36 1216.71 1571.15 1216.71C1570.94 1216.71 1569.69 1216.5 1568.43 1216.08C1506.46 1204.81 1450.96 1189.16 1398.79 1168.3C1384.19 1162.46 1363.32 1153.07 1362.07 1152.02C1361.65 1151.6 1374.17 1145.76 1390.03 1138.88C1484.97 1097.35 1583.46 1050.2 1617.26 1029.96C1621.22 1027.45 1624.35 1026.2 1624.98 1026.2ZM1149.03 1042.48C1149.45 1042.9 1122.95 1081.08 1085.8 1133.04C1072.87 1151.19 1057.84 1172.47 1052.21 1180.4C1046.58 1188.33 1038.02 1200.85 1033.22 1208.36L1024.45 1221.93L1015.06 1214C1004 1204.81 984.81 1185.2 976.255 1174.35C958.309 1152.03 946.209 1128.45 941.41 1106.96C939.114 1096.94 939.114 1091.93 941.198 1091.31C944.327 1090.47 1000.04 1077.33 1052.21 1065.22C1081.21 1058.55 1114.8 1050.62 1126.91 1047.7C1139.01 1044.77 1148.82 1042.48 1149.03 1042.48ZM1175.74 1052.7L1182.41 1060.21C1212.46 1093.81 1243.13 1118.64 1280.27 1140.34C1286.95 1144.1 1291.96 1147.43 1291.54 1147.65C1290.08 1148.69 1162.59 1193.96 1103.54 1214.41C1070.36 1226.1 1043.03 1235.49 1042.82 1235.49C1042.61 1235.49 1040.73 1234.24 1038.64 1232.78L1034.89 1230.06L1040.94 1221.3C1060.55 1192.92 1085.18 1161.83 1138.8 1097.15L1175.74 1052.7ZM1342.25 1171.85C1342.45 1171.64 1351.64 1174.98 1362.9 1179.15C1390.03 1189.38 1411.52 1195.84 1440.32 1203.15C1475.79 1212.12 1527.12 1220.88 1557.38 1223.39C1561.97 1223.8 1564.47 1224.22 1563.64 1224.85C1562.17 1225.68 1531.5 1235.91 1508.97 1243C1473.07 1254.27 1363.53 1286.61 1274.22 1312.28C1257.74 1317.08 1243.55 1321.04 1242.72 1321.25C1240.63 1321.67 1233.74 1319.79 1233.74 1318.95C1233.74 1318.54 1238.75 1312.07 1244.8 1304.97C1274.85 1269.08 1304.69 1229.02 1329.52 1191.05C1336.4 1180.61 1342.25 1172.06 1342.25 1171.85ZM1305.52 1172.89C1305.73 1173.1 1290.92 1196.89 1265.04 1237.78C1253.98 1255.1 1241.67 1274.72 1237.29 1281.6C1233.12 1288.28 1226.86 1298.71 1223.31 1304.55L1217.26 1315.2L1214.13 1314.36C1206.62 1312.28 1153.83 1293.7 1139.84 1288.07C1122.52 1281.18 1104.58 1272.84 1091.23 1265.75C1074.53 1256.77 1053.67 1243.42 1055.34 1243C1055.75 1242.79 1084.34 1235.07 1118.77 1225.68C1210.16 1200.85 1260.87 1186.45 1294.05 1176.02C1300.1 1174.14 1305.31 1172.68 1305.52 1172.89ZM1565.3 1233.82H1565.51C1566.35 1235.91 1532.55 1329.8 1520.23 1359.43C1517.52 1366.11 1516.48 1367.78 1515.02 1367.57C1511.47 1367.36 1462.44 1360.48 1432.59 1356.09C1380.64 1348.17 1293.42 1332.93 1271.51 1327.93L1266.5 1326.88L1297.59 1319.78C1364.36 1304.76 1396.5 1296.62 1429.05 1286.61C1470.15 1274.09 1510.85 1258.44 1551.95 1239.24C1558.42 1236.32 1563.84 1234.03 1565.3 1233.82Z" fill="url(#paint0_linear_3_896)"/>
<path d="M1410.27 0.00934453C1405.68 -0.613206 1331.6 26.0949 1283.82 45.4979C1219.34 71.7922 1169.27 96.8328 1138.39 118.529C1126.91 126.67 1112.51 141.066 1110.22 146.698C1109.38 148.785 1108.97 151.289 1108.97 153.793L1136.93 180.293L1203.49 201.576L1361.86 229.955L1542.98 261.046L1544.86 245.396C1544.23 245.396 1543.81 245.188 1543.19 245.188L1519.4 241.431L1514.6 232.877C1489.98 189.474 1462.85 135.64 1447 99.3326C1434.69 71.1629 1423 38.6152 1416.53 15.244C1412.98 1.05526 1412.57 0.221029 1410.28 0.0131913V0.00837551H1410.27V0.00934453ZM1406.93 10.6543H1407.14C1407.35 10.8602 1408.18 16.7066 1409.02 23.5883C1412.56 52.8049 1419.04 80.9698 1429.26 111.435C1436.98 134.389 1436.98 133.138 1428.01 130.424C1406.72 124.583 1311.37 108.098 1242.3 98.5003C1231.24 97.0387 1221.85 95.579 1221.85 95.3712C1221.02 94.537 1271.72 68.0348 1294.05 57.6044C1322.63 44.4558 1401.09 11.6964 1406.93 10.6543ZM1205.78 104.133L1213.92 106.843C1258.16 121.869 1369.37 143.153 1430.72 148.16C1437.6 148.786 1443.45 149.414 1443.65 149.414C1443.86 149.622 1438.02 152.752 1430.51 156.297C1400.88 171.113 1368.33 189.267 1345.79 203.248C1339.12 207.419 1333.06 210.76 1332.23 210.76C1331.4 210.76 1327.02 209.924 1322.43 209.298L1314.08 208.044L1293.22 187.594C1256.49 151.916 1227.69 124.373 1216.63 113.938L1205.78 104.133ZM1197.44 110.6L1226.86 147.326C1242.92 167.566 1259.2 187.387 1262.75 191.767C1266.29 196.152 1269.22 199.701 1269.01 199.909C1268.17 200.534 1226.44 192.395 1204.32 187.389C1181.58 182.171 1172.19 179.668 1158.21 175.288L1146.73 171.53V168.607C1146.94 154.626 1164.68 133.761 1194.73 112.48L1197.44 110.6ZM1447.41 160.679C1448.25 160.679 1449.29 162.557 1451.79 168.19C1458.89 183.839 1481.01 225.99 1486.43 234.127C1488.1 236.842 1491.02 237.05 1461.6 232.251C1390.87 220.771 1368.12 217.02 1368.12 216.602C1368.12 216.394 1370.21 214.933 1372.92 213.471C1394.83 201.371 1416.95 185.929 1436.56 169.444C1441.36 165.479 1445.74 161.723 1446.58 161.096C1446.78 160.679 1447.2 160.472 1447.41 160.679Z" fill="url(#paint1_linear_3_896)"/>
<path d="M1111.67 143.777C1111.67 143.777 1107.09 151.083 1111.47 161.934C1114.18 168.609 1122.11 176.745 1131.08 185.094C1131.08 185.094 1223.94 275.651 1235.2 288.59C1286.53 347.848 1308.86 406.273 1310.95 486.817C1312.2 538.565 1302.39 584.052 1277.98 636.844C1234.58 731.577 1142.97 836.116 1001.71 952.132L1022.37 945.245C1035.72 935.228 1053.88 924.589 1096.44 901.218C1194.72 847.381 1305.31 797.929 1440.94 747.016C1636.24 673.566 1957.38 587.596 2140.16 559.639L2159.15 556.716L2156.23 552.125C2139.54 526.25 2128.06 510.185 2114.28 493.075C2074.22 443.414 2025.61 403.144 1966.14 369.757C1884.34 324.063 1778.55 288.382 1644.59 261.882C1619.35 256.872 1563.84 247.275 1518.77 240.389C1423.2 225.578 1361.44 215.351 1293.42 203.666C1269.01 199.491 1232.49 193.233 1208.28 188.018C1195.76 185.302 1171.77 179.67 1152.99 173.202C1137.97 167.356 1116.27 161.514 1111.67 143.777ZM1165.51 195.944C1165.72 195.738 1169.06 196.986 1173.44 198.448C1181.37 201.158 1191.59 204.289 1203.7 207.629C1212.86 210.148 1222.04 212.583 1231.24 214.932C1243.76 218.06 1254.19 220.982 1254.4 220.982C1255.86 222.444 1276.94 289.836 1284.03 315.711C1286.74 325.521 1288.83 333.865 1288.62 333.865C1288.41 334.077 1286.12 330.527 1283.41 325.728C1258.99 282.744 1220.39 239.134 1175.74 204.078C1169.9 199.909 1165.51 196.152 1165.51 195.944ZM1268.17 224.322C1269.22 224.322 1273.81 224.948 1279.44 226.199C1314.91 234.128 1378.55 246.231 1419.24 253.117C1426.13 254.159 1431.55 255.414 1431.55 255.829C1431.55 256.248 1429.05 257.706 1425.92 259.377C1419.03 262.923 1391.28 279.406 1382.1 285.667C1358.94 301.107 1338.07 317.8 1323.05 332.823C1317 338.875 1311.78 343.882 1311.78 343.882C1311.78 343.882 1310.53 340.337 1309.48 335.952C1301.98 306.948 1286.32 263.963 1272.14 233.709C1269.84 228.912 1267.96 224.529 1267.96 224.113C1267.96 224.53 1267.96 224.322 1268.17 224.322ZM1448.87 258.751C1450.12 259.166 1452.21 266.262 1456.38 281.91C1464.1 312.168 1467.65 345.97 1466.4 377.478C1465.98 386.242 1465.56 394.378 1465.15 395.424L1464.52 397.508L1453.67 393.963C1431.34 386.868 1395.04 376.224 1363.95 367.462C1346.21 362.663 1331.82 358.281 1331.82 357.864C1331.82 356.611 1357.69 330.738 1368.75 320.932C1389.82 302.358 1446.99 258.123 1448.87 258.751ZM1463.27 260.835C1463.9 260.212 1549.66 275.024 1588.67 282.537C1617.68 288.169 1659.83 296.934 1662.33 297.979C1663.58 298.395 1659.2 300.899 1645.22 307.158C1590.13 331.99 1549.23 354.314 1508.55 381.442C1497.91 388.537 1488.93 394.378 1488.73 394.378C1488.52 394.378 1488.31 388.329 1488.31 381.025C1488.31 341.381 1480.38 301.317 1465.77 267.515C1464.31 264.176 1463.06 261.047 1463.27 260.835ZM1685.07 304.656C1685.7 305.281 1682.99 322.185 1680.48 332.198C1672.97 363.289 1652.73 409.406 1627.91 452.805C1623.52 460.526 1619.56 466.786 1619.14 466.993C1618.72 467.201 1613.09 464.07 1606.62 460.315C1582.41 446.126 1554.87 432.772 1524.82 420.251C1516.48 416.705 1509.17 413.782 1508.97 413.369C1507.5 412.115 1574.69 367.67 1610.17 346.387C1638.34 329.278 1684.24 303.82 1685.07 304.656ZM1700.93 307.159C1702.81 307.159 1740.79 317.593 1760.61 323.435C1809.64 338.043 1865.98 358.699 1902.7 375.391L1917.93 382.279L1907.3 384.781C1817.58 405.437 1740.79 429.228 1666.71 459.274C1660.66 461.777 1655.23 463.864 1654.82 463.864C1654.4 463.864 1656.49 459.066 1659.2 453.221C1681.53 405.857 1695.93 356.404 1699.47 314.252C1699.68 310.287 1700.3 307.159 1700.93 307.159ZM1322.84 393.963C1323.47 393.335 1352.47 400.223 1368.12 404.601C1391.91 411.281 1442.4 428.18 1442.4 429.434C1442.4 429.641 1436.77 434.441 1430.09 440.285C1402.76 463.029 1376.47 487.022 1344.96 517.487C1335.57 526.463 1327.64 533.765 1327.22 533.765C1326.81 533.765 1326.6 532.51 1326.81 530.842C1331.6 495.786 1330.56 450.717 1323.89 405.02C1323.26 399.176 1322.63 394.17 1322.84 393.963ZM1932.34 394.59C1932.75 395.005 1918.98 416.705 1910.22 429.015C1897.7 446.959 1879.33 470.751 1837.81 522.915C1815.91 550.456 1791.28 581.549 1783.15 591.981C1774.8 602.413 1767.91 611.175 1767.7 611.175C1767.49 611.175 1764.78 607.421 1761.86 602.832C1738.49 567.776 1710.53 537.102 1677.35 509.56C1671.09 504.342 1664.21 498.708 1661.91 497.039C1659.62 495.37 1657.74 493.701 1657.74 493.493C1657.74 492.868 1693.21 477.633 1720.13 466.785C1767.29 447.587 1831.55 424.635 1879.75 409.819C1905 401.891 1931.92 394.171 1932.34 394.59ZM1948.4 398.76C1949.24 398.553 1954.25 401.057 1960.3 404.601C2011 433.605 2060.66 470.957 2099.89 509.351C2110.95 520.203 2138.28 548.58 2137.86 548.788C2137.86 548.788 2128.27 549.622 2117 550.456C2029.15 557.135 1916.69 575.703 1808.6 601.785C1801.3 603.452 1794.83 604.914 1794.41 604.914C1794 604.914 1802.13 596.777 1812.36 586.972C1875.79 525.835 1904.8 487.233 1939.01 418.373C1943.81 408.151 1947.99 399.388 1948.4 398.76C1948.2 398.76 1948.2 398.76 1948.4 398.76ZM1483.72 446.338C1486.64 446.96 1513.77 459.693 1534.21 469.915C1552.99 479.301 1581.16 494.328 1582.62 495.578C1582.83 495.786 1572.81 501.003 1560.51 507.055C1521.28 526.669 1487.68 545.238 1452.63 566.522C1442.61 572.574 1434.27 577.584 1434.06 577.584C1433.22 577.584 1433.43 576.745 1439.07 566.522C1457.85 532.305 1472.87 491.407 1481.42 451.551C1482.26 448.422 1483.09 446.338 1483.72 446.338ZM1456.59 451.343C1457.22 451.971 1450.12 477.634 1445.74 491.615C1437.19 518.115 1422.79 551.291 1408.81 576.331C1405.47 582.17 1400.46 590.726 1397.75 595.525L1392.53 603.871L1380.85 592.606C1367.29 579.46 1356.23 571.322 1342.04 564.017C1336.4 561.099 1332.02 558.592 1332.02 558.177C1332.02 556.508 1367.7 524.166 1395.04 500.796C1414.65 483.894 1455.97 450.718 1456.59 451.343ZM1622.48 519.576L1632.7 526.251C1656.07 541.486 1683.61 561.724 1704.69 579.46C1716.58 589.265 1739.53 609.925 1744.13 614.932L1746.63 617.648L1729.73 622.445C1634.16 648.943 1560.3 672.522 1474.12 704.24C1464.52 707.786 1456.38 710.707 1455.76 710.707C1454.51 710.707 1453.46 711.749 1474.95 691.926C1530.04 641.226 1578.87 585.301 1615.17 530.841L1622.48 519.576ZM1578.87 530.426C1579.28 530.842 1550.7 571.112 1533.59 593.857C1513.14 620.984 1476.83 666.47 1451.79 696.098C1441.36 708.411 1432.39 718.635 1431.97 718.845C1431.34 719.052 1431.14 715.923 1431.14 711.124C1431.14 685.873 1424.67 658.957 1413.4 636.006C1408.6 626.408 1407.76 624.112 1408.81 623.07C1412.77 619.521 1473.49 584.884 1511.89 564.228C1537.76 550.457 1578.24 530.009 1578.87 530.426ZM1315.12 595.111C1315.75 595.111 1320.55 597.613 1325.97 600.536C1339.33 607.838 1351.22 615.976 1361.86 624.741C1362.28 625.157 1356.85 629.541 1349.76 634.754C1329.94 648.943 1299.89 671.689 1282.36 685.669C1264 700.276 1263.38 700.692 1265.46 697.563C1279.23 676.488 1286.12 664.594 1293.42 649.363C1299.89 635.802 1306.36 619.734 1310.95 605.753C1312.62 599.702 1314.7 595.111 1315.12 595.111ZM1385.44 650.196C1386.48 649.99 1387.74 651.865 1393.37 660.213C1405.26 677.946 1414.44 701.736 1416.74 720.933L1417.15 725.108L1388.57 736.167C1337.45 755.988 1290.29 775.603 1258.36 790.207C1249.39 794.382 1233.74 801.892 1223.52 806.903C1213.3 812.117 1204.95 816.082 1204.95 815.874C1204.95 815.666 1211.42 810.867 1219.34 805.022C1281.74 759.745 1335.78 710.082 1376.26 660.422C1380.64 655.204 1384.61 650.404 1385.02 650.197L1385.44 650.196ZM1353.1 658.126C1353.93 658.96 1330.15 685.876 1313.87 702.36C1273.6 743.469 1233.74 775.603 1184.29 806.903C1178.03 810.867 1172.4 814.412 1171.77 814.832C1170.31 815.666 1172.19 813.578 1193.89 789.999C1207.66 775.184 1218.09 762.665 1229.99 747.226C1237.92 737.003 1239.38 735.542 1250.86 727.401C1281.53 705.282 1352.26 657.29 1353.1 658.126Z" fill="url(#paint2_radial_3_896)"/>
<path d="M449.533 1522.12C445.684 1522.12 441.833 1522.49 438.018 1522.49C360.272 1526.63 307.836 1560.85 277.177 1627.67C250.955 1688.1 253.818 1767.09 277.471 1827.89C304.976 1887.29 349.42 1918.65 423.605 1930.49C439.302 1933.06 449.827 1941.68 480.227 1977.17L517.633 2021H585.475L540.364 1975.52C515.428 1950.59 495.259 1928.88 495.259 1926.97C495.259 1925.06 504.798 1920.88 516.345 1917.36C554.41 1905.84 586.021 1876.44 608.133 1831.37C626.03 1795.17 628.599 1783.99 631.164 1738.96C637.876 1604.92 567.208 1521.13 449.529 1522.08L449.533 1522.12ZM509.012 1872.63C476.008 1888.61 428.083 1891.81 396.8 1880.33C364.456 1868.45 333.139 1834.86 319.054 1796.83C303.397 1755.24 305.632 1678.53 323.529 1643.98C352.315 1588.97 390.383 1563.67 446.012 1563.67C528.522 1563.67 575.461 1614.21 581.586 1709.18C586.427 1788.47 559.876 1847.95 509.048 1872.59L509.012 1872.63ZM1680.96 1636.61C1652.5 1636.61 1630.72 1648.13 1616.05 1670.82L1604.53 1688.79V1642.07H1555.28V1922.24H1604.5V1832.69C1604.5 1750.8 1605.52 1741.23 1616.96 1718.83C1632.73 1688.1 1659.87 1672.77 1686.09 1680.11L1703.69 1685.24V1636.69H1680.96V1636.61ZM1391.62 1634.04C1381.97 1634.04 1371.74 1635.33 1361.55 1637.57C1295.65 1654.8 1258.5 1717.87 1260.77 1782.78C1260.77 1837.13 1271.33 1864.3 1297.56 1892.8C1351.28 1936.87 1399.87 1940.39 1465.44 1916.74C1476.62 1911.98 1488.8 1906.48 1488.8 1906.48V1862.4L1465.44 1874.5C1412.37 1897.6 1372.4 1897.6 1340.39 1870.39C1319.97 1849.6 1310.98 1824.66 1306.84 1796.21H1505.41V1758.43C1505.41 1681.42 1459.06 1632.8 1391.58 1634.04H1391.62ZM1311.31 1756.89C1311.31 1756.89 1318.64 1708.85 1345.85 1690C1358.95 1680.76 1373.98 1676.29 1388.68 1676.29C1403.43 1676.29 1418.13 1681.06 1430.27 1690.34C1455.21 1709.51 1459.39 1756.53 1459.39 1756.53H1311.31V1756.89H1311.31ZM123.999 1706.36C70.6075 1674.02 46.9174 1650.69 49.8142 1623.19C58.1004 1547.1 152.128 1557.62 204.199 1586.41L204.57 1535.22C204.57 1535.22 175.781 1522.75 134.524 1522.09C71.2298 1521.13 30.3045 1541.89 11.1279 1584.13C-17.0383 1646.48 7.90139 1693.49 98.0415 1745.93C148.646 1775.37 171.014 1800.94 171.014 1828.8C171.014 1886.38 101.596 1906.48 29.9781 1870.35C15.2389 1863.02 2.76903 1856.89 2.10952 1856.89C-0.459193 1873.22 0.864904 1912.27 0.864904 1912.27C0.864904 1912.27 22.8689 1921.51 55.8699 1927.89C137.717 1944.21 212.2 1905.81 219.239 1843.47C225.364 1784.95 204.201 1754.25 124.003 1706.32L123.999 1706.36ZM2116.83 1633.38C2107.22 1633.38 2097.03 1634.7 2086.39 1636.94C2020.57 1654.18 1983.49 1717.25 1986.02 1782.16C1986.02 1836.44 1996.55 1863.35 2022.77 1891.81C2076.49 1935.92 2125.08 1939.48 2190.98 1915.79C2202.13 1911.03 2214.27 1905.6 2214.27 1905.6V1861.45L2190.95 1873.62C2137.77 1896.65 2097.8 1896.65 2065.9 1869.44C2045.36 1848.69 2036.45 1824.04 2032.3 1795.25H2230.55V1757.48C2230.55 1680.84 2184.19 1632.18 2116.72 1633.46L2116.83 1633.38ZM2036.52 1756.23C2036.52 1756.23 2043.93 1708.27 2071.1 1689.05C2084.16 1679.77 2099.19 1675.3 2113.9 1675.3C2128.56 1675.3 2143.34 1680.06 2155.49 1689.38C2180.42 1708.56 2184.6 1755.9 2184.6 1755.9H2036.56L2036.52 1756.23ZM1133.82 1706.98C1080.43 1674.71 1056.81 1651.31 1059.67 1623.81C1067.96 1547.68 1161.98 1558.24 1214.06 1587.03L1214.42 1535.84C1214.42 1535.84 1185.64 1523.37 1144.38 1522.78C1081.08 1521.83 1040.16 1542.58 1020.95 1584.83C992.82 1647.17 1018.09 1694.18 1107.93 1746.62C1158.47 1776.04 1180.83 1801.27 1180.83 1829.13C1180.83 1886.71 1111.45 1907.14 1039.83 1870.68C1025.16 1863.35 1012.7 1857.3 1011.96 1857.3C1009.39 1873.61 1010.72 1912.67 1010.72 1912.67C1010.72 1912.67 1032.46 1921.58 1065.36 1928.29C1147.28 1944.65 1221.8 1906.29 1228.8 1843.95C1234.89 1785.71 1213.77 1755.02 1133.82 1707.05V1706.98H1133.82ZM2406.2 1635.95C2377.75 1635.95 2355.71 1647.5 2341.3 1670.2L2329.78 1688.1V1641.45H2280.53V1921.55H2329.74V1832C2329.74 1750.15 2330.73 1740.54 2342.22 1718.17C2357.98 1687.48 2385.12 1672.11 2411.34 1679.48L2428.94 1684.61V1635.95L2406.2 1635.95ZM742.17 1705.37V1526.92H692.519V1922.17H901.327V1875.49H742.172V1705.37H742.17ZM1890.42 1761L1849.5 1867.49L1810.15 1760.41L1770.17 1641.75H1719.35C1752.28 1735.11 1788.11 1830.09 1824.23 1922.17C1839.89 1922.54 1855.58 1922.17 1871.24 1922.17L1926.51 1783.41L1982.8 1641.78H1934.21C1934.21 1641.78 1912.75 1698.04 1890.39 1761.04L1890.42 1761ZM856.583 1419.22C864.579 1419.22 871.252 1416.66 876.753 1411.16C882.178 1405.73 885.039 1399.35 885.039 1391.35C885.039 1383.36 882.178 1376.68 876.753 1371.55C871.252 1366.42 864.907 1363.85 856.949 1363.85C848.884 1363.85 842.208 1366.42 836.779 1371.84C831.28 1377.27 828.786 1383.95 828.786 1391.65C828.786 1399.71 831.355 1406.39 836.779 1411.45C841.915 1416.58 848.59 1419.15 856.583 1419.15V1419.22ZM838.983 1373.75C843.748 1368.98 849.544 1366.78 856.95 1366.78C863.919 1366.78 869.715 1368.98 874.556 1373.75C879.323 1378.52 881.89 1384.31 881.89 1391.35C881.89 1398.39 879.323 1404.48 874.556 1409.25C869.716 1414.01 863.919 1416.29 856.95 1416.29C849.873 1416.29 844.115 1414.09 839.35 1409.25C834.583 1404.48 832.016 1398.39 832.016 1391.35C832.016 1384.31 834.216 1378.52 838.983 1373.75ZM850.825 1393.92H854.052C856.328 1393.92 858.564 1396.12 860.47 1400.3L864.323 1408.95H870.372L865.607 1399.34C863.664 1395.5 861.758 1393.26 859.519 1392.63C862.343 1391.97 864.579 1391.02 866.194 1389.11C867.804 1387.46 868.392 1385.22 868.392 1382.69C868.392 1379.76 867.476 1377.56 865.534 1375.95C863.332 1374.11 859.812 1373.12 855.263 1373.12H845.072V1408.95H850.205V1393.92L850.825 1393.92ZM850.825 1377.27H855.302C858.528 1377.27 860.803 1377.93 862.049 1378.88C863.26 1379.84 863.59 1381.09 863.59 1383.36C863.59 1387.5 861.019 1389.45 856.255 1389.45H850.756V1377.27H850.825ZM30.6326 1390.73C30.6326 1378.26 30.2673 1368.98 29.9731 1363.52H30.2673C31.5491 1369.97 33.1269 1374.78 34.4104 1377.97L82.0813 1484.46H90.0766L137.747 1377.01C139.034 1374.08 140.318 1369.68 141.894 1363.55H142.259C141.307 1374.19 140.977 1383.43 140.977 1390.8V1484.79H157.293V1345.07H136.831L93.0106 1442.25C91.3956 1446.1 89.1583 1451.86 86.2988 1459.49H85.6359C84.6838 1455.71 82.4465 1449.95 79.2572 1442.91L36.4227 1344.74H14.6791V1484.46H30.3738V1390.8L30.6326 1390.73ZM193.05 1390.99H207.135V1478.01H193.05V1390.99ZM200.092 1359.08C203.027 1359.08 205.52 1358.09 207.426 1356.15C209.37 1354.24 210.656 1351.75 210.656 1348.82C210.656 1345.95 209.7 1343.39 207.465 1341.48C205.484 1339.54 202.953 1338.54 200.056 1338.54C197.198 1338.54 194.631 1339.54 192.72 1341.48C190.782 1343.39 189.495 1345.95 189.495 1348.82C189.495 1352.01 190.486 1354.24 192.72 1356.15C194.925 1358.09 197.197 1359.08 200.056 1359.08H200.092ZM307.541 1479.92V1464.59C299.839 1470.34 291.551 1473.21 282.97 1473.21C272.706 1473.21 264.377 1469.69 258.289 1462.94C252.24 1456.27 249.014 1446.98 249.014 1435.43C249.014 1423.33 252.24 1413.72 258.913 1406.39C265.331 1399.35 273.658 1395.83 283.853 1395.83C292.176 1395.83 300.167 1398.4 307.543 1403.53V1387.21C300.833 1383.69 293.169 1382.08 284.513 1382.08C268.522 1382.08 256.057 1387.21 246.743 1397.12C237.5 1407.02 232.732 1420.48 232.732 1436.72C232.732 1451.17 236.876 1463.31 245.497 1472.59C254.479 1482.12 265.962 1486.96 280.041 1486.96C290.928 1486.66 299.839 1484.39 307.541 1479.92ZM347.841 1433.53C347.841 1422.05 350.408 1412.77 355.175 1406.39C359.651 1400.63 365.076 1397.73 371.494 1397.73C376.922 1397.73 380.771 1398.72 383.593 1400.96V1384.31C381.395 1383.36 378.204 1383.03 374.061 1383.03C368.303 1383.03 363.172 1384.97 358.66 1388.53C353.893 1392.3 350.08 1398.06 347.843 1405.4H347.477V1384.97H331.526V1484.72H347.513V1433.53H347.841ZM439.63 1486.7C454.667 1486.7 466.768 1481.86 475.751 1472.25C484.696 1462.71 489.171 1449.88 489.171 1433.89C489.171 1417.57 485.067 1405.1 476.705 1395.82C468.418 1386.55 456.901 1382.07 441.864 1382.07C426.827 1382.07 414.726 1386.55 405.743 1395.2C396.136 1404.74 391.074 1418.2 391.074 1435.47C391.074 1450.5 395.182 1462.97 403.839 1472.25C412.784 1481.86 424.63 1486.66 439.63 1486.66V1486.7ZM416.894 1405.43C422.981 1399.02 430.978 1395.82 440.876 1395.82C451.148 1395.82 458.847 1399.02 464.568 1405.43C470.324 1412.15 473.187 1421.72 473.187 1434.51C473.187 1446.69 470.618 1456.26 465.19 1462.68C459.765 1469.39 451.77 1472.94 441.206 1472.94C430.939 1472.94 422.981 1469.39 416.894 1462.68C410.845 1455.93 407.946 1446.69 407.946 1434.51C407.324 1422.41 410.515 1412.51 416.894 1405.43ZM559.181 1478.01C565.267 1472.58 568.497 1465.91 568.497 1457.54C568.497 1450.21 565.926 1444.12 561.161 1439.32C557.272 1435.47 551.262 1431.98 542.57 1428.46C534.865 1425.24 530.1 1422.37 527.531 1420.14C524.966 1417.57 523.388 1414.38 523.388 1409.87C523.388 1405.73 525.003 1402.54 528.158 1399.97C531.385 1397.41 535.492 1396.16 540.993 1396.16C549.611 1396.16 556.981 1398.43 563.726 1403.24V1387.25C557.273 1384.02 550.269 1382.48 542.274 1382.48C532.007 1382.48 523.352 1385.31 516.969 1390.77C510.257 1396.2 507.069 1403.24 507.069 1411.52C507.069 1418.86 509.268 1424.95 513.446 1429.42C516.967 1433.23 522.985 1437.12 531.343 1440.6C539.34 1444.12 544.766 1447.31 547.661 1449.88C550.521 1452.45 551.804 1455.64 551.804 1459.42C551.804 1468.73 545.426 1473.54 532.956 1473.54C523.347 1473.54 514.733 1470.38 507.027 1464V1481.23C513.996 1485.42 522.358 1487.32 531.598 1487.32C543.444 1486.7 552.719 1483.8 559.101 1478.04L559.181 1478.01ZM635.31 1382.07C620.272 1382.07 608.172 1386.55 599.188 1395.2C589.654 1404.74 584.52 1418.2 584.52 1435.47C584.52 1450.51 588.666 1462.98 597.282 1472.25C606.267 1481.86 618.073 1486.66 633.11 1486.66C648.511 1486.66 660.248 1481.83 669.231 1472.21C678.216 1462.68 682.689 1449.85 682.689 1433.86C682.689 1417.54 678.508 1405.07 670.219 1395.79C661.569 1386.51 650.05 1382.04 635.381 1382.04L635.31 1382.07ZM666.333 1434.52C666.333 1446.69 663.766 1456.26 658.339 1462.68C652.911 1469.39 644.916 1472.95 634.353 1472.95C624.082 1472.95 616.127 1469.39 610.038 1462.68C603.989 1455.93 601.092 1446.69 601.092 1434.52C601.092 1421.68 604.285 1411.78 610.702 1405.1C616.749 1398.72 624.748 1395.5 634.685 1395.5C644.584 1395.5 652.544 1398.72 658.299 1405.1C663.434 1412.14 666.296 1421.72 666.296 1434.52H666.333ZM709.534 1484.42H725.486V1398.07H748.845V1384.64H725.484V1369.24C725.484 1355.23 730.909 1348.19 742.133 1348.19C745.911 1348.19 749.761 1349.15 752.622 1350.76V1336.35C749.761 1335.07 745.911 1334.77 741.103 1334.77C732.487 1334.77 725.447 1337.34 719.687 1342.77C712.976 1349.15 709.421 1357.44 709.421 1368.66V1385.02H692.548V1398.44H709.421V1484.47L709.534 1484.42ZM775.063 1457.21C775.063 1476.73 783.684 1486.66 801.284 1486.66C807.666 1486.66 812.469 1485.64 816.319 1483.36V1469.65C813.387 1471.85 809.902 1472.88 806.053 1472.88C800.628 1472.88 796.813 1471.59 794.574 1468.69C792.3 1465.84 791.018 1460.99 791.018 1454.32V1398.03H816.318V1384.6H791.018V1355.2C785.517 1357.1 780.127 1358.72 775.027 1360.33V1384.6H757.792V1398.03H775.027V1457.18L775.063 1457.21ZM2491.28 1641.08C2485.86 1635.95 2479.44 1633.38 2471.48 1633.38C2463.42 1633.38 2456.74 1635.95 2451.31 1641.45C2445.88 1646.84 2443.31 1653.55 2443.31 1661.25C2443.31 1669.25 2445.88 1675.92 2451.27 1681.06C2456.7 1686.19 2463.37 1688.76 2471.44 1688.76C2479.4 1688.76 2486.11 1686.19 2491.61 1680.76C2497 1675.26 2499.86 1668.92 2499.86 1660.96C2499.57 1652.89 2496.67 1646.22 2491.24 1641.09L2491.28 1641.08ZM2488.72 1678.86C2483.95 1683.62 2478.15 1685.82 2471.11 1685.82C2464.15 1685.82 2458.35 1683.62 2453.51 1678.86C2448.75 1674.02 2446.18 1667.96 2446.18 1660.89C2446.18 1653.92 2448.38 1648.13 2453.22 1643.29C2457.98 1638.52 2463.74 1636.32 2471.11 1636.32C2478.08 1636.32 2483.88 1638.52 2488.72 1643.29C2493.48 1648.13 2496.05 1653.92 2496.05 1660.89C2496.05 1668.3 2493.85 1674.02 2488.72 1678.86ZM2474.34 1662.54C2477.2 1661.88 2479.48 1660.59 2481.05 1659.02C2482.67 1657.37 2483.25 1655.13 2483.25 1652.57C2483.25 1649.7 2482.34 1647.43 2480.39 1645.85C2478.19 1644.02 2474.64 1643.03 2470.13 1643.03H2459.93V1678.82H2465.07V1663.78H2468.26C2470.46 1663.78 2472.66 1665.98 2474.64 1670.16L2478.45 1678.78H2484.54L2479.78 1669.17C2478.12 1664.99 2476.22 1663.08 2474.28 1662.46L2474.34 1662.54ZM2470.82 1659.31H2465.32V1647.21H2469.83C2473.02 1647.21 2475.26 1647.8 2476.54 1648.79C2477.82 1649.74 2478.12 1650.99 2478.12 1653.26C2478.12 1657.41 2475.55 1659.32 2470.79 1659.32L2470.82 1659.31ZM1578.64 1380.5H1583.12V1344.67H1594.96V1340.2H1566.8V1344.67H1578.65V1380.5H1578.64ZM1605.78 1353.58C1605.78 1350.1 1605.78 1347.24 1605.52 1345.63C1605.82 1347.53 1606.48 1348.82 1606.77 1349.77L1620.52 1380.5H1622.73L1636.51 1349.47C1636.88 1348.52 1637.18 1347.27 1637.8 1345.63C1637.5 1348.82 1637.5 1351.38 1637.5 1353.33V1380.46H1642.27V1340.2H1636.51L1624.05 1367.99C1623.75 1368.99 1622.76 1370.93 1622.14 1373.13H1621.77C1621.51 1371.84 1620.85 1370.56 1619.94 1368.36L1607.47 1340.2H1601.02V1380.54H1605.52V1353.62L1605.78 1353.58Z" fill="#231F1F"/>
</g>
<defs>
<linearGradient id="paint0_linear_3_896" x1="1107.41" y1="1242.12" x2="1207.23" y2="1183.13" gradientUnits="userSpaceOnUse">
<stop stop-color="#909CA9"/>
<stop offset="1" stop-color="#EDEDEE"/>
</linearGradient>
<linearGradient id="paint1_linear_3_896" x1="1109.7" y1="130.119" x2="1190.02" y2="130.119" gradientUnits="userSpaceOnUse">
<stop stop-color="#939FAB"/>
<stop offset="1" stop-color="#DCDEE1"/>
</linearGradient>
<radialGradient id="paint2_radial_3_896" cx="0" cy="0" r="1" gradientUnits="userSpaceOnUse" gradientTransform="translate(1514.99 498.49) rotate(-171.457) scale(103.554 207.16)">
<stop stop-color="#EE352C"/>
<stop offset="1" stop-color="#A91D22"/>
</radialGradient>
<clipPath id="clip0_3_896">
<rect width="2500" height="2021" fill="white"/>
</clipPath>
</defs>
</svg>
