<svg width="540" height="123" viewBox="0 0 540 123" fill="none" xmlns="http://www.w3.org/2000/svg">
<g clip-path="url(#clip0_3_922)">
<path d="M313.19 48.227H291.933V50.482C298.582 50.482 299.651 51.907 299.651 60.339V75.54C299.651 83.971 298.583 85.515 291.933 85.515C286.828 84.803 283.383 82.071 278.633 76.846L273.171 70.909C280.533 69.601 284.451 64.971 284.451 59.745C284.451 53.215 278.871 48.227 268.42 48.227H247.52V50.482C254.169 50.482 255.238 51.907 255.238 60.339V75.54C255.238 83.971 254.169 85.515 247.52 85.515V87.771H271.151V85.515C264.502 85.515 263.433 83.971 263.433 75.54V71.266H265.451L278.633 87.771H313.19C330.171 87.771 337.534 78.747 337.534 67.939C337.534 57.133 330.172 48.227 313.19 48.227ZM263.434 67.582V51.79H268.302C273.645 51.79 276.021 55.471 276.021 59.746C276.021 63.903 273.645 67.583 268.302 67.583L263.434 67.582ZM313.547 84.09H312.715C308.441 84.09 307.847 83.022 307.847 77.559V51.79C307.847 51.79 313.072 51.79 313.547 51.79C325.897 51.79 328.152 60.814 328.152 67.821C328.152 75.064 325.896 84.09 313.547 84.09Z" fill="#00749A"/>
<path d="M181.378 71.978L189.572 47.751C191.948 40.745 190.879 38.727 183.279 38.727V36.351H205.604V38.727C198.123 38.727 196.342 40.508 193.373 49.177L179.834 89.79H178.291L166.177 52.62L153.828 89.79H152.284L139.103 49.177C136.253 40.508 134.353 38.727 127.465 38.727V36.351H153.828V38.727C146.821 38.727 144.92 40.389 147.415 47.751L155.371 71.978L167.365 36.351H169.622L181.378 71.978Z" fill="#00749A"/>
<path d="M221.752 89.314C208.69 89.314 198.002 79.696 198.002 67.938C198.002 56.301 208.691 46.681 221.752 46.681C234.815 46.681 245.502 56.301 245.502 67.938C245.502 79.696 234.815 89.314 221.752 89.314ZM221.752 50.365C210.828 50.365 207.027 60.22 207.027 67.939C207.027 75.778 210.828 85.515 221.752 85.515C232.797 85.515 236.597 75.778 236.597 67.939C236.597 60.22 232.797 50.365 221.752 50.365Z" fill="#00749A"/>
<path d="M366.864 85.396V87.771H339.67V85.396C347.627 85.396 349.052 83.378 349.052 71.501V52.502C349.052 40.625 347.627 38.726 339.67 38.726V36.35H364.251C376.482 36.35 383.253 42.644 383.253 51.077C383.253 59.271 376.482 65.683 364.251 65.683H357.482V71.5C357.482 83.378 358.907 85.396 366.864 85.396ZM364.251 40.625H357.482V61.289H364.251C370.902 61.289 373.989 56.658 373.989 51.077C373.989 45.377 370.902 40.625 364.251 40.625Z" fill="#464342"/>
<path d="M464.833 76.609L464.239 78.746C463.171 82.665 461.863 84.09 453.432 84.09H451.769C445.595 84.09 444.526 82.665 444.526 74.234V68.772C453.789 68.772 454.502 69.602 454.502 75.778H456.758V58.083H454.502C454.502 64.258 453.789 65.089 444.526 65.089V51.79H451.056C459.489 51.79 460.794 53.215 461.863 57.134L462.458 59.389H464.357L463.527 48.227H428.613V50.482C435.262 50.482 436.332 51.907 436.332 60.339V75.54C436.332 83.253 435.424 85.196 430.181 85.473C425.198 84.712 421.777 81.994 417.096 76.846L411.633 70.909C418.996 69.601 422.915 64.971 422.915 59.745C422.915 53.215 417.334 48.227 406.884 48.227H385.984V50.482C392.633 50.482 393.702 51.907 393.702 60.339V75.54C393.702 83.971 392.634 85.515 385.984 85.515V87.771H409.616V85.515C402.967 85.515 401.897 83.971 401.897 75.54V71.266H403.916L417.097 87.771H465.903L466.616 76.61L464.833 76.609ZM401.896 67.582V51.79H406.764C412.108 51.79 414.484 55.471 414.484 59.746C414.484 63.903 412.108 67.583 406.764 67.583L401.896 67.582Z" fill="#464342"/>
<path d="M488.939 89.314C484.189 89.314 480.032 86.821 478.251 85.276C477.657 85.871 476.589 87.652 476.352 89.314H474.095V72.928H476.47C477.421 80.765 482.882 85.396 489.889 85.396C493.689 85.396 496.777 83.259 496.777 79.697C496.777 76.61 494.046 74.234 489.177 71.978L482.408 68.772C477.657 66.514 474.095 62.595 474.095 57.371C474.095 51.671 479.439 46.803 486.802 46.803C490.721 46.803 494.045 48.228 496.065 49.89C496.658 49.415 497.252 48.108 497.609 46.682H499.865V60.696H497.371C496.539 55.114 493.452 50.483 487.159 50.483C483.834 50.483 480.745 52.383 480.745 55.353C480.745 58.44 483.239 60.102 488.94 62.715L495.47 65.921C501.171 68.652 503.426 73.048 503.426 76.61C503.426 84.09 496.895 89.314 488.939 89.314Z" fill="#464342"/>
<path d="M525.514 89.314C520.763 89.314 516.606 86.821 514.826 85.276C514.232 85.871 513.164 87.652 512.927 89.314H510.67V72.928H513.045C513.995 80.765 519.457 85.396 526.464 85.396C530.264 85.396 533.352 83.259 533.352 79.697C533.352 76.61 530.621 74.234 525.751 71.978L518.982 68.772C514.232 66.514 510.669 62.595 510.669 57.371C510.669 51.671 516.013 46.803 523.376 46.803C527.295 46.803 530.619 48.228 532.639 49.89C533.232 49.415 533.826 48.108 534.181 46.682H536.438V60.696H533.945C533.113 55.114 530.026 50.483 523.733 50.483C520.408 50.483 517.319 52.383 517.319 55.353C517.319 58.44 519.813 60.102 525.514 62.715L532.044 65.921C537.745 68.652 540 73.048 540 76.61C540 84.09 533.469 89.314 525.514 89.314Z" fill="#464342"/>
<path d="M8.70801 61.26C8.70801 82.062 20.797 100.039 38.327 108.558L13.258 39.872C10.342 46.408 8.70801 53.641 8.70801 61.26Z" fill="#464342"/>
<path d="M96.74 58.608C96.74 52.113 94.407 47.615 92.406 44.114C89.742 39.785 87.245 36.119 87.245 31.79C87.245 26.959 90.909 22.462 96.07 22.462C96.303 22.462 96.524 22.491 96.751 22.504C87.401 13.938 74.944 8.70801 61.262 8.70801C42.902 8.70801 26.749 18.128 17.352 32.396C18.585 32.433 19.747 32.459 20.734 32.459C26.231 32.459 34.74 31.792 34.74 31.792C37.573 31.625 37.907 35.786 35.077 36.121C35.077 36.121 32.23 36.456 29.062 36.622L48.2 93.547L59.701 59.054L51.513 36.62C48.683 36.454 46.002 36.119 46.002 36.119C43.17 35.953 43.502 31.623 46.334 31.79C46.334 31.79 55.013 32.457 60.177 32.457C65.673 32.457 74.183 31.79 74.183 31.79C77.018 31.623 77.351 35.784 74.52 36.119C74.52 36.119 71.667 36.454 68.505 36.62L87.497 93.114L92.739 75.597C95.011 68.328 96.74 63.107 96.74 58.608Z" fill="#464342"/>
<path d="M62.184 65.857L46.416 111.676C51.124 113.06 56.103 113.817 61.262 113.817C67.382 113.817 73.251 112.759 78.714 110.838C78.573 110.613 78.445 110.374 78.34 110.114L62.184 65.857Z" fill="#464342"/>
<path d="M107.376 36.046C107.602 37.72 107.73 39.517 107.73 41.45C107.73 46.783 106.734 52.778 103.734 60.274L87.681 106.687C103.305 97.576 113.814 80.649 113.814 61.261C113.815 52.124 111.481 43.532 107.376 36.046Z" fill="#464342"/>
<path d="M61.262 0C27.483 0 0 27.481 0 61.26C0 95.043 27.483 122.523 61.262 122.523C95.04 122.523 122.527 95.043 122.527 61.26C122.526 27.481 95.04 0 61.262 0ZM61.262 119.715C29.032 119.715 2.809 93.492 2.809 61.26C2.809 29.03 29.031 2.809 61.262 2.809C93.491 2.809 119.712 29.03 119.712 61.26C119.712 93.492 93.491 119.715 61.262 119.715Z" fill="#464342"/>
</g>
<defs>
<clipPath id="clip0_3_922">
<rect width="540" height="122.523" fill="white"/>
</clipPath>
</defs>
</svg>
